M48
; DRILL file {KiCad (5.1.6)-1} date 01/10/21 11:49:09
; FORMAT={3:3/ absolute / metric / suppress leading zeros}
; #@! TF.CreationDate,2021-01-10T11:49:09+10:30
; #@! TF.GenerationSoftware,Kicad,Pcbnew,(5.1.6)-1
FMAT,2
METRIC,TZ
T1C0.800
T2C0.813
%
G90
G05
T1
X231140Y-123190
X231140Y-128190
X215900Y-98425
X278257Y-100330
X283257Y-100330
X264160Y-100330
X269160Y-100330
X215900Y-103425
T2
X215900Y-109855
X215900Y-112395
X215900Y-114935
X215900Y-117475
X215900Y-120015
X215900Y-122555
X215900Y-125095
X267970Y-105410
X267970Y-107950
X267970Y-110490
X267970Y-113030
X267970Y-115570
X267970Y-118110
X267970Y-120650
X267970Y-123190
X267970Y-125730
X267970Y-128270
X267970Y-130810
X267970Y-133350
X267970Y-135890
X267970Y-138430
X283210Y-105410
X283210Y-107950
X283210Y-110490
X283210Y-113030
X283210Y-115570
X283210Y-118110
X283210Y-120650
X283210Y-123190
X283210Y-125730
X283210Y-128270
X283210Y-130810
X283210Y-133350
X283210Y-135890
X283210Y-138430
X220980Y-120650
X220980Y-123190
X220980Y-125730
X220980Y-128270
X220980Y-130810
X220980Y-133350
X220980Y-135890
X220980Y-138430
X228600Y-120650
X228600Y-123190
X228600Y-125730
X228600Y-128270
X228600Y-130810
X228600Y-133350
X228600Y-135890
X228600Y-138430
X233680Y-100330
X233680Y-102870
X233680Y-105410
X233680Y-107950
X233680Y-110490
X233680Y-113030
X233680Y-115570
X233680Y-118110
X233680Y-120650
X233680Y-123190
X233680Y-125730
X233680Y-128270
X233680Y-130810
X233680Y-133350
X233680Y-135890
X233680Y-138430
X241300Y-100330
X241300Y-102870
X241300Y-105410
X241300Y-107950
X241300Y-110490
X241300Y-113030
X241300Y-115570
X241300Y-118110
X241300Y-120650
X241300Y-123190
X241300Y-125730
X241300Y-128270
X241300Y-130810
X241300Y-133350
X241300Y-135890
X241300Y-138430
X245110Y-100330
X245110Y-102870
X245110Y-105410
X245110Y-107950
X245110Y-110490
X245110Y-113030
X245110Y-115570
X245110Y-118110
X245110Y-120650
X245110Y-123190
X245110Y-125730
X245110Y-128270
X245110Y-130810
X245110Y-133350
X245110Y-135890
X245110Y-138430
X260350Y-100330
X260350Y-102870
X260350Y-105410
X260350Y-107950
X260350Y-110490
X260350Y-113030
X260350Y-115570
X260350Y-118110
X260350Y-120650
X260350Y-123190
X260350Y-125730
X260350Y-128270
X260350Y-130810
X260350Y-133350
X260350Y-135890
X260350Y-138430
X264160Y-105410
X264160Y-107950
X264160Y-110490
X264160Y-113030
X264160Y-115570
X264160Y-118110
X264160Y-120650
X264160Y-123190
X264160Y-125730
X264160Y-128270
X264160Y-130810
X264160Y-133350
X264160Y-135890
X264160Y-138430
X279400Y-105410
X279400Y-107950
X279400Y-110490
X279400Y-113030
X279400Y-115570
X279400Y-118110
X279400Y-120650
X279400Y-123190
X279400Y-125730
X279400Y-128270
X279400Y-130810
X279400Y-133350
X279400Y-135890
X279400Y-138430
X220980Y-100330
X220980Y-102870
X220980Y-105410
X220980Y-107950
X220980Y-110490
X220980Y-113030
X220980Y-115570
X228600Y-100330
X228600Y-102870
X228600Y-105410
X228600Y-107950
X228600Y-110490
X228600Y-113030
X228600Y-115570
T0
M30
