%FSLAX45Y45*%
G04 Gerber Fmt 4.5, Leading zero omitted, Abs format (unit mm)*
G04 Created by KiCad (PCBNEW (6.0.6)) date 2022-10-18 23:29:13*
%MOMM*%
%LPD*%
G01*
G04 APERTURE LIST*
%TA.AperFunction,Profile*%
%ADD10C,0.100000*%
%TD*%
%ADD11C,0.200000*%
G04 APERTURE END LIST*
D10*
X21145500Y-9715500D02*
X28575000Y-9715500D01*
X28575000Y-9715500D02*
X28575000Y-14160500D01*
X21145500Y-9715500D02*
X21145500Y-14160500D01*
X21145500Y-14160500D02*
X28575000Y-14160500D01*
D11*
X21398119Y-14475976D02*
X21398119Y-14275976D01*
X21445738Y-14275976D01*
X21474310Y-14285500D01*
X21493357Y-14304548D01*
X21502881Y-14323595D01*
X21512405Y-14361690D01*
X21512405Y-14390262D01*
X21502881Y-14428357D01*
X21493357Y-14447405D01*
X21474310Y-14466452D01*
X21445738Y-14475976D01*
X21398119Y-14475976D01*
X21598119Y-14475976D02*
X21598119Y-14342643D01*
X21598119Y-14380738D02*
X21607643Y-14361690D01*
X21617167Y-14352167D01*
X21636214Y-14342643D01*
X21655262Y-14342643D01*
X21721929Y-14475976D02*
X21721929Y-14342643D01*
X21721929Y-14275976D02*
X21712405Y-14285500D01*
X21721929Y-14295024D01*
X21731452Y-14285500D01*
X21721929Y-14275976D01*
X21721929Y-14295024D01*
X21845738Y-14475976D02*
X21826690Y-14466452D01*
X21817167Y-14447405D01*
X21817167Y-14275976D01*
X21950500Y-14475976D02*
X21931452Y-14466452D01*
X21921929Y-14447405D01*
X21921929Y-14275976D01*
X22179071Y-14475976D02*
X22179071Y-14275976D01*
X22245738Y-14418833D01*
X22312405Y-14275976D01*
X22312405Y-14475976D01*
X22493357Y-14475976D02*
X22493357Y-14371214D01*
X22483833Y-14352167D01*
X22464786Y-14342643D01*
X22426690Y-14342643D01*
X22407643Y-14352167D01*
X22493357Y-14466452D02*
X22474309Y-14475976D01*
X22426690Y-14475976D01*
X22407643Y-14466452D01*
X22398119Y-14447405D01*
X22398119Y-14428357D01*
X22407643Y-14409309D01*
X22426690Y-14399786D01*
X22474309Y-14399786D01*
X22493357Y-14390262D01*
X22588595Y-14342643D02*
X22588595Y-14542643D01*
X22588595Y-14352167D02*
X22607643Y-14342643D01*
X22645738Y-14342643D01*
X22664786Y-14352167D01*
X22674309Y-14361690D01*
X22683833Y-14380738D01*
X22683833Y-14437881D01*
X22674309Y-14456928D01*
X22664786Y-14466452D01*
X22645738Y-14475976D01*
X22607643Y-14475976D01*
X22588595Y-14466452D01*
X22769548Y-14456928D02*
X22779071Y-14466452D01*
X22769548Y-14475976D01*
X22760024Y-14466452D01*
X22769548Y-14456928D01*
X22769548Y-14475976D01*
X22769548Y-14352167D02*
X22779071Y-14361690D01*
X22769548Y-14371214D01*
X22760024Y-14361690D01*
X22769548Y-14352167D01*
X22769548Y-14371214D01*
M02*
