G04 #@! TF.GenerationSoftware,KiCad,Pcbnew,(6.0.6)*
G04 #@! TF.CreationDate,2022-10-18T23:28:59+10:30*
G04 #@! TF.ProjectId,BBCROMRAM2014,42424352-4f4d-4524-914d-323031342e6b,rev?*
G04 #@! TF.SameCoordinates,Original*
G04 #@! TF.FileFunction,Copper,L2,Bot*
G04 #@! TF.FilePolarity,Positive*
%FSLAX46Y46*%
G04 Gerber Fmt 4.6, Leading zero omitted, Abs format (unit mm)*
G04 Created by KiCad (PCBNEW (6.0.6)) date 2022-10-18 23:28:59*
%MOMM*%
%LPD*%
G01*
G04 APERTURE LIST*
G04 #@! TA.AperFunction,ComponentPad*
%ADD10R,1.397000X1.397000*%
G04 #@! TD*
G04 #@! TA.AperFunction,ComponentPad*
%ADD11C,1.397000*%
G04 #@! TD*
G04 #@! TA.AperFunction,ComponentPad*
%ADD12C,2.100000*%
G04 #@! TD*
G04 #@! TA.AperFunction,ComponentPad*
%ADD13C,2.200000*%
G04 #@! TD*
G04 #@! TA.AperFunction,ComponentPad*
%ADD14C,1.900000*%
G04 #@! TD*
G04 #@! TA.AperFunction,ComponentPad*
%ADD15C,1.600000*%
G04 #@! TD*
G04 #@! TA.AperFunction,Conductor*
%ADD16C,0.508000*%
G04 #@! TD*
G04 #@! TA.AperFunction,Conductor*
%ADD17C,0.254000*%
G04 #@! TD*
G04 #@! TA.AperFunction,Conductor*
%ADD18C,1.270000*%
G04 #@! TD*
G04 APERTURE END LIST*
D10*
X215900000Y-109855000D03*
D11*
X215900000Y-112395000D03*
X215900000Y-114935000D03*
X215900000Y-117475000D03*
X215900000Y-120015000D03*
X215900000Y-122555000D03*
X215900000Y-125095000D03*
D10*
X245110000Y-100330000D03*
D11*
X245110000Y-102870000D03*
X245110000Y-105410000D03*
X245110000Y-107950000D03*
X245110000Y-110490000D03*
X245110000Y-113030000D03*
X245110000Y-115570000D03*
X245110000Y-118110000D03*
X245110000Y-120650000D03*
X245110000Y-123190000D03*
X245110000Y-125730000D03*
X245110000Y-128270000D03*
X245110000Y-130810000D03*
X245110000Y-133350000D03*
X245110000Y-135890000D03*
X245110000Y-138430000D03*
X260350000Y-138430000D03*
X260350000Y-135890000D03*
X260350000Y-133350000D03*
X260350000Y-130810000D03*
X260350000Y-128270000D03*
X260350000Y-125730000D03*
X260350000Y-123190000D03*
X260350000Y-120650000D03*
X260350000Y-118110000D03*
X260350000Y-115570000D03*
X260350000Y-113030000D03*
X260350000Y-110490000D03*
X260350000Y-107950000D03*
X260350000Y-105410000D03*
X260350000Y-102870000D03*
X260350000Y-100330000D03*
D12*
X267970000Y-105410000D03*
D13*
X267970000Y-107950000D03*
D12*
X267970000Y-110490000D03*
X267970000Y-113030000D03*
X267970000Y-115570000D03*
X267970000Y-118110000D03*
X267970000Y-120650000D03*
X267970000Y-123190000D03*
X267970000Y-125730000D03*
X267970000Y-128270000D03*
X267970000Y-130810000D03*
X267970000Y-133350000D03*
X267970000Y-135890000D03*
X267970000Y-138430000D03*
X283210000Y-138430000D03*
X283210000Y-135890000D03*
X283210000Y-133350000D03*
X283210000Y-130810000D03*
X283210000Y-128270000D03*
X283210000Y-125730000D03*
X283210000Y-123190000D03*
X283210000Y-120650000D03*
X283210000Y-118110000D03*
X283210000Y-115570000D03*
X283210000Y-113030000D03*
X283210000Y-110490000D03*
X283210000Y-107950000D03*
X283210000Y-105410000D03*
D14*
X264160000Y-105410000D03*
X264160000Y-107950000D03*
X264160000Y-110490000D03*
X264160000Y-113030000D03*
X264160000Y-115570000D03*
X264160000Y-118110000D03*
X264160000Y-120650000D03*
X264160000Y-123190000D03*
X264160000Y-125730000D03*
X264160000Y-128270000D03*
X264160000Y-130810000D03*
X264160000Y-133350000D03*
X264160000Y-135890000D03*
X264160000Y-138430000D03*
X279400000Y-138430000D03*
X279400000Y-135890000D03*
X279400000Y-133350000D03*
X279400000Y-130810000D03*
X279400000Y-128270000D03*
X279400000Y-125730000D03*
X279400000Y-123190000D03*
X279400000Y-120650000D03*
X279400000Y-118110000D03*
X279400000Y-115570000D03*
X279400000Y-113030000D03*
X279400000Y-110490000D03*
X279400000Y-107950000D03*
X279400000Y-105410000D03*
D10*
X220980000Y-120650000D03*
D11*
X220980000Y-123190000D03*
X220980000Y-125730000D03*
X220980000Y-128270000D03*
X220980000Y-130810000D03*
X220980000Y-133350000D03*
X220980000Y-135890000D03*
X220980000Y-138430000D03*
X228600000Y-138430000D03*
X228600000Y-135890000D03*
X228600000Y-133350000D03*
X228600000Y-130810000D03*
X228600000Y-128270000D03*
X228600000Y-125730000D03*
X228600000Y-123190000D03*
X228600000Y-120650000D03*
D10*
X220980000Y-100330000D03*
D11*
X220980000Y-102870000D03*
X220980000Y-105410000D03*
X220980000Y-107950000D03*
X220980000Y-110490000D03*
X220980000Y-113030000D03*
X220980000Y-115570000D03*
X228600000Y-115570000D03*
X228600000Y-113030000D03*
X228600000Y-110490000D03*
X228600000Y-107950000D03*
X228600000Y-105410000D03*
X228600000Y-102870000D03*
X228600000Y-100330000D03*
D10*
X233680000Y-100330000D03*
D11*
X233680000Y-102870000D03*
X233680000Y-105410000D03*
X233680000Y-107950000D03*
X233680000Y-110490000D03*
X233680000Y-113030000D03*
X233680000Y-115570000D03*
X233680000Y-118110000D03*
X233680000Y-120650000D03*
X233680000Y-123190000D03*
X233680000Y-125730000D03*
X233680000Y-128270000D03*
X233680000Y-130810000D03*
X233680000Y-133350000D03*
X233680000Y-135890000D03*
X233680000Y-138430000D03*
X241300000Y-138430000D03*
X241300000Y-135890000D03*
X241300000Y-133350000D03*
X241300000Y-130810000D03*
X241300000Y-128270000D03*
X241300000Y-125730000D03*
X241300000Y-123190000D03*
X241300000Y-120650000D03*
X241300000Y-118110000D03*
X241300000Y-115570000D03*
X241300000Y-113030000D03*
X241300000Y-110490000D03*
X241300000Y-107950000D03*
X241300000Y-105410000D03*
X241300000Y-102870000D03*
X241300000Y-100330000D03*
D15*
X231140000Y-123190000D03*
X231140000Y-128190000D03*
X264160000Y-100330000D03*
X269160000Y-100330000D03*
X278257000Y-100330000D03*
X283257000Y-100330000D03*
X214630000Y-104267000D03*
X214630000Y-99267000D03*
X231140000Y-104267000D03*
X231140000Y-99267000D03*
D16*
X262890000Y-128270000D02*
X261620000Y-129540000D01*
X261620000Y-129540000D02*
X252730000Y-129540000D01*
X252730000Y-129540000D02*
X251460000Y-128270000D01*
X251460000Y-128270000D02*
X245110000Y-128270000D01*
X243840000Y-128270000D02*
X242570000Y-129540000D01*
X242570000Y-129540000D02*
X238760000Y-129540000D01*
X238760000Y-129540000D02*
X237490000Y-128270000D01*
X237490000Y-128270000D02*
X233680000Y-128270000D01*
X245110000Y-128270000D02*
X243840000Y-128270000D01*
X264160000Y-128270000D02*
X267970000Y-128270000D01*
X264160000Y-128270000D02*
X262890000Y-128270000D01*
X262890000Y-125730000D02*
X261620000Y-127000000D01*
X261620000Y-127000000D02*
X252730000Y-127000000D01*
X252730000Y-127000000D02*
X251460000Y-125730000D01*
X251460000Y-125730000D02*
X245110000Y-125730000D01*
X243840000Y-125730000D02*
X242570000Y-127000000D01*
X242570000Y-127000000D02*
X238760000Y-127000000D01*
X238760000Y-127000000D02*
X237490000Y-125730000D01*
X237490000Y-125730000D02*
X233680000Y-125730000D01*
X264160000Y-125730000D02*
X267970000Y-125730000D01*
X264160000Y-125730000D02*
X262890000Y-125730000D01*
X245110000Y-125730000D02*
X243840000Y-125730000D01*
X275590000Y-123190000D02*
X274320000Y-121920000D01*
X262890000Y-121920000D02*
X261620000Y-123190000D01*
X261620000Y-123190000D02*
X260350000Y-123190000D01*
X252730000Y-123190000D02*
X251460000Y-121920000D01*
X251460000Y-121920000D02*
X243840000Y-121920000D01*
X243840000Y-121920000D02*
X242570000Y-123190000D01*
X242570000Y-123190000D02*
X241300000Y-123190000D01*
X279400000Y-123190000D02*
X275590000Y-123190000D01*
X274269200Y-121920000D02*
X268732000Y-121920000D01*
X260350000Y-123190000D02*
X252730000Y-123190000D01*
X262890000Y-121920000D02*
X267208000Y-121920000D01*
X279400000Y-123190000D02*
X283210000Y-123190000D01*
D17*
X267208000Y-121920000D02*
X268732000Y-121920000D01*
D16*
X275590000Y-118110000D02*
X274320000Y-116840000D01*
X252730000Y-118110000D02*
X251460000Y-116840000D01*
X251460000Y-116840000D02*
X243840000Y-116840000D01*
X243840000Y-116840000D02*
X242570000Y-118110000D01*
X242570000Y-118110000D02*
X241300000Y-118110000D01*
X274345400Y-116840000D02*
X268681200Y-116840000D01*
X260350000Y-118110000D02*
X252730000Y-118110000D01*
X279400000Y-118110000D02*
X275590000Y-118110000D01*
D17*
X267208000Y-116840000D02*
X268681200Y-116840000D01*
D16*
X263042400Y-116840000D02*
X267208000Y-116840000D01*
X263042400Y-116840000D02*
X261772400Y-118110000D01*
X261772400Y-118110000D02*
X260350000Y-118110000D01*
X279400000Y-118110000D02*
X283210000Y-118110000D01*
X262890000Y-107950000D02*
X261620000Y-109220000D01*
X261620000Y-109220000D02*
X252730000Y-109220000D01*
X252730000Y-109220000D02*
X251460000Y-107950000D01*
X251460000Y-107950000D02*
X245110000Y-107950000D01*
X243840000Y-107950000D02*
X242570000Y-109220000D01*
X242570000Y-109220000D02*
X237490000Y-109220000D01*
X237490000Y-109220000D02*
X236220000Y-107950000D01*
X236220000Y-107950000D02*
X233680000Y-107950000D01*
X245110000Y-107950000D02*
X243840000Y-107950000D01*
X264160000Y-107950000D02*
X262890000Y-107950000D01*
X264160000Y-107950000D02*
X267970000Y-107950000D01*
X252730000Y-110490000D02*
X251460000Y-109220000D01*
X251460000Y-109220000D02*
X243840000Y-109220000D01*
X243840000Y-109220000D02*
X242570000Y-110490000D01*
X242570000Y-110490000D02*
X241300000Y-110490000D01*
X279400000Y-110490000D02*
X275590000Y-110490000D01*
X262890000Y-109220000D02*
X261620000Y-110490000D01*
X260350000Y-110490000D02*
X252730000Y-110490000D01*
X267208000Y-109220000D02*
X262890000Y-109220000D01*
X279400000Y-110490000D02*
X283210000Y-110490000D01*
D17*
X267208000Y-109220000D02*
X268732000Y-109220000D01*
D16*
X274320000Y-109220000D02*
X268732000Y-109220000D01*
X261620000Y-110490000D02*
X260350000Y-110490000D01*
X275590000Y-110490000D02*
X274320000Y-109220000D01*
X262890000Y-123190000D02*
X261620000Y-124460000D01*
X261620000Y-124460000D02*
X252730000Y-124460000D01*
X252730000Y-124460000D02*
X251460000Y-123190000D01*
X251460000Y-123190000D02*
X245110000Y-123190000D01*
X243840000Y-123190000D02*
X242570000Y-124460000D01*
X242570000Y-124460000D02*
X238760000Y-124460000D01*
X238760000Y-124460000D02*
X237490000Y-123190000D01*
X237490000Y-123190000D02*
X233680000Y-123190000D01*
X245110000Y-123190000D02*
X243840000Y-123190000D01*
X264160000Y-123190000D02*
X267970000Y-123190000D01*
X264160000Y-123190000D02*
X262890000Y-123190000D01*
X262890000Y-120650000D02*
X261620000Y-121920000D01*
X261620000Y-121920000D02*
X252730000Y-121920000D01*
X252730000Y-121920000D02*
X251460000Y-120650000D01*
X251460000Y-120650000D02*
X245110000Y-120650000D01*
X243840000Y-120650000D02*
X242570000Y-121920000D01*
X242570000Y-121920000D02*
X238760000Y-121920000D01*
X238760000Y-121920000D02*
X237490000Y-120650000D01*
X237490000Y-120650000D02*
X233680000Y-120650000D01*
X264160000Y-120650000D02*
X262890000Y-120650000D01*
X245110000Y-120650000D02*
X243840000Y-120650000D01*
X264160000Y-120650000D02*
X267970000Y-120650000D01*
X262890000Y-118110000D02*
X261620000Y-119380000D01*
X261620000Y-119380000D02*
X252730000Y-119380000D01*
X252730000Y-119380000D02*
X251460000Y-118110000D01*
X251460000Y-118110000D02*
X245110000Y-118110000D01*
X243840000Y-118110000D02*
X242570000Y-119380000D01*
X242570000Y-119380000D02*
X238760000Y-119380000D01*
X238760000Y-119380000D02*
X237490000Y-118110000D01*
X237490000Y-118110000D02*
X233680000Y-118110000D01*
X245110000Y-118110000D02*
X243840000Y-118110000D01*
X264160000Y-118110000D02*
X262890000Y-118110000D01*
X264160000Y-118110000D02*
X267970000Y-118110000D01*
X262890000Y-115570000D02*
X261620000Y-116840000D01*
X261620000Y-116840000D02*
X252730000Y-116840000D01*
X252730000Y-116840000D02*
X251460000Y-115570000D01*
X251460000Y-115570000D02*
X245110000Y-115570000D01*
X243840000Y-115570000D02*
X242570000Y-116840000D01*
X242570000Y-116840000D02*
X238760000Y-116840000D01*
X238760000Y-116840000D02*
X237490000Y-115570000D01*
X237490000Y-115570000D02*
X233680000Y-115570000D01*
X264160000Y-115570000D02*
X267970000Y-115570000D01*
X264160000Y-115570000D02*
X262890000Y-115570000D01*
X245110000Y-115570000D02*
X243840000Y-115570000D01*
X262890000Y-113030000D02*
X261620000Y-114300000D01*
X261620000Y-114300000D02*
X252730000Y-114300000D01*
X252730000Y-114300000D02*
X251460000Y-113030000D01*
X251460000Y-113030000D02*
X245110000Y-113030000D01*
X243840000Y-113030000D02*
X242570000Y-114300000D01*
X242570000Y-114300000D02*
X237490000Y-114300000D01*
X237490000Y-114300000D02*
X236220000Y-113030000D01*
X236220000Y-113030000D02*
X233680000Y-113030000D01*
X245110000Y-113030000D02*
X243840000Y-113030000D01*
X264160000Y-113030000D02*
X262890000Y-113030000D01*
X264160000Y-113030000D02*
X267970000Y-113030000D01*
X262890000Y-110490000D02*
X261620000Y-111760000D01*
X261620000Y-111760000D02*
X252730000Y-111760000D01*
X252730000Y-111760000D02*
X251460000Y-110490000D01*
X251460000Y-110490000D02*
X245110000Y-110490000D01*
X243840000Y-110490000D02*
X242570000Y-111760000D01*
X242570000Y-111760000D02*
X237490000Y-111760000D01*
X237490000Y-111760000D02*
X236220000Y-110490000D01*
X236220000Y-110490000D02*
X233680000Y-110490000D01*
X245110000Y-110490000D02*
X243840000Y-110490000D01*
X264160000Y-110490000D02*
X262890000Y-110490000D01*
X264160000Y-110490000D02*
X267970000Y-110490000D01*
X252730000Y-113030000D02*
X251460000Y-111760000D01*
X251460000Y-111760000D02*
X243840000Y-111760000D01*
X243840000Y-111760000D02*
X242570000Y-113030000D01*
X242570000Y-113030000D02*
X241300000Y-113030000D01*
X261620000Y-113030000D02*
X260350000Y-113030000D01*
X279400000Y-113030000D02*
X283210000Y-113030000D01*
X267309600Y-111760000D02*
X262890000Y-111760000D01*
X274320000Y-111760000D02*
X268681200Y-111760000D01*
X260350000Y-113030000D02*
X252730000Y-113030000D01*
X275590000Y-113030000D02*
X274320000Y-111760000D01*
D17*
X267309600Y-111760000D02*
X268681200Y-111760000D01*
D16*
X262890000Y-111760000D02*
X261620000Y-113030000D01*
X279400000Y-113030000D02*
X275590000Y-113030000D01*
X252730000Y-115570000D02*
X251460000Y-114300000D01*
X251460000Y-114300000D02*
X243840000Y-114300000D01*
X243840000Y-114300000D02*
X242570000Y-115570000D01*
X242570000Y-115570000D02*
X241300000Y-115570000D01*
X274320000Y-114300000D02*
X268630400Y-114300000D01*
X279400000Y-115570000D02*
X275590000Y-115570000D01*
X267258800Y-114300000D02*
X262890000Y-114300000D01*
X279400000Y-115570000D02*
X283210000Y-115570000D01*
X261620000Y-115570000D02*
X260350000Y-115570000D01*
X260350000Y-115570000D02*
X252730000Y-115570000D01*
D17*
X267258800Y-114300000D02*
X268630400Y-114300000D01*
D16*
X262890000Y-114300000D02*
X261620000Y-115570000D01*
X275590000Y-115570000D02*
X274320000Y-114300000D01*
X262890000Y-130810000D02*
X261620000Y-132080000D01*
X261620000Y-132080000D02*
X252730000Y-132080000D01*
X252730000Y-132080000D02*
X251460000Y-130810000D01*
X251460000Y-130810000D02*
X245110000Y-130810000D01*
X243840000Y-130810000D02*
X242570000Y-132080000D01*
X242570000Y-132080000D02*
X238760000Y-132080000D01*
X238760000Y-132080000D02*
X237490000Y-130810000D01*
X237490000Y-130810000D02*
X233680000Y-130810000D01*
X264160000Y-130810000D02*
X267970000Y-130810000D01*
X264160000Y-130810000D02*
X262890000Y-130810000D01*
X245110000Y-130810000D02*
X243840000Y-130810000D01*
X262890000Y-133350000D02*
X261620000Y-134620000D01*
X261620000Y-134620000D02*
X252730000Y-134620000D01*
X252730000Y-134620000D02*
X251460000Y-133350000D01*
X251460000Y-133350000D02*
X245110000Y-133350000D01*
X243840000Y-133350000D02*
X242570000Y-134620000D01*
X242570000Y-134620000D02*
X238760000Y-134620000D01*
X238760000Y-134620000D02*
X237490000Y-133350000D01*
X237490000Y-133350000D02*
X233680000Y-133350000D01*
X245110000Y-133350000D02*
X243840000Y-133350000D01*
X264160000Y-133350000D02*
X262890000Y-133350000D01*
X264160000Y-133350000D02*
X267970000Y-133350000D01*
X262890000Y-135890000D02*
X261620000Y-137160000D01*
X261620000Y-137160000D02*
X252730000Y-137160000D01*
X252730000Y-137160000D02*
X251460000Y-135890000D01*
X251460000Y-135890000D02*
X245110000Y-135890000D01*
X243840000Y-135890000D02*
X242570000Y-137160000D01*
X242570000Y-137160000D02*
X238760000Y-137160000D01*
X238760000Y-137160000D02*
X237490000Y-135890000D01*
X237490000Y-135890000D02*
X233680000Y-135890000D01*
X264160000Y-135890000D02*
X267970000Y-135890000D01*
X245110000Y-135890000D02*
X243840000Y-135890000D01*
X264160000Y-135890000D02*
X262890000Y-135890000D01*
X252730000Y-138430000D02*
X251460000Y-137160000D01*
X251460000Y-137160000D02*
X243840000Y-137160000D01*
X243840000Y-137160000D02*
X242570000Y-138430000D01*
X242570000Y-138430000D02*
X241300000Y-138430000D01*
D17*
X267258800Y-137160000D02*
X268681200Y-137160000D01*
D16*
X267258800Y-137160000D02*
X262890000Y-137160000D01*
X279400000Y-138430000D02*
X283210000Y-138430000D01*
X260350000Y-138430000D02*
X252730000Y-138430000D01*
X274320000Y-137160000D02*
X268681200Y-137160000D01*
X262890000Y-137160000D02*
X261620000Y-138430000D01*
X275590000Y-138430000D02*
X274320000Y-137160000D01*
X261620000Y-138430000D02*
X260350000Y-138430000D01*
X279400000Y-138430000D02*
X275590000Y-138430000D01*
X275590000Y-135890000D02*
X274320000Y-134620000D01*
X260350000Y-135890000D02*
X252730000Y-135890000D01*
X252730000Y-135890000D02*
X251460000Y-134620000D01*
X251460000Y-134620000D02*
X243840000Y-134620000D01*
X243840000Y-134620000D02*
X242570000Y-135890000D01*
X242570000Y-135890000D02*
X241300000Y-135890000D01*
X274370800Y-134670800D02*
X274320000Y-134620000D01*
X267208000Y-134620000D02*
X262890000Y-134620000D01*
X274320000Y-134620000D02*
X268681200Y-134620000D01*
X262890000Y-134620000D02*
X261620000Y-135890000D01*
X279400000Y-135890000D02*
X275590000Y-135890000D01*
D17*
X267208000Y-134620000D02*
X268681200Y-134620000D01*
D16*
X279400000Y-135890000D02*
X283210000Y-135890000D01*
X261620000Y-135890000D02*
X260350000Y-135890000D01*
X252730000Y-133350000D02*
X251460000Y-132080000D01*
X251460000Y-132080000D02*
X243840000Y-132080000D01*
X243840000Y-132080000D02*
X242570000Y-133350000D01*
X242570000Y-133350000D02*
X241300000Y-133350000D01*
X260350000Y-133350000D02*
X252730000Y-133350000D01*
X274320000Y-132080000D02*
X268681200Y-132080000D01*
X279400000Y-133350000D02*
X275590000Y-133350000D01*
X262890000Y-132080000D02*
X261620000Y-133350000D01*
X261620000Y-133350000D02*
X260350000Y-133350000D01*
D17*
X267258800Y-132080000D02*
X268681200Y-132080000D01*
D16*
X275590000Y-133350000D02*
X274320000Y-132080000D01*
X279400000Y-133350000D02*
X283210000Y-133350000D01*
X267258800Y-132080000D02*
X262890000Y-132080000D01*
X262890000Y-129540000D02*
X261620000Y-130810000D01*
X261620000Y-130810000D02*
X260350000Y-130810000D01*
X252730000Y-130810000D02*
X251460000Y-129540000D01*
X251460000Y-129540000D02*
X243840000Y-129540000D01*
X243840000Y-129540000D02*
X242570000Y-130810000D01*
X242570000Y-130810000D02*
X241300000Y-130810000D01*
X260350000Y-130810000D02*
X252730000Y-130810000D01*
X279400000Y-130810000D02*
X275590000Y-130810000D01*
D17*
X267258800Y-129540000D02*
X268732000Y-129540000D01*
D16*
X279400000Y-130810000D02*
X283210000Y-130810000D01*
X274320000Y-129540000D02*
X268732000Y-129540000D01*
X262890000Y-129540000D02*
X267258800Y-129540000D01*
X275590000Y-130810000D02*
X274320000Y-129540000D01*
X260350000Y-128270000D02*
X252730000Y-128270000D01*
X252730000Y-128270000D02*
X251460000Y-127000000D01*
X251460000Y-127000000D02*
X243840000Y-127000000D01*
X243840000Y-127000000D02*
X242570000Y-128270000D01*
X242570000Y-128270000D02*
X241300000Y-128270000D01*
X279400000Y-128270000D02*
X275590000Y-128270000D01*
X274320000Y-127000000D02*
X268681200Y-127000000D01*
X262890000Y-127000000D02*
X267258800Y-127000000D01*
X261620000Y-128270000D02*
X262890000Y-127000000D01*
X279400000Y-128270000D02*
X283210000Y-128270000D01*
X260350000Y-128270000D02*
X261620000Y-128270000D01*
X275590000Y-128270000D02*
X274320000Y-127000000D01*
D17*
X267258800Y-127000000D02*
X268681200Y-127000000D01*
D16*
X228600000Y-123190000D02*
X226695000Y-123190000D01*
X218567010Y-117602010D02*
X215900000Y-114935000D01*
X218567010Y-119443510D02*
X218567010Y-117602010D01*
X219773500Y-120650000D02*
X218567010Y-119443510D01*
X224155000Y-120650000D02*
X220980000Y-120650000D01*
X220980000Y-120650000D02*
X219773500Y-120650000D01*
X226695000Y-123190000D02*
X224155000Y-120650000D01*
X214376000Y-113284000D02*
X214376000Y-125730000D01*
X215392000Y-126746000D02*
X218186000Y-126746000D01*
X219329000Y-135128000D02*
X220091000Y-135890000D01*
X219329000Y-127889000D02*
X219329000Y-135128000D01*
X215900000Y-112395000D02*
X215265000Y-112395000D01*
X215265000Y-112395000D02*
X214376000Y-113284000D01*
X218186000Y-126746000D02*
X219329000Y-127889000D01*
X214376000Y-125730000D02*
X215392000Y-126746000D01*
X220091000Y-135890000D02*
X220980000Y-135890000D01*
X279400000Y-125730000D02*
X283210000Y-125730000D01*
X279400000Y-120650000D02*
X283210000Y-120650000D01*
X279400000Y-107950000D02*
X283210000Y-107950000D01*
X267970000Y-105410000D02*
X264160000Y-105410000D01*
X252730000Y-120650000D02*
X251460000Y-119380000D01*
X251460000Y-119380000D02*
X243840000Y-119380000D01*
X243840000Y-119380000D02*
X242570000Y-120650000D01*
X242570000Y-120650000D02*
X241300000Y-120650000D01*
X230124000Y-109474000D02*
X228600000Y-107950000D01*
X238760000Y-120650000D02*
X237490000Y-119380000D01*
X226695000Y-121285000D02*
X226695000Y-120015000D01*
X237490000Y-119380000D02*
X232410000Y-119380000D01*
X229870000Y-121920000D02*
X227330000Y-121920000D01*
X230124000Y-116586000D02*
X230124000Y-109474000D01*
X260350000Y-120650000D02*
X252730000Y-120650000D01*
X227330000Y-121920000D02*
X226695000Y-121285000D01*
X226695000Y-120015000D02*
X230124000Y-116586000D01*
X232410000Y-119380000D02*
X229870000Y-121920000D01*
X241300000Y-120650000D02*
X238760000Y-120650000D01*
X252730000Y-107950000D02*
X251460000Y-106680000D01*
X251460000Y-106680000D02*
X237490000Y-106680000D01*
X237490000Y-106680000D02*
X236220000Y-105410000D01*
X236220000Y-105410000D02*
X233680000Y-105410000D01*
X260350000Y-107950000D02*
X252730000Y-107950000D01*
X242570000Y-102870000D02*
X241300000Y-102870000D01*
X245110000Y-105410000D02*
X242570000Y-102870000D01*
X218263586Y-122555000D02*
X215900000Y-122555000D01*
X218898586Y-123190000D02*
X218263586Y-122555000D01*
X220980000Y-123190000D02*
X218898586Y-123190000D01*
X220980000Y-125730000D02*
X219075000Y-125730000D01*
X219075000Y-125730000D02*
X218440000Y-125095000D01*
X228600000Y-125730000D02*
X220980000Y-125730000D01*
X218440000Y-125095000D02*
X215900000Y-125095000D01*
D18*
X228680000Y-128190000D02*
X228600000Y-128270000D01*
X231140000Y-128190000D02*
X228680000Y-128190000D01*
D16*
X240030000Y-105410000D02*
X238760000Y-104140000D01*
X238760000Y-104140000D02*
X238760000Y-101600000D01*
X238760000Y-101600000D02*
X240030000Y-100330000D01*
X240030000Y-100330000D02*
X241300000Y-100330000D01*
D18*
X231140000Y-103465000D02*
X231140000Y-106553000D01*
D16*
X241300000Y-105410000D02*
X240030000Y-105410000D01*
D18*
X231140000Y-106553000D02*
X231648000Y-107061000D01*
X228600000Y-100330000D02*
X229489000Y-100330000D01*
D16*
X222885000Y-107315000D02*
X222250000Y-107950000D01*
X222250000Y-107950000D02*
X220980000Y-107950000D01*
D18*
X231648000Y-117602000D02*
X228600000Y-120650000D01*
D16*
X220980000Y-100330000D02*
X222250000Y-100330000D01*
D18*
X231648000Y-107061000D02*
X231648000Y-117602000D01*
D16*
X222885000Y-100965000D02*
X222885000Y-107315000D01*
D18*
X231140000Y-101981000D02*
X231140000Y-103465000D01*
D16*
X222250000Y-100330000D02*
X222885000Y-100965000D01*
D18*
X229489000Y-100330000D02*
X231140000Y-101981000D01*
D16*
X222885000Y-113030000D02*
X228600000Y-113030000D01*
X221615000Y-114300000D02*
X222885000Y-113030000D01*
X220980000Y-105410000D02*
X219710000Y-105410000D01*
X219075000Y-113665000D02*
X219710000Y-114300000D01*
X219710000Y-105410000D02*
X219075000Y-106045000D01*
X219075000Y-106045000D02*
X219075000Y-113665000D01*
X219710000Y-114300000D02*
X221615000Y-114300000D01*
X226695000Y-105410000D02*
X226060000Y-106045000D01*
X228600000Y-105410000D02*
X226695000Y-105410000D01*
X220980000Y-113030000D02*
X223520000Y-110490000D01*
X226060000Y-106045000D02*
X226060000Y-110490000D01*
X223520000Y-110490000D02*
X226060000Y-110490000D01*
X226060000Y-110490000D02*
X228600000Y-110490000D01*
G04 #@! TA.AperFunction,Conductor*
G36*
X285057121Y-97683502D02*
G01*
X285103614Y-97737158D01*
X285115000Y-97789500D01*
X285115000Y-140844000D01*
X285094998Y-140912121D01*
X285041342Y-140958614D01*
X284989000Y-140970000D01*
X212216000Y-140970000D01*
X212147879Y-140949998D01*
X212101386Y-140896342D01*
X212090000Y-140844000D01*
X212090000Y-139442314D01*
X220332046Y-139442314D01*
X220341928Y-139454803D01*
X220397041Y-139491627D01*
X220407146Y-139497114D01*
X220600267Y-139580086D01*
X220611210Y-139583641D01*
X220816209Y-139630028D01*
X220827618Y-139631530D01*
X221037645Y-139639781D01*
X221049129Y-139639179D01*
X221257145Y-139609019D01*
X221268328Y-139606334D01*
X221467362Y-139538771D01*
X221477865Y-139534095D01*
X221620404Y-139454270D01*
X221630266Y-139444194D01*
X221627311Y-139436522D01*
X220992811Y-138802021D01*
X220978868Y-138794408D01*
X220977034Y-138794539D01*
X220970420Y-138798790D01*
X220338239Y-139430972D01*
X220332046Y-139442314D01*
X212090000Y-139442314D01*
X212090000Y-138404048D01*
X219769124Y-138404048D01*
X219782871Y-138613779D01*
X219784672Y-138625149D01*
X219836409Y-138828863D01*
X219840250Y-138839710D01*
X219928247Y-139030592D01*
X219933996Y-139040549D01*
X219955112Y-139070427D01*
X219965702Y-139078816D01*
X219979001Y-139071788D01*
X220607979Y-138442811D01*
X220614356Y-138431132D01*
X221344408Y-138431132D01*
X221344539Y-138432966D01*
X221348790Y-138439580D01*
X221982611Y-139073400D01*
X221994986Y-139080157D01*
X222001566Y-139075231D01*
X222084095Y-138927865D01*
X222088771Y-138917362D01*
X222156334Y-138718328D01*
X222159019Y-138707145D01*
X222189475Y-138497088D01*
X222190105Y-138489705D01*
X222191572Y-138433704D01*
X222191450Y-138430000D01*
X227388389Y-138430000D01*
X227406796Y-138640394D01*
X227408220Y-138645707D01*
X227408220Y-138645709D01*
X227425857Y-138711529D01*
X227461458Y-138844395D01*
X227463780Y-138849376D01*
X227463781Y-138849377D01*
X227547230Y-139028333D01*
X227550714Y-139035805D01*
X227671852Y-139208809D01*
X227821191Y-139358148D01*
X227825699Y-139361305D01*
X227825702Y-139361307D01*
X227989685Y-139476129D01*
X227994194Y-139479286D01*
X227999176Y-139481609D01*
X227999181Y-139481612D01*
X228158584Y-139555942D01*
X228185605Y-139568542D01*
X228190913Y-139569964D01*
X228190915Y-139569965D01*
X228384291Y-139621780D01*
X228384293Y-139621780D01*
X228389606Y-139623204D01*
X228600000Y-139641611D01*
X228810394Y-139623204D01*
X228815707Y-139621780D01*
X228815709Y-139621780D01*
X229009085Y-139569965D01*
X229009087Y-139569964D01*
X229014395Y-139568542D01*
X229041416Y-139555942D01*
X229200819Y-139481612D01*
X229200824Y-139481609D01*
X229205806Y-139479286D01*
X229210315Y-139476129D01*
X229258608Y-139442314D01*
X233032046Y-139442314D01*
X233041928Y-139454803D01*
X233097041Y-139491627D01*
X233107146Y-139497114D01*
X233300267Y-139580086D01*
X233311210Y-139583641D01*
X233516209Y-139630028D01*
X233527618Y-139631530D01*
X233737645Y-139639781D01*
X233749129Y-139639179D01*
X233957145Y-139609019D01*
X233968328Y-139606334D01*
X234167362Y-139538771D01*
X234177865Y-139534095D01*
X234320404Y-139454270D01*
X234330266Y-139444194D01*
X234327311Y-139436522D01*
X233692811Y-138802021D01*
X233678868Y-138794408D01*
X233677034Y-138794539D01*
X233670420Y-138798790D01*
X233038239Y-139430972D01*
X233032046Y-139442314D01*
X229258608Y-139442314D01*
X229374298Y-139361307D01*
X229374301Y-139361305D01*
X229378809Y-139358148D01*
X229528148Y-139208809D01*
X229649286Y-139035805D01*
X229652771Y-139028333D01*
X229736219Y-138849377D01*
X229736220Y-138849376D01*
X229738542Y-138844395D01*
X229774144Y-138711529D01*
X229791780Y-138645709D01*
X229791780Y-138645707D01*
X229793204Y-138640394D01*
X229811611Y-138430000D01*
X229809341Y-138404048D01*
X232469124Y-138404048D01*
X232482871Y-138613779D01*
X232484672Y-138625149D01*
X232536409Y-138828863D01*
X232540250Y-138839710D01*
X232628247Y-139030592D01*
X232633996Y-139040549D01*
X232655112Y-139070427D01*
X232665702Y-139078816D01*
X232679001Y-139071788D01*
X233307979Y-138442811D01*
X233314356Y-138431132D01*
X234044408Y-138431132D01*
X234044539Y-138432966D01*
X234048790Y-138439580D01*
X234682611Y-139073400D01*
X234694986Y-139080157D01*
X234701566Y-139075231D01*
X234784095Y-138927865D01*
X234788771Y-138917362D01*
X234856334Y-138718328D01*
X234859019Y-138707145D01*
X234889475Y-138497088D01*
X234890105Y-138489705D01*
X234891572Y-138433704D01*
X234891329Y-138426305D01*
X234871908Y-138214945D01*
X234869811Y-138203630D01*
X234812758Y-138001336D01*
X234808636Y-137990597D01*
X234715671Y-137802083D01*
X234709665Y-137792281D01*
X234706510Y-137788056D01*
X234695251Y-137779606D01*
X234682834Y-137786377D01*
X234052021Y-138417189D01*
X234044408Y-138431132D01*
X233314356Y-138431132D01*
X233315592Y-138428868D01*
X233315461Y-138427034D01*
X233311210Y-138420420D01*
X232675603Y-137784814D01*
X232663228Y-137778057D01*
X232657262Y-137782523D01*
X232563256Y-137961198D01*
X232558851Y-137971832D01*
X232496522Y-138172563D01*
X232494130Y-138183817D01*
X232469425Y-138392547D01*
X232469124Y-138404048D01*
X229809341Y-138404048D01*
X229793204Y-138219606D01*
X229791780Y-138214291D01*
X229739965Y-138020915D01*
X229739964Y-138020913D01*
X229738542Y-138015605D01*
X229731888Y-138001336D01*
X229651609Y-137829176D01*
X229651607Y-137829173D01*
X229649286Y-137824195D01*
X229528148Y-137651191D01*
X229378809Y-137501852D01*
X229374301Y-137498695D01*
X229374298Y-137498693D01*
X229210315Y-137383871D01*
X229210312Y-137383869D01*
X229205806Y-137380714D01*
X229200824Y-137378391D01*
X229200819Y-137378388D01*
X229019377Y-137293781D01*
X229019376Y-137293781D01*
X229014395Y-137291458D01*
X229009087Y-137290036D01*
X229009085Y-137290035D01*
X228978004Y-137281707D01*
X228917381Y-137244755D01*
X228886360Y-137180894D01*
X228894788Y-137110400D01*
X228939991Y-137055653D01*
X228978004Y-137038293D01*
X229009085Y-137029965D01*
X229009087Y-137029964D01*
X229014395Y-137028542D01*
X229041414Y-137015943D01*
X229200819Y-136941612D01*
X229200824Y-136941609D01*
X229205806Y-136939286D01*
X229210315Y-136936129D01*
X229374298Y-136821307D01*
X229374301Y-136821305D01*
X229378809Y-136818148D01*
X229528148Y-136668809D01*
X229649286Y-136495805D01*
X229658630Y-136475768D01*
X229736219Y-136309377D01*
X229736220Y-136309376D01*
X229738542Y-136304395D01*
X229774144Y-136171529D01*
X229791780Y-136105709D01*
X229791781Y-136105706D01*
X229793204Y-136100394D01*
X229811611Y-135890000D01*
X229793204Y-135679606D01*
X229790347Y-135668944D01*
X229739965Y-135480915D01*
X229739964Y-135480913D01*
X229738542Y-135475605D01*
X229734163Y-135466214D01*
X229651609Y-135289176D01*
X229651607Y-135289173D01*
X229649286Y-135284195D01*
X229528148Y-135111191D01*
X229378809Y-134961852D01*
X229374301Y-134958695D01*
X229374298Y-134958693D01*
X229210315Y-134843871D01*
X229210312Y-134843869D01*
X229205806Y-134840714D01*
X229200824Y-134838391D01*
X229200819Y-134838388D01*
X229019377Y-134753781D01*
X229019376Y-134753781D01*
X229014395Y-134751458D01*
X229009087Y-134750036D01*
X229009085Y-134750035D01*
X228978004Y-134741707D01*
X228917381Y-134704755D01*
X228886360Y-134640894D01*
X228894788Y-134570400D01*
X228939991Y-134515653D01*
X228978004Y-134498293D01*
X229009085Y-134489965D01*
X229009087Y-134489964D01*
X229014395Y-134488542D01*
X229041414Y-134475943D01*
X229200819Y-134401612D01*
X229200824Y-134401609D01*
X229205806Y-134399286D01*
X229210315Y-134396129D01*
X229374298Y-134281307D01*
X229374301Y-134281305D01*
X229378809Y-134278148D01*
X229528148Y-134128809D01*
X229649286Y-133955805D01*
X229658630Y-133935768D01*
X229736219Y-133769377D01*
X229736220Y-133769376D01*
X229738542Y-133764395D01*
X229774144Y-133631529D01*
X229791780Y-133565709D01*
X229791781Y-133565706D01*
X229793204Y-133560394D01*
X229811611Y-133350000D01*
X229793204Y-133139606D01*
X229790347Y-133128944D01*
X229739965Y-132940915D01*
X229739964Y-132940913D01*
X229738542Y-132935605D01*
X229734163Y-132926214D01*
X229651609Y-132749176D01*
X229651607Y-132749173D01*
X229649286Y-132744195D01*
X229528148Y-132571191D01*
X229378809Y-132421852D01*
X229374301Y-132418695D01*
X229374298Y-132418693D01*
X229210315Y-132303871D01*
X229210312Y-132303869D01*
X229205806Y-132300714D01*
X229200824Y-132298391D01*
X229200819Y-132298388D01*
X229019377Y-132213781D01*
X229019376Y-132213781D01*
X229014395Y-132211458D01*
X229009087Y-132210036D01*
X229009085Y-132210035D01*
X228978004Y-132201707D01*
X228917381Y-132164755D01*
X228886360Y-132100894D01*
X228894788Y-132030400D01*
X228939991Y-131975653D01*
X228978004Y-131958293D01*
X229009085Y-131949965D01*
X229009087Y-131949964D01*
X229014395Y-131948542D01*
X229041414Y-131935943D01*
X229200819Y-131861612D01*
X229200824Y-131861609D01*
X229205806Y-131859286D01*
X229210315Y-131856129D01*
X229374298Y-131741307D01*
X229374301Y-131741305D01*
X229378809Y-131738148D01*
X229528148Y-131588809D01*
X229649286Y-131415805D01*
X229658630Y-131395768D01*
X229736219Y-131229377D01*
X229736220Y-131229376D01*
X229738542Y-131224395D01*
X229774144Y-131091529D01*
X229791780Y-131025709D01*
X229791781Y-131025706D01*
X229793204Y-131020394D01*
X229811611Y-130810000D01*
X229793204Y-130599606D01*
X229790347Y-130588944D01*
X229739965Y-130400915D01*
X229739964Y-130400913D01*
X229738542Y-130395605D01*
X229734163Y-130386214D01*
X229651609Y-130209176D01*
X229651607Y-130209173D01*
X229649286Y-130204195D01*
X229528148Y-130031191D01*
X229378809Y-129881852D01*
X229374301Y-129878695D01*
X229374298Y-129878693D01*
X229210315Y-129763871D01*
X229210312Y-129763869D01*
X229205806Y-129760714D01*
X229200824Y-129758391D01*
X229200819Y-129758388D01*
X229019377Y-129673781D01*
X229019376Y-129673781D01*
X229014395Y-129671458D01*
X229009090Y-129670036D01*
X229009083Y-129670034D01*
X228982277Y-129662852D01*
X228974520Y-129660774D01*
X228913898Y-129623823D01*
X228882876Y-129559963D01*
X228891304Y-129489468D01*
X228936506Y-129434721D01*
X228966630Y-129419754D01*
X229087362Y-129378771D01*
X229097865Y-129374095D01*
X229240404Y-129294270D01*
X229250266Y-129284194D01*
X229247311Y-129276522D01*
X229246851Y-129276062D01*
X230418493Y-129276062D01*
X230427789Y-129288077D01*
X230478994Y-129323931D01*
X230488489Y-129329414D01*
X230685947Y-129421490D01*
X230696239Y-129425236D01*
X230906688Y-129481625D01*
X230917481Y-129483528D01*
X231134525Y-129502517D01*
X231145475Y-129502517D01*
X231362519Y-129483528D01*
X231373312Y-129481625D01*
X231583761Y-129425236D01*
X231594053Y-129421490D01*
X231791511Y-129329414D01*
X231801006Y-129323931D01*
X231853048Y-129287491D01*
X231861424Y-129277012D01*
X231854356Y-129263566D01*
X231152812Y-128562022D01*
X231138868Y-128554408D01*
X231137035Y-128554539D01*
X231130420Y-128558790D01*
X230424923Y-129264287D01*
X230418493Y-129276062D01*
X229246851Y-129276062D01*
X228612811Y-128642021D01*
X228598868Y-128634408D01*
X228597034Y-128634539D01*
X228590420Y-128638790D01*
X227958239Y-129270972D01*
X227952046Y-129282314D01*
X227961928Y-129294803D01*
X228017041Y-129331627D01*
X228027146Y-129337114D01*
X228220273Y-129420088D01*
X228224039Y-129421312D01*
X228282646Y-129461383D01*
X228310285Y-129526779D01*
X228298181Y-129596736D01*
X228250177Y-129649044D01*
X228217719Y-129662852D01*
X228190923Y-129670032D01*
X228190912Y-129670036D01*
X228185605Y-129671458D01*
X228180624Y-129673780D01*
X228180623Y-129673781D01*
X227999176Y-129758391D01*
X227999173Y-129758393D01*
X227994195Y-129760714D01*
X227821191Y-129881852D01*
X227671852Y-130031191D01*
X227550714Y-130204195D01*
X227548393Y-130209173D01*
X227548391Y-130209176D01*
X227465837Y-130386214D01*
X227461458Y-130395605D01*
X227460036Y-130400913D01*
X227460035Y-130400915D01*
X227409653Y-130588944D01*
X227406796Y-130599606D01*
X227388389Y-130810000D01*
X227406796Y-131020394D01*
X227408219Y-131025706D01*
X227408220Y-131025709D01*
X227425857Y-131091529D01*
X227461458Y-131224395D01*
X227463780Y-131229376D01*
X227463781Y-131229377D01*
X227541371Y-131395768D01*
X227550714Y-131415805D01*
X227671852Y-131588809D01*
X227821191Y-131738148D01*
X227825699Y-131741305D01*
X227825702Y-131741307D01*
X227989685Y-131856129D01*
X227994194Y-131859286D01*
X227999176Y-131861609D01*
X227999181Y-131861612D01*
X228158586Y-131935943D01*
X228185605Y-131948542D01*
X228190913Y-131949964D01*
X228190915Y-131949965D01*
X228221996Y-131958293D01*
X228282619Y-131995245D01*
X228313640Y-132059106D01*
X228305212Y-132129600D01*
X228260009Y-132184347D01*
X228221996Y-132201707D01*
X228190915Y-132210035D01*
X228190913Y-132210036D01*
X228185605Y-132211458D01*
X228180624Y-132213780D01*
X228180623Y-132213781D01*
X227999176Y-132298391D01*
X227999173Y-132298393D01*
X227994195Y-132300714D01*
X227821191Y-132421852D01*
X227671852Y-132571191D01*
X227550714Y-132744195D01*
X227548393Y-132749173D01*
X227548391Y-132749176D01*
X227465837Y-132926214D01*
X227461458Y-132935605D01*
X227460036Y-132940913D01*
X227460035Y-132940915D01*
X227409653Y-133128944D01*
X227406796Y-133139606D01*
X227388389Y-133350000D01*
X227406796Y-133560394D01*
X227408219Y-133565706D01*
X227408220Y-133565709D01*
X227425857Y-133631529D01*
X227461458Y-133764395D01*
X227463780Y-133769376D01*
X227463781Y-133769377D01*
X227541371Y-133935768D01*
X227550714Y-133955805D01*
X227671852Y-134128809D01*
X227821191Y-134278148D01*
X227825699Y-134281305D01*
X227825702Y-134281307D01*
X227989685Y-134396129D01*
X227994194Y-134399286D01*
X227999176Y-134401609D01*
X227999181Y-134401612D01*
X228158586Y-134475943D01*
X228185605Y-134488542D01*
X228190913Y-134489964D01*
X228190915Y-134489965D01*
X228221996Y-134498293D01*
X228282619Y-134535245D01*
X228313640Y-134599106D01*
X228305212Y-134669600D01*
X228260009Y-134724347D01*
X228221996Y-134741707D01*
X228190915Y-134750035D01*
X228190913Y-134750036D01*
X228185605Y-134751458D01*
X228180624Y-134753780D01*
X228180623Y-134753781D01*
X227999176Y-134838391D01*
X227999173Y-134838393D01*
X227994195Y-134840714D01*
X227821191Y-134961852D01*
X227671852Y-135111191D01*
X227550714Y-135284195D01*
X227548393Y-135289173D01*
X227548391Y-135289176D01*
X227465837Y-135466214D01*
X227461458Y-135475605D01*
X227460036Y-135480913D01*
X227460035Y-135480915D01*
X227409653Y-135668944D01*
X227406796Y-135679606D01*
X227388389Y-135890000D01*
X227406796Y-136100394D01*
X227408219Y-136105706D01*
X227408220Y-136105709D01*
X227425857Y-136171529D01*
X227461458Y-136304395D01*
X227463780Y-136309376D01*
X227463781Y-136309377D01*
X227541371Y-136475768D01*
X227550714Y-136495805D01*
X227671852Y-136668809D01*
X227821191Y-136818148D01*
X227825699Y-136821305D01*
X227825702Y-136821307D01*
X227989685Y-136936129D01*
X227994194Y-136939286D01*
X227999176Y-136941609D01*
X227999181Y-136941612D01*
X228158586Y-137015943D01*
X228185605Y-137028542D01*
X228190913Y-137029964D01*
X228190915Y-137029965D01*
X228221996Y-137038293D01*
X228282619Y-137075245D01*
X228313640Y-137139106D01*
X228305212Y-137209600D01*
X228260009Y-137264347D01*
X228221996Y-137281707D01*
X228190915Y-137290035D01*
X228190913Y-137290036D01*
X228185605Y-137291458D01*
X228180624Y-137293780D01*
X228180623Y-137293781D01*
X227999176Y-137378391D01*
X227999173Y-137378393D01*
X227994195Y-137380714D01*
X227821191Y-137501852D01*
X227671852Y-137651191D01*
X227550714Y-137824195D01*
X227548393Y-137829173D01*
X227548391Y-137829176D01*
X227468112Y-138001336D01*
X227461458Y-138015605D01*
X227460036Y-138020913D01*
X227460035Y-138020915D01*
X227408220Y-138214291D01*
X227406796Y-138219606D01*
X227388389Y-138430000D01*
X222191450Y-138430000D01*
X222191329Y-138426305D01*
X222171908Y-138214945D01*
X222169811Y-138203630D01*
X222112758Y-138001336D01*
X222108636Y-137990597D01*
X222015671Y-137802083D01*
X222009665Y-137792281D01*
X222006510Y-137788056D01*
X221995251Y-137779606D01*
X221982834Y-137786377D01*
X221352021Y-138417189D01*
X221344408Y-138431132D01*
X220614356Y-138431132D01*
X220615592Y-138428868D01*
X220615461Y-138427034D01*
X220611210Y-138420420D01*
X219975603Y-137784814D01*
X219963228Y-137778057D01*
X219957262Y-137782523D01*
X219863256Y-137961198D01*
X219858851Y-137971832D01*
X219796522Y-138172563D01*
X219794130Y-138183817D01*
X219769425Y-138392547D01*
X219769124Y-138404048D01*
X212090000Y-138404048D01*
X212090000Y-125703208D01*
X213608776Y-125703208D01*
X213609369Y-125710500D01*
X213609369Y-125710503D01*
X213613085Y-125756183D01*
X213613500Y-125766398D01*
X213613500Y-125774525D01*
X213616811Y-125802924D01*
X213617238Y-125807244D01*
X213623191Y-125880426D01*
X213625447Y-125887388D01*
X213626643Y-125893376D01*
X213628051Y-125899333D01*
X213628899Y-125906607D01*
X213631397Y-125913489D01*
X213631398Y-125913493D01*
X213653945Y-125975607D01*
X213655355Y-125979711D01*
X213677987Y-126049575D01*
X213681787Y-126055838D01*
X213684325Y-126061380D01*
X213687067Y-126066856D01*
X213689566Y-126073741D01*
X213693581Y-126079865D01*
X213729815Y-126135132D01*
X213732130Y-126138800D01*
X213770227Y-126201581D01*
X213773941Y-126205786D01*
X213773943Y-126205789D01*
X213777667Y-126210005D01*
X213777638Y-126210031D01*
X213780238Y-126212962D01*
X213783042Y-126216316D01*
X213787054Y-126222435D01*
X213802916Y-126237461D01*
X213843586Y-126275988D01*
X213846028Y-126278366D01*
X214805190Y-127237528D01*
X214817577Y-127251941D01*
X214830546Y-127269564D01*
X214836129Y-127274307D01*
X214871055Y-127303979D01*
X214878571Y-127310909D01*
X214884315Y-127316653D01*
X214887189Y-127318927D01*
X214887196Y-127318933D01*
X214906711Y-127334372D01*
X214910115Y-127337163D01*
X214960472Y-127379945D01*
X214960476Y-127379948D01*
X214966051Y-127384684D01*
X214972568Y-127388012D01*
X214977632Y-127391389D01*
X214982856Y-127394616D01*
X214988600Y-127399160D01*
X214995231Y-127402259D01*
X215055082Y-127430232D01*
X215059033Y-127432163D01*
X215124404Y-127465543D01*
X215131519Y-127467284D01*
X215137265Y-127469421D01*
X215143048Y-127471345D01*
X215149679Y-127474444D01*
X215221557Y-127489394D01*
X215225829Y-127490361D01*
X215297112Y-127507804D01*
X215302711Y-127508151D01*
X215302715Y-127508152D01*
X215308330Y-127508500D01*
X215308328Y-127508539D01*
X215312229Y-127508772D01*
X215316588Y-127509161D01*
X215323756Y-127510652D01*
X215331073Y-127510454D01*
X215401577Y-127508546D01*
X215404986Y-127508500D01*
X217817972Y-127508500D01*
X217886093Y-127528502D01*
X217907067Y-127545405D01*
X218529595Y-128167933D01*
X218563621Y-128230245D01*
X218566500Y-128257028D01*
X218566500Y-135060624D01*
X218565067Y-135079574D01*
X218562876Y-135093973D01*
X218562876Y-135093979D01*
X218561776Y-135101208D01*
X218562369Y-135108500D01*
X218562369Y-135108503D01*
X218566085Y-135154183D01*
X218566500Y-135164398D01*
X218566500Y-135172525D01*
X218569811Y-135200924D01*
X218570238Y-135205244D01*
X218576191Y-135278426D01*
X218578447Y-135285388D01*
X218579643Y-135291376D01*
X218581051Y-135297333D01*
X218581899Y-135304607D01*
X218584397Y-135311489D01*
X218584398Y-135311493D01*
X218606945Y-135373607D01*
X218608355Y-135377711D01*
X218630987Y-135447575D01*
X218634787Y-135453838D01*
X218637325Y-135459380D01*
X218640067Y-135464856D01*
X218642566Y-135471741D01*
X218646581Y-135477865D01*
X218682815Y-135533132D01*
X218685130Y-135536800D01*
X218723227Y-135599581D01*
X218726941Y-135603786D01*
X218726943Y-135603789D01*
X218730667Y-135608005D01*
X218730638Y-135608031D01*
X218733238Y-135610962D01*
X218736042Y-135614316D01*
X218740054Y-135620435D01*
X218745366Y-135625467D01*
X218796586Y-135673988D01*
X218799028Y-135676366D01*
X219504190Y-136381528D01*
X219516577Y-136395941D01*
X219529546Y-136413564D01*
X219535129Y-136418307D01*
X219570055Y-136447979D01*
X219577571Y-136454909D01*
X219583315Y-136460653D01*
X219586189Y-136462927D01*
X219586196Y-136462933D01*
X219605711Y-136478372D01*
X219609115Y-136481163D01*
X219659472Y-136523945D01*
X219659476Y-136523948D01*
X219665051Y-136528684D01*
X219671568Y-136532012D01*
X219676632Y-136535389D01*
X219681856Y-136538616D01*
X219687600Y-136543160D01*
X219754104Y-136574242D01*
X219758001Y-136576147D01*
X219823404Y-136609543D01*
X219830518Y-136611284D01*
X219836252Y-136613416D01*
X219842048Y-136615344D01*
X219848680Y-136618444D01*
X219912377Y-136631693D01*
X219920555Y-136633394D01*
X219924835Y-136634363D01*
X219996112Y-136651804D01*
X220000619Y-136652084D01*
X220064643Y-136681955D01*
X220070452Y-136687409D01*
X220201191Y-136818148D01*
X220205699Y-136821305D01*
X220205702Y-136821307D01*
X220369685Y-136936129D01*
X220374194Y-136939286D01*
X220379176Y-136941609D01*
X220379181Y-136941612D01*
X220538586Y-137015943D01*
X220565605Y-137028542D01*
X220570912Y-137029964D01*
X220570923Y-137029968D01*
X220603735Y-137038760D01*
X220664358Y-137075712D01*
X220695379Y-137139573D01*
X220686949Y-137210067D01*
X220641746Y-137264813D01*
X220614733Y-137278678D01*
X220463782Y-137334366D01*
X220453400Y-137339318D01*
X220340519Y-137406475D01*
X220330921Y-137416808D01*
X220334407Y-137425196D01*
X220967189Y-138057979D01*
X220981132Y-138065592D01*
X220982966Y-138065461D01*
X220989580Y-138061210D01*
X221621700Y-137429089D01*
X221628457Y-137416714D01*
X221622427Y-137408658D01*
X221534972Y-137353478D01*
X221524721Y-137348254D01*
X221345283Y-137276666D01*
X221289423Y-137232845D01*
X221266123Y-137165781D01*
X221282779Y-137096766D01*
X221334103Y-137047711D01*
X221359362Y-137037929D01*
X221389085Y-137029965D01*
X221389087Y-137029964D01*
X221394395Y-137028542D01*
X221421414Y-137015943D01*
X221580819Y-136941612D01*
X221580824Y-136941609D01*
X221585806Y-136939286D01*
X221590315Y-136936129D01*
X221754298Y-136821307D01*
X221754301Y-136821305D01*
X221758809Y-136818148D01*
X221908148Y-136668809D01*
X222029286Y-136495805D01*
X222038630Y-136475768D01*
X222116219Y-136309377D01*
X222116220Y-136309376D01*
X222118542Y-136304395D01*
X222154144Y-136171529D01*
X222171780Y-136105709D01*
X222171781Y-136105706D01*
X222173204Y-136100394D01*
X222191611Y-135890000D01*
X222173204Y-135679606D01*
X222170347Y-135668944D01*
X222119965Y-135480915D01*
X222119964Y-135480913D01*
X222118542Y-135475605D01*
X222114163Y-135466214D01*
X222031609Y-135289176D01*
X222031607Y-135289173D01*
X222029286Y-135284195D01*
X221908148Y-135111191D01*
X221758809Y-134961852D01*
X221754301Y-134958695D01*
X221754298Y-134958693D01*
X221590315Y-134843871D01*
X221590312Y-134843869D01*
X221585806Y-134840714D01*
X221580824Y-134838391D01*
X221580819Y-134838388D01*
X221399377Y-134753781D01*
X221399376Y-134753781D01*
X221394395Y-134751458D01*
X221389087Y-134750036D01*
X221389085Y-134750035D01*
X221358004Y-134741707D01*
X221297381Y-134704755D01*
X221266360Y-134640894D01*
X221274788Y-134570400D01*
X221319991Y-134515653D01*
X221358004Y-134498293D01*
X221389085Y-134489965D01*
X221389087Y-134489964D01*
X221394395Y-134488542D01*
X221421414Y-134475943D01*
X221580819Y-134401612D01*
X221580824Y-134401609D01*
X221585806Y-134399286D01*
X221590315Y-134396129D01*
X221754298Y-134281307D01*
X221754301Y-134281305D01*
X221758809Y-134278148D01*
X221908148Y-134128809D01*
X222029286Y-133955805D01*
X222038630Y-133935768D01*
X222116219Y-133769377D01*
X222116220Y-133769376D01*
X222118542Y-133764395D01*
X222154144Y-133631529D01*
X222171780Y-133565709D01*
X222171781Y-133565706D01*
X222173204Y-133560394D01*
X222191611Y-133350000D01*
X222173204Y-133139606D01*
X222170347Y-133128944D01*
X222119965Y-132940915D01*
X222119964Y-132940913D01*
X222118542Y-132935605D01*
X222114163Y-132926214D01*
X222031609Y-132749176D01*
X222031607Y-132749173D01*
X222029286Y-132744195D01*
X221908148Y-132571191D01*
X221758809Y-132421852D01*
X221754301Y-132418695D01*
X221754298Y-132418693D01*
X221590315Y-132303871D01*
X221590312Y-132303869D01*
X221585806Y-132300714D01*
X221580824Y-132298391D01*
X221580819Y-132298388D01*
X221399377Y-132213781D01*
X221399376Y-132213781D01*
X221394395Y-132211458D01*
X221389087Y-132210036D01*
X221389085Y-132210035D01*
X221358004Y-132201707D01*
X221297381Y-132164755D01*
X221266360Y-132100894D01*
X221274788Y-132030400D01*
X221319991Y-131975653D01*
X221358004Y-131958293D01*
X221389085Y-131949965D01*
X221389087Y-131949964D01*
X221394395Y-131948542D01*
X221421414Y-131935943D01*
X221580819Y-131861612D01*
X221580824Y-131861609D01*
X221585806Y-131859286D01*
X221590315Y-131856129D01*
X221754298Y-131741307D01*
X221754301Y-131741305D01*
X221758809Y-131738148D01*
X221908148Y-131588809D01*
X222029286Y-131415805D01*
X222038630Y-131395768D01*
X222116219Y-131229377D01*
X222116220Y-131229376D01*
X222118542Y-131224395D01*
X222154144Y-131091529D01*
X222171780Y-131025709D01*
X222171781Y-131025706D01*
X222173204Y-131020394D01*
X222191611Y-130810000D01*
X222173204Y-130599606D01*
X222170347Y-130588944D01*
X222119965Y-130400915D01*
X222119964Y-130400913D01*
X222118542Y-130395605D01*
X222114163Y-130386214D01*
X222031609Y-130209176D01*
X222031607Y-130209173D01*
X222029286Y-130204195D01*
X221908148Y-130031191D01*
X221758809Y-129881852D01*
X221754301Y-129878695D01*
X221754298Y-129878693D01*
X221590315Y-129763871D01*
X221590312Y-129763869D01*
X221585806Y-129760714D01*
X221580824Y-129758391D01*
X221580819Y-129758388D01*
X221399377Y-129673781D01*
X221399376Y-129673781D01*
X221394395Y-129671458D01*
X221389087Y-129670036D01*
X221389085Y-129670035D01*
X221358004Y-129661707D01*
X221297381Y-129624755D01*
X221266360Y-129560894D01*
X221274788Y-129490400D01*
X221319991Y-129435653D01*
X221358004Y-129418293D01*
X221389085Y-129409965D01*
X221389087Y-129409964D01*
X221394395Y-129408542D01*
X221421414Y-129395943D01*
X221580819Y-129321612D01*
X221580824Y-129321609D01*
X221585806Y-129319286D01*
X221590315Y-129316129D01*
X221754298Y-129201307D01*
X221754301Y-129201305D01*
X221758809Y-129198148D01*
X221908148Y-129048809D01*
X222029286Y-128875805D01*
X222038630Y-128855768D01*
X222116219Y-128689377D01*
X222116220Y-128689376D01*
X222118542Y-128684395D01*
X222121440Y-128673582D01*
X222171780Y-128485709D01*
X222171781Y-128485706D01*
X222173204Y-128480394D01*
X222191611Y-128270000D01*
X222189341Y-128244048D01*
X227389124Y-128244048D01*
X227402871Y-128453779D01*
X227404672Y-128465149D01*
X227456409Y-128668863D01*
X227460250Y-128679710D01*
X227548247Y-128870592D01*
X227553996Y-128880549D01*
X227575112Y-128910427D01*
X227585702Y-128918816D01*
X227599001Y-128911788D01*
X228227979Y-128282811D01*
X228234356Y-128271132D01*
X228964408Y-128271132D01*
X228964539Y-128272966D01*
X228968790Y-128279580D01*
X229602611Y-128913400D01*
X229614986Y-128920157D01*
X229621566Y-128915231D01*
X229704095Y-128767865D01*
X229708770Y-128757365D01*
X229714300Y-128741074D01*
X229755138Y-128682998D01*
X229820891Y-128656220D01*
X229890683Y-128669242D01*
X229942356Y-128717929D01*
X229947808Y-128728327D01*
X230000584Y-128841507D01*
X230006069Y-128851006D01*
X230042509Y-128903048D01*
X230052988Y-128911424D01*
X230066434Y-128904356D01*
X230767978Y-128202812D01*
X230775592Y-128188868D01*
X230775461Y-128187035D01*
X230771210Y-128180420D01*
X230065713Y-127474923D01*
X230053938Y-127468493D01*
X230041923Y-127477789D01*
X230006069Y-127528994D01*
X230000586Y-127538489D01*
X229909420Y-127733995D01*
X229862502Y-127787280D01*
X229794225Y-127806741D01*
X229726265Y-127786199D01*
X229682219Y-127736473D01*
X229635671Y-127642083D01*
X229629665Y-127632281D01*
X229626510Y-127628056D01*
X229615251Y-127619606D01*
X229602834Y-127626377D01*
X228972021Y-128257189D01*
X228964408Y-128271132D01*
X228234356Y-128271132D01*
X228235592Y-128268868D01*
X228235461Y-128267034D01*
X228231210Y-128260420D01*
X227595603Y-127624814D01*
X227583228Y-127618057D01*
X227577262Y-127622523D01*
X227483256Y-127801198D01*
X227478851Y-127811832D01*
X227416522Y-128012563D01*
X227414130Y-128023817D01*
X227389425Y-128232547D01*
X227389124Y-128244048D01*
X222189341Y-128244048D01*
X222173204Y-128059606D01*
X222170347Y-128048944D01*
X222119965Y-127860915D01*
X222119964Y-127860913D01*
X222118542Y-127855605D01*
X222114163Y-127846214D01*
X222031609Y-127669176D01*
X222031607Y-127669173D01*
X222029286Y-127664195D01*
X221908148Y-127491191D01*
X221758809Y-127341852D01*
X221754301Y-127338695D01*
X221754298Y-127338693D01*
X221590315Y-127223871D01*
X221590312Y-127223869D01*
X221585806Y-127220714D01*
X221580824Y-127218391D01*
X221580819Y-127218388D01*
X221399377Y-127133781D01*
X221399376Y-127133781D01*
X221394395Y-127131458D01*
X221389087Y-127130036D01*
X221389085Y-127130035D01*
X221358004Y-127121707D01*
X221297381Y-127084755D01*
X221266360Y-127020894D01*
X221274788Y-126950400D01*
X221319991Y-126895653D01*
X221358004Y-126878293D01*
X221389085Y-126869965D01*
X221389087Y-126869964D01*
X221394395Y-126868542D01*
X221421414Y-126855943D01*
X221580819Y-126781612D01*
X221580824Y-126781609D01*
X221585806Y-126779286D01*
X221590315Y-126776129D01*
X221754298Y-126661307D01*
X221754301Y-126661305D01*
X221758809Y-126658148D01*
X221887552Y-126529405D01*
X221949864Y-126495379D01*
X221976647Y-126492500D01*
X227603353Y-126492500D01*
X227671474Y-126512502D01*
X227692448Y-126529405D01*
X227821191Y-126658148D01*
X227825699Y-126661305D01*
X227825702Y-126661307D01*
X227989685Y-126776129D01*
X227994194Y-126779286D01*
X227999176Y-126781609D01*
X227999181Y-126781612D01*
X228158586Y-126855943D01*
X228185605Y-126868542D01*
X228190912Y-126869964D01*
X228190923Y-126869968D01*
X228223735Y-126878760D01*
X228284358Y-126915712D01*
X228315379Y-126979573D01*
X228306949Y-127050067D01*
X228261746Y-127104813D01*
X228234733Y-127118678D01*
X228083782Y-127174366D01*
X228073400Y-127179318D01*
X227960519Y-127246475D01*
X227950921Y-127256808D01*
X227954407Y-127265196D01*
X228587189Y-127897979D01*
X228601132Y-127905592D01*
X228602966Y-127905461D01*
X228609580Y-127901210D01*
X229241700Y-127269089D01*
X229248457Y-127256714D01*
X229242427Y-127248658D01*
X229154972Y-127193478D01*
X229144721Y-127188254D01*
X228965283Y-127116666D01*
X228947847Y-127102988D01*
X230418576Y-127102988D01*
X230425644Y-127116434D01*
X231127188Y-127817978D01*
X231141132Y-127825592D01*
X231142965Y-127825461D01*
X231149580Y-127821210D01*
X231855077Y-127115713D01*
X231861507Y-127103938D01*
X231852211Y-127091923D01*
X231801006Y-127056069D01*
X231791511Y-127050586D01*
X231594053Y-126958510D01*
X231583761Y-126954764D01*
X231373312Y-126898375D01*
X231362519Y-126896472D01*
X231145475Y-126877483D01*
X231134525Y-126877483D01*
X230917481Y-126896472D01*
X230906688Y-126898375D01*
X230696239Y-126954764D01*
X230685947Y-126958510D01*
X230488489Y-127050586D01*
X230478994Y-127056069D01*
X230426952Y-127092509D01*
X230418576Y-127102988D01*
X228947847Y-127102988D01*
X228909423Y-127072845D01*
X228886123Y-127005781D01*
X228902779Y-126936766D01*
X228954103Y-126887711D01*
X228979362Y-126877929D01*
X229009085Y-126869965D01*
X229009087Y-126869964D01*
X229014395Y-126868542D01*
X229041414Y-126855943D01*
X229200819Y-126781612D01*
X229200824Y-126781609D01*
X229205806Y-126779286D01*
X229210315Y-126776129D01*
X229374298Y-126661307D01*
X229374301Y-126661305D01*
X229378809Y-126658148D01*
X229528148Y-126508809D01*
X229649286Y-126335805D01*
X229658630Y-126315768D01*
X229736219Y-126149377D01*
X229736220Y-126149376D01*
X229738542Y-126144395D01*
X229760865Y-126061087D01*
X229791780Y-125945709D01*
X229791781Y-125945706D01*
X229793204Y-125940394D01*
X229811611Y-125730000D01*
X229793204Y-125519606D01*
X229791780Y-125514291D01*
X229739965Y-125320915D01*
X229739964Y-125320913D01*
X229738542Y-125315605D01*
X229734163Y-125306214D01*
X229651609Y-125129176D01*
X229651607Y-125129173D01*
X229649286Y-125124195D01*
X229528148Y-124951191D01*
X229378809Y-124801852D01*
X229374301Y-124798695D01*
X229374298Y-124798693D01*
X229210315Y-124683871D01*
X229210312Y-124683869D01*
X229205806Y-124680714D01*
X229200824Y-124678391D01*
X229200819Y-124678388D01*
X229019377Y-124593781D01*
X229019376Y-124593781D01*
X229014395Y-124591458D01*
X229009087Y-124590036D01*
X229009085Y-124590035D01*
X228978004Y-124581707D01*
X228917381Y-124544755D01*
X228886360Y-124480894D01*
X228894788Y-124410400D01*
X228939991Y-124355653D01*
X228978004Y-124338293D01*
X229009085Y-124329965D01*
X229009087Y-124329964D01*
X229014395Y-124328542D01*
X229041414Y-124315943D01*
X229200819Y-124241612D01*
X229200824Y-124241609D01*
X229205806Y-124239286D01*
X229210315Y-124236129D01*
X229374298Y-124121307D01*
X229374301Y-124121305D01*
X229378809Y-124118148D01*
X229528148Y-123968809D01*
X229649286Y-123795805D01*
X229662900Y-123766611D01*
X229699809Y-123687458D01*
X229746726Y-123634173D01*
X229815004Y-123614712D01*
X229882963Y-123635254D01*
X229928199Y-123687458D01*
X230002477Y-123846749D01*
X230052678Y-123918443D01*
X230118654Y-124012666D01*
X230133802Y-124034300D01*
X230295700Y-124196198D01*
X230300208Y-124199355D01*
X230300211Y-124199357D01*
X230352727Y-124236129D01*
X230483251Y-124327523D01*
X230488233Y-124329846D01*
X230488238Y-124329849D01*
X230681171Y-124419814D01*
X230690757Y-124424284D01*
X230696065Y-124425706D01*
X230696067Y-124425707D01*
X230906598Y-124482119D01*
X230906600Y-124482119D01*
X230911913Y-124483543D01*
X231140000Y-124503498D01*
X231368087Y-124483543D01*
X231373400Y-124482119D01*
X231373402Y-124482119D01*
X231583933Y-124425707D01*
X231583935Y-124425706D01*
X231589243Y-124424284D01*
X231598829Y-124419814D01*
X231791762Y-124329849D01*
X231791767Y-124329846D01*
X231796749Y-124327523D01*
X231927273Y-124236129D01*
X231979789Y-124199357D01*
X231979792Y-124199355D01*
X231984300Y-124196198D01*
X232146198Y-124034300D01*
X232161347Y-124012666D01*
X232227322Y-123918443D01*
X232277523Y-123846749D01*
X232351801Y-123687458D01*
X232398718Y-123634173D01*
X232466995Y-123614712D01*
X232534955Y-123635254D01*
X232580191Y-123687458D01*
X232617101Y-123766611D01*
X232630714Y-123795805D01*
X232751852Y-123968809D01*
X232901191Y-124118148D01*
X232905699Y-124121305D01*
X232905702Y-124121307D01*
X233069685Y-124236129D01*
X233074194Y-124239286D01*
X233079176Y-124241609D01*
X233079181Y-124241612D01*
X233238586Y-124315943D01*
X233265605Y-124328542D01*
X233270913Y-124329964D01*
X233270915Y-124329965D01*
X233301996Y-124338293D01*
X233362619Y-124375245D01*
X233393640Y-124439106D01*
X233385212Y-124509600D01*
X233340009Y-124564347D01*
X233301996Y-124581707D01*
X233270915Y-124590035D01*
X233270913Y-124590036D01*
X233265605Y-124591458D01*
X233260624Y-124593780D01*
X233260623Y-124593781D01*
X233079176Y-124678391D01*
X233079173Y-124678393D01*
X233074195Y-124680714D01*
X232901191Y-124801852D01*
X232751852Y-124951191D01*
X232630714Y-125124195D01*
X232628393Y-125129173D01*
X232628391Y-125129176D01*
X232545837Y-125306214D01*
X232541458Y-125315605D01*
X232540036Y-125320913D01*
X232540035Y-125320915D01*
X232488220Y-125514291D01*
X232486796Y-125519606D01*
X232468389Y-125730000D01*
X232486796Y-125940394D01*
X232488219Y-125945706D01*
X232488220Y-125945709D01*
X232519136Y-126061087D01*
X232541458Y-126144395D01*
X232543780Y-126149376D01*
X232543781Y-126149377D01*
X232621371Y-126315768D01*
X232630714Y-126335805D01*
X232751852Y-126508809D01*
X232901191Y-126658148D01*
X232905699Y-126661305D01*
X232905702Y-126661307D01*
X233069685Y-126776129D01*
X233074194Y-126779286D01*
X233079176Y-126781609D01*
X233079181Y-126781612D01*
X233238586Y-126855943D01*
X233265605Y-126868542D01*
X233270913Y-126869964D01*
X233270915Y-126869965D01*
X233301996Y-126878293D01*
X233362619Y-126915245D01*
X233393640Y-126979106D01*
X233385212Y-127049600D01*
X233340009Y-127104347D01*
X233301996Y-127121707D01*
X233270915Y-127130035D01*
X233270913Y-127130036D01*
X233265605Y-127131458D01*
X233260624Y-127133780D01*
X233260623Y-127133781D01*
X233079176Y-127218391D01*
X233079173Y-127218393D01*
X233074195Y-127220714D01*
X232901191Y-127341852D01*
X232751852Y-127491191D01*
X232630714Y-127664195D01*
X232628391Y-127669176D01*
X232628389Y-127669180D01*
X232598568Y-127733132D01*
X232551651Y-127786418D01*
X232483374Y-127805879D01*
X232415414Y-127785337D01*
X232370178Y-127733133D01*
X232279414Y-127538489D01*
X232273931Y-127528994D01*
X232237491Y-127476952D01*
X232227012Y-127468576D01*
X232213566Y-127475644D01*
X231512022Y-128177188D01*
X231504408Y-128191132D01*
X231504539Y-128192965D01*
X231508790Y-128199580D01*
X232214287Y-128905077D01*
X232226062Y-128911507D01*
X232238077Y-128902211D01*
X232273931Y-128851006D01*
X232279414Y-128841511D01*
X232332873Y-128726867D01*
X232379790Y-128673582D01*
X232448068Y-128654121D01*
X232516028Y-128674663D01*
X232561263Y-128726867D01*
X232621371Y-128855768D01*
X232630714Y-128875805D01*
X232751852Y-129048809D01*
X232901191Y-129198148D01*
X232905699Y-129201305D01*
X232905702Y-129201307D01*
X233069685Y-129316129D01*
X233074194Y-129319286D01*
X233079176Y-129321609D01*
X233079181Y-129321612D01*
X233238586Y-129395943D01*
X233265605Y-129408542D01*
X233270913Y-129409964D01*
X233270915Y-129409965D01*
X233301996Y-129418293D01*
X233362619Y-129455245D01*
X233393640Y-129519106D01*
X233385212Y-129589600D01*
X233340009Y-129644347D01*
X233301996Y-129661707D01*
X233270915Y-129670035D01*
X233270913Y-129670036D01*
X233265605Y-129671458D01*
X233260624Y-129673780D01*
X233260623Y-129673781D01*
X233079176Y-129758391D01*
X233079173Y-129758393D01*
X233074195Y-129760714D01*
X232901191Y-129881852D01*
X232751852Y-130031191D01*
X232630714Y-130204195D01*
X232628393Y-130209173D01*
X232628391Y-130209176D01*
X232545837Y-130386214D01*
X232541458Y-130395605D01*
X232540036Y-130400913D01*
X232540035Y-130400915D01*
X232489653Y-130588944D01*
X232486796Y-130599606D01*
X232468389Y-130810000D01*
X232486796Y-131020394D01*
X232488219Y-131025706D01*
X232488220Y-131025709D01*
X232505857Y-131091529D01*
X232541458Y-131224395D01*
X232543780Y-131229376D01*
X232543781Y-131229377D01*
X232621371Y-131395768D01*
X232630714Y-131415805D01*
X232751852Y-131588809D01*
X232901191Y-131738148D01*
X232905699Y-131741305D01*
X232905702Y-131741307D01*
X233069685Y-131856129D01*
X233074194Y-131859286D01*
X233079176Y-131861609D01*
X233079181Y-131861612D01*
X233238586Y-131935943D01*
X233265605Y-131948542D01*
X233270913Y-131949964D01*
X233270915Y-131949965D01*
X233301996Y-131958293D01*
X233362619Y-131995245D01*
X233393640Y-132059106D01*
X233385212Y-132129600D01*
X233340009Y-132184347D01*
X233301996Y-132201707D01*
X233270915Y-132210035D01*
X233270913Y-132210036D01*
X233265605Y-132211458D01*
X233260624Y-132213780D01*
X233260623Y-132213781D01*
X233079176Y-132298391D01*
X233079173Y-132298393D01*
X233074195Y-132300714D01*
X232901191Y-132421852D01*
X232751852Y-132571191D01*
X232630714Y-132744195D01*
X232628393Y-132749173D01*
X232628391Y-132749176D01*
X232545837Y-132926214D01*
X232541458Y-132935605D01*
X232540036Y-132940913D01*
X232540035Y-132940915D01*
X232489653Y-133128944D01*
X232486796Y-133139606D01*
X232468389Y-133350000D01*
X232486796Y-133560394D01*
X232488219Y-133565706D01*
X232488220Y-133565709D01*
X232505857Y-133631529D01*
X232541458Y-133764395D01*
X232543780Y-133769376D01*
X232543781Y-133769377D01*
X232621371Y-133935768D01*
X232630714Y-133955805D01*
X232751852Y-134128809D01*
X232901191Y-134278148D01*
X232905699Y-134281305D01*
X232905702Y-134281307D01*
X233069685Y-134396129D01*
X233074194Y-134399286D01*
X233079176Y-134401609D01*
X233079181Y-134401612D01*
X233238586Y-134475943D01*
X233265605Y-134488542D01*
X233270913Y-134489964D01*
X233270915Y-134489965D01*
X233301996Y-134498293D01*
X233362619Y-134535245D01*
X233393640Y-134599106D01*
X233385212Y-134669600D01*
X233340009Y-134724347D01*
X233301996Y-134741707D01*
X233270915Y-134750035D01*
X233270913Y-134750036D01*
X233265605Y-134751458D01*
X233260624Y-134753780D01*
X233260623Y-134753781D01*
X233079176Y-134838391D01*
X233079173Y-134838393D01*
X233074195Y-134840714D01*
X232901191Y-134961852D01*
X232751852Y-135111191D01*
X232630714Y-135284195D01*
X232628393Y-135289173D01*
X232628391Y-135289176D01*
X232545837Y-135466214D01*
X232541458Y-135475605D01*
X232540036Y-135480913D01*
X232540035Y-135480915D01*
X232489653Y-135668944D01*
X232486796Y-135679606D01*
X232468389Y-135890000D01*
X232486796Y-136100394D01*
X232488219Y-136105706D01*
X232488220Y-136105709D01*
X232505857Y-136171529D01*
X232541458Y-136304395D01*
X232543780Y-136309376D01*
X232543781Y-136309377D01*
X232621371Y-136475768D01*
X232630714Y-136495805D01*
X232751852Y-136668809D01*
X232901191Y-136818148D01*
X232905699Y-136821305D01*
X232905702Y-136821307D01*
X233069685Y-136936129D01*
X233074194Y-136939286D01*
X233079176Y-136941609D01*
X233079181Y-136941612D01*
X233238586Y-137015943D01*
X233265605Y-137028542D01*
X233270912Y-137029964D01*
X233270923Y-137029968D01*
X233303735Y-137038760D01*
X233364358Y-137075712D01*
X233395379Y-137139573D01*
X233386949Y-137210067D01*
X233341746Y-137264813D01*
X233314733Y-137278678D01*
X233163782Y-137334366D01*
X233153400Y-137339318D01*
X233040519Y-137406475D01*
X233030921Y-137416808D01*
X233034407Y-137425196D01*
X233667189Y-138057979D01*
X233681132Y-138065592D01*
X233682966Y-138065461D01*
X233689580Y-138061210D01*
X234321700Y-137429089D01*
X234328457Y-137416714D01*
X234322427Y-137408658D01*
X234234972Y-137353478D01*
X234224721Y-137348254D01*
X234045283Y-137276666D01*
X233989423Y-137232845D01*
X233966123Y-137165781D01*
X233982779Y-137096766D01*
X234034103Y-137047711D01*
X234059362Y-137037929D01*
X234089085Y-137029965D01*
X234089087Y-137029964D01*
X234094395Y-137028542D01*
X234121414Y-137015943D01*
X234280819Y-136941612D01*
X234280824Y-136941609D01*
X234285806Y-136939286D01*
X234290315Y-136936129D01*
X234454298Y-136821307D01*
X234454301Y-136821305D01*
X234458809Y-136818148D01*
X234587552Y-136689405D01*
X234649864Y-136655379D01*
X234676647Y-136652500D01*
X237121972Y-136652500D01*
X237190093Y-136672502D01*
X237211067Y-136689405D01*
X238173190Y-137651528D01*
X238185577Y-137665941D01*
X238198546Y-137683564D01*
X238204129Y-137688307D01*
X238239055Y-137717979D01*
X238246571Y-137724909D01*
X238252315Y-137730653D01*
X238255189Y-137732927D01*
X238255196Y-137732933D01*
X238274711Y-137748372D01*
X238278115Y-137751163D01*
X238328472Y-137793945D01*
X238328476Y-137793948D01*
X238334051Y-137798684D01*
X238340568Y-137802012D01*
X238345632Y-137805389D01*
X238350856Y-137808616D01*
X238356600Y-137813160D01*
X238363231Y-137816259D01*
X238423082Y-137844232D01*
X238427033Y-137846163D01*
X238492404Y-137879543D01*
X238499519Y-137881284D01*
X238505265Y-137883421D01*
X238511048Y-137885345D01*
X238517679Y-137888444D01*
X238589557Y-137903394D01*
X238593829Y-137904361D01*
X238665112Y-137921804D01*
X238670711Y-137922151D01*
X238670715Y-137922152D01*
X238676330Y-137922500D01*
X238676328Y-137922539D01*
X238680229Y-137922772D01*
X238684588Y-137923161D01*
X238691756Y-137924652D01*
X238699073Y-137924454D01*
X238769577Y-137922546D01*
X238772986Y-137922500D01*
X240022199Y-137922500D01*
X240090320Y-137942502D01*
X240136813Y-137996158D01*
X240146917Y-138066432D01*
X240143908Y-138081103D01*
X240106796Y-138219606D01*
X240088389Y-138430000D01*
X240106796Y-138640394D01*
X240108220Y-138645707D01*
X240108220Y-138645709D01*
X240125857Y-138711529D01*
X240161458Y-138844395D01*
X240163780Y-138849376D01*
X240163781Y-138849377D01*
X240247230Y-139028333D01*
X240250714Y-139035805D01*
X240371852Y-139208809D01*
X240521191Y-139358148D01*
X240525699Y-139361305D01*
X240525702Y-139361307D01*
X240689685Y-139476129D01*
X240694194Y-139479286D01*
X240699176Y-139481609D01*
X240699181Y-139481612D01*
X240858584Y-139555942D01*
X240885605Y-139568542D01*
X240890913Y-139569964D01*
X240890915Y-139569965D01*
X241084291Y-139621780D01*
X241084293Y-139621780D01*
X241089606Y-139623204D01*
X241300000Y-139641611D01*
X241510394Y-139623204D01*
X241515707Y-139621780D01*
X241515709Y-139621780D01*
X241709085Y-139569965D01*
X241709087Y-139569964D01*
X241714395Y-139568542D01*
X241741416Y-139555942D01*
X241900819Y-139481612D01*
X241900824Y-139481609D01*
X241905806Y-139479286D01*
X241910315Y-139476129D01*
X241958608Y-139442314D01*
X244462046Y-139442314D01*
X244471928Y-139454803D01*
X244527041Y-139491627D01*
X244537146Y-139497114D01*
X244730267Y-139580086D01*
X244741210Y-139583641D01*
X244946209Y-139630028D01*
X244957618Y-139631530D01*
X245167645Y-139639781D01*
X245179129Y-139639179D01*
X245387145Y-139609019D01*
X245398328Y-139606334D01*
X245597362Y-139538771D01*
X245607865Y-139534095D01*
X245750404Y-139454270D01*
X245760266Y-139444194D01*
X245757311Y-139436522D01*
X245122811Y-138802021D01*
X245108868Y-138794408D01*
X245107034Y-138794539D01*
X245100420Y-138798790D01*
X244468239Y-139430972D01*
X244462046Y-139442314D01*
X241958608Y-139442314D01*
X242074298Y-139361307D01*
X242074301Y-139361305D01*
X242078809Y-139358148D01*
X242207552Y-139229405D01*
X242269864Y-139195379D01*
X242296647Y-139192500D01*
X242502624Y-139192500D01*
X242521574Y-139193933D01*
X242535973Y-139196124D01*
X242535979Y-139196124D01*
X242543208Y-139197224D01*
X242550500Y-139196631D01*
X242550503Y-139196631D01*
X242596183Y-139192915D01*
X242606398Y-139192500D01*
X242614525Y-139192500D01*
X242618161Y-139192076D01*
X242618163Y-139192076D01*
X242621615Y-139191673D01*
X242642924Y-139189189D01*
X242647244Y-139188762D01*
X242720426Y-139182809D01*
X242727388Y-139180553D01*
X242733376Y-139179357D01*
X242739333Y-139177949D01*
X242746607Y-139177101D01*
X242753489Y-139174603D01*
X242753493Y-139174602D01*
X242815607Y-139152055D01*
X242819711Y-139150645D01*
X242889575Y-139128013D01*
X242895838Y-139124213D01*
X242901380Y-139121675D01*
X242906856Y-139118933D01*
X242913741Y-139116434D01*
X242946809Y-139094754D01*
X242975132Y-139076185D01*
X242978800Y-139073870D01*
X243041581Y-139035773D01*
X243045786Y-139032059D01*
X243045789Y-139032057D01*
X243050005Y-139028333D01*
X243050031Y-139028362D01*
X243052962Y-139025762D01*
X243056316Y-139022958D01*
X243062435Y-139018946D01*
X243115989Y-138962413D01*
X243118366Y-138959972D01*
X243688657Y-138389681D01*
X243750969Y-138355655D01*
X243821784Y-138360720D01*
X243878620Y-138403267D01*
X243903482Y-138470535D01*
X243912871Y-138613779D01*
X243914672Y-138625149D01*
X243966409Y-138828863D01*
X243970250Y-138839710D01*
X244058247Y-139030592D01*
X244063996Y-139040549D01*
X244085112Y-139070427D01*
X244095701Y-139078815D01*
X244109000Y-139071788D01*
X245020905Y-138159884D01*
X245083217Y-138125859D01*
X245154033Y-138130924D01*
X245199095Y-138159884D01*
X246112609Y-139073398D01*
X246124987Y-139080156D01*
X246131566Y-139075231D01*
X246214095Y-138927865D01*
X246218771Y-138917362D01*
X246286334Y-138718328D01*
X246289019Y-138707145D01*
X246319475Y-138497088D01*
X246320105Y-138489705D01*
X246321572Y-138433704D01*
X246321329Y-138426305D01*
X246301908Y-138214945D01*
X246299811Y-138203631D01*
X246265705Y-138082702D01*
X246266465Y-138011709D01*
X246305486Y-137952398D01*
X246370379Y-137923598D01*
X246386974Y-137922500D01*
X251091972Y-137922500D01*
X251160093Y-137942502D01*
X251181067Y-137959405D01*
X252143190Y-138921528D01*
X252155577Y-138935941D01*
X252168546Y-138953564D01*
X252174129Y-138958307D01*
X252209055Y-138987979D01*
X252216571Y-138994909D01*
X252222315Y-139000653D01*
X252225189Y-139002927D01*
X252225196Y-139002933D01*
X252244711Y-139018372D01*
X252248115Y-139021163D01*
X252298472Y-139063945D01*
X252298476Y-139063948D01*
X252304051Y-139068684D01*
X252310568Y-139072012D01*
X252315632Y-139075389D01*
X252320856Y-139078616D01*
X252326600Y-139083160D01*
X252333231Y-139086259D01*
X252393082Y-139114232D01*
X252397033Y-139116163D01*
X252462404Y-139149543D01*
X252469519Y-139151284D01*
X252475265Y-139153421D01*
X252481048Y-139155345D01*
X252487679Y-139158444D01*
X252559557Y-139173394D01*
X252563829Y-139174361D01*
X252635112Y-139191804D01*
X252640711Y-139192151D01*
X252640715Y-139192152D01*
X252646330Y-139192500D01*
X252646328Y-139192539D01*
X252650229Y-139192772D01*
X252654588Y-139193161D01*
X252661756Y-139194652D01*
X252669073Y-139194454D01*
X252739577Y-139192546D01*
X252742986Y-139192500D01*
X259353353Y-139192500D01*
X259421474Y-139212502D01*
X259442448Y-139229405D01*
X259571191Y-139358148D01*
X259575699Y-139361305D01*
X259575702Y-139361307D01*
X259739685Y-139476129D01*
X259744194Y-139479286D01*
X259749176Y-139481609D01*
X259749181Y-139481612D01*
X259908584Y-139555942D01*
X259935605Y-139568542D01*
X259940913Y-139569964D01*
X259940915Y-139569965D01*
X260134291Y-139621780D01*
X260134293Y-139621780D01*
X260139606Y-139623204D01*
X260350000Y-139641611D01*
X260495288Y-139628900D01*
X263326358Y-139628900D01*
X263329661Y-139633560D01*
X263523399Y-139746771D01*
X263532686Y-139751221D01*
X263747006Y-139833062D01*
X263756908Y-139835939D01*
X263981699Y-139881673D01*
X263991951Y-139882896D01*
X264221202Y-139891302D01*
X264231488Y-139890835D01*
X264459043Y-139861684D01*
X264469129Y-139859541D01*
X264688864Y-139793617D01*
X264698459Y-139789856D01*
X264883859Y-139699030D01*
X267065800Y-139699030D01*
X267071527Y-139706680D01*
X267256272Y-139819893D01*
X267265067Y-139824375D01*
X267482490Y-139914434D01*
X267491875Y-139917483D01*
X267720708Y-139972422D01*
X267730455Y-139973965D01*
X267965070Y-139992430D01*
X267974930Y-139992430D01*
X268209545Y-139973965D01*
X268219292Y-139972422D01*
X268448125Y-139917483D01*
X268457510Y-139914434D01*
X268674933Y-139824375D01*
X268683728Y-139819893D01*
X268864805Y-139708928D01*
X268874267Y-139698470D01*
X268870484Y-139689694D01*
X267982812Y-138802022D01*
X267968868Y-138794408D01*
X267967035Y-138794539D01*
X267960420Y-138798790D01*
X267072560Y-139686650D01*
X267065800Y-139699030D01*
X264883859Y-139699030D01*
X264904466Y-139688935D01*
X264913332Y-139683650D01*
X264980945Y-139635421D01*
X264989346Y-139624721D01*
X264982358Y-139611568D01*
X264172812Y-138802022D01*
X264158868Y-138794408D01*
X264157035Y-138794539D01*
X264150420Y-138798790D01*
X263333635Y-139615575D01*
X263326358Y-139628900D01*
X260495288Y-139628900D01*
X260560394Y-139623204D01*
X260565707Y-139621780D01*
X260565709Y-139621780D01*
X260759085Y-139569965D01*
X260759087Y-139569964D01*
X260764395Y-139568542D01*
X260791416Y-139555942D01*
X260950819Y-139481612D01*
X260950824Y-139481609D01*
X260955806Y-139479286D01*
X260960315Y-139476129D01*
X261124298Y-139361307D01*
X261124301Y-139361305D01*
X261128809Y-139358148D01*
X261257552Y-139229405D01*
X261319864Y-139195379D01*
X261346647Y-139192500D01*
X261552624Y-139192500D01*
X261571574Y-139193933D01*
X261585973Y-139196124D01*
X261585979Y-139196124D01*
X261593208Y-139197224D01*
X261600500Y-139196631D01*
X261600503Y-139196631D01*
X261646183Y-139192915D01*
X261656398Y-139192500D01*
X261664525Y-139192500D01*
X261668161Y-139192076D01*
X261668163Y-139192076D01*
X261671615Y-139191673D01*
X261692924Y-139189189D01*
X261697244Y-139188762D01*
X261770426Y-139182809D01*
X261777388Y-139180553D01*
X261783376Y-139179357D01*
X261789333Y-139177949D01*
X261796607Y-139177101D01*
X261803489Y-139174603D01*
X261803493Y-139174602D01*
X261865607Y-139152055D01*
X261869711Y-139150645D01*
X261939575Y-139128013D01*
X261945838Y-139124213D01*
X261951380Y-139121675D01*
X261956856Y-139118933D01*
X261963741Y-139116434D01*
X261996809Y-139094754D01*
X262025132Y-139076185D01*
X262028800Y-139073870D01*
X262091581Y-139035773D01*
X262095786Y-139032059D01*
X262095789Y-139032057D01*
X262100005Y-139028333D01*
X262100031Y-139028362D01*
X262102962Y-139025762D01*
X262106316Y-139022958D01*
X262112435Y-139018946D01*
X262165989Y-138962413D01*
X262168366Y-138959972D01*
X262509692Y-138618646D01*
X262572004Y-138584620D01*
X262642819Y-138589685D01*
X262699655Y-138632232D01*
X262721704Y-138680040D01*
X262762811Y-138862444D01*
X262765898Y-138872295D01*
X262852204Y-139084840D01*
X262856852Y-139094041D01*
X262953736Y-139252143D01*
X262964192Y-139261604D01*
X262972970Y-139257820D01*
X264070905Y-138159885D01*
X264133217Y-138125859D01*
X264204032Y-138130924D01*
X264249095Y-138159885D01*
X265342130Y-139252920D01*
X265354141Y-139259479D01*
X265365880Y-139250511D01*
X265411012Y-139187702D01*
X265416327Y-139178857D01*
X265517966Y-138973206D01*
X265521765Y-138963611D01*
X265588453Y-138744120D01*
X265590632Y-138734039D01*
X265620813Y-138504789D01*
X265621332Y-138498114D01*
X265622915Y-138433364D01*
X265622721Y-138426647D01*
X265603776Y-138196206D01*
X265602093Y-138186044D01*
X265575255Y-138079195D01*
X265578059Y-138008254D01*
X265618772Y-137950091D01*
X265684468Y-137923172D01*
X265697459Y-137922500D01*
X266329738Y-137922500D01*
X266397859Y-137942502D01*
X266444352Y-137996158D01*
X266454456Y-138066432D01*
X266452257Y-138077914D01*
X266427578Y-138180708D01*
X266426035Y-138190455D01*
X266407570Y-138425070D01*
X266407570Y-138434930D01*
X266426035Y-138669545D01*
X266427578Y-138679292D01*
X266482517Y-138908125D01*
X266485566Y-138917510D01*
X266575625Y-139134933D01*
X266580107Y-139143728D01*
X266691072Y-139324805D01*
X266701530Y-139334267D01*
X266710306Y-139330484D01*
X267880905Y-138159885D01*
X267943217Y-138125859D01*
X268014032Y-138130924D01*
X268059095Y-138159885D01*
X269226650Y-139327440D01*
X269239030Y-139334200D01*
X269246680Y-139328473D01*
X269359893Y-139143728D01*
X269364375Y-139134933D01*
X269454434Y-138917510D01*
X269457483Y-138908125D01*
X269512422Y-138679292D01*
X269513965Y-138669545D01*
X269532430Y-138434930D01*
X269532430Y-138425070D01*
X269513965Y-138190455D01*
X269512422Y-138180708D01*
X269487743Y-138077914D01*
X269491290Y-138007006D01*
X269532610Y-137949272D01*
X269598584Y-137923042D01*
X269610262Y-137922500D01*
X273951972Y-137922500D01*
X274020093Y-137942502D01*
X274041067Y-137959405D01*
X275003190Y-138921528D01*
X275015577Y-138935941D01*
X275028546Y-138953564D01*
X275034129Y-138958307D01*
X275069055Y-138987979D01*
X275076571Y-138994909D01*
X275082315Y-139000653D01*
X275085189Y-139002927D01*
X275085196Y-139002933D01*
X275104711Y-139018372D01*
X275108115Y-139021163D01*
X275158472Y-139063945D01*
X275158476Y-139063948D01*
X275164051Y-139068684D01*
X275170568Y-139072012D01*
X275175632Y-139075389D01*
X275180856Y-139078616D01*
X275186600Y-139083160D01*
X275193231Y-139086259D01*
X275253082Y-139114232D01*
X275257033Y-139116163D01*
X275322404Y-139149543D01*
X275329519Y-139151284D01*
X275335265Y-139153421D01*
X275341048Y-139155345D01*
X275347679Y-139158444D01*
X275419557Y-139173394D01*
X275423829Y-139174361D01*
X275495112Y-139191804D01*
X275500711Y-139192151D01*
X275500715Y-139192152D01*
X275506330Y-139192500D01*
X275506328Y-139192539D01*
X275510229Y-139192772D01*
X275514588Y-139193161D01*
X275521756Y-139194652D01*
X275529073Y-139194454D01*
X275599577Y-139192546D01*
X275602986Y-139192500D01*
X278086036Y-139192500D01*
X278154157Y-139212502D01*
X278193469Y-139252666D01*
X278216312Y-139289943D01*
X278216317Y-139289950D01*
X278219014Y-139294351D01*
X278376043Y-139475630D01*
X278501602Y-139579871D01*
X278539006Y-139610924D01*
X278560571Y-139628828D01*
X278767643Y-139749831D01*
X278991697Y-139835389D01*
X278996763Y-139836420D01*
X278996764Y-139836420D01*
X279053039Y-139847869D01*
X279226716Y-139883204D01*
X279362264Y-139888174D01*
X279461225Y-139891803D01*
X279461229Y-139891803D01*
X279466389Y-139891992D01*
X279471509Y-139891336D01*
X279471511Y-139891336D01*
X279699151Y-139862175D01*
X279699152Y-139862175D01*
X279704279Y-139861518D01*
X279787935Y-139836420D01*
X279929042Y-139794086D01*
X279929047Y-139794084D01*
X279933997Y-139792599D01*
X280149374Y-139687087D01*
X280153579Y-139684087D01*
X280153585Y-139684084D01*
X280268062Y-139602428D01*
X280344627Y-139547815D01*
X280514511Y-139378523D01*
X280592581Y-139269877D01*
X280610475Y-139244974D01*
X280666470Y-139201326D01*
X280712798Y-139192500D01*
X282253910Y-139192500D01*
X282322031Y-139212502D01*
X282341831Y-139228246D01*
X282461660Y-139344978D01*
X282461666Y-139344983D01*
X282465800Y-139349010D01*
X282470596Y-139352215D01*
X282470599Y-139352217D01*
X282596771Y-139436522D01*
X282645738Y-139469241D01*
X282651041Y-139471519D01*
X282651044Y-139471521D01*
X282839266Y-139552387D01*
X282844573Y-139554667D01*
X282895626Y-139566219D01*
X283050010Y-139601153D01*
X283050015Y-139601154D01*
X283055647Y-139602428D01*
X283061418Y-139602655D01*
X283061420Y-139602655D01*
X283128129Y-139605276D01*
X283271890Y-139610924D01*
X283378975Y-139595398D01*
X283480346Y-139580700D01*
X283480351Y-139580699D01*
X283486060Y-139579871D01*
X283491524Y-139578016D01*
X283491529Y-139578015D01*
X283685512Y-139512167D01*
X283685517Y-139512165D01*
X283690984Y-139510309D01*
X283696027Y-139507485D01*
X283874754Y-139407393D01*
X283874758Y-139407390D01*
X283879801Y-139404566D01*
X284046186Y-139266186D01*
X284184566Y-139099801D01*
X284187390Y-139094758D01*
X284187393Y-139094754D01*
X284287485Y-138916027D01*
X284287486Y-138916025D01*
X284290309Y-138910984D01*
X284292165Y-138905517D01*
X284292167Y-138905512D01*
X284358015Y-138711529D01*
X284358016Y-138711524D01*
X284359871Y-138706060D01*
X284360699Y-138700351D01*
X284360700Y-138700346D01*
X284379488Y-138570765D01*
X284390924Y-138491890D01*
X284392545Y-138430000D01*
X284372743Y-138214498D01*
X284364090Y-138183817D01*
X284315571Y-138011779D01*
X284315569Y-138011774D01*
X284314001Y-138006214D01*
X284291802Y-137961198D01*
X284220839Y-137817301D01*
X284218285Y-137812122D01*
X284088802Y-137638723D01*
X283978816Y-137537053D01*
X283934128Y-137495743D01*
X283934125Y-137495741D01*
X283929888Y-137491824D01*
X283824289Y-137425196D01*
X283751748Y-137379426D01*
X283751743Y-137379424D01*
X283746864Y-137376345D01*
X283545861Y-137296153D01*
X283498695Y-137286771D01*
X283491361Y-137285312D01*
X283428452Y-137252404D01*
X283393320Y-137190709D01*
X283397120Y-137119814D01*
X283438646Y-137062228D01*
X283484777Y-137040057D01*
X283486060Y-137039871D01*
X283571660Y-137010814D01*
X283685512Y-136972167D01*
X283685517Y-136972165D01*
X283690984Y-136970309D01*
X283696027Y-136967485D01*
X283874754Y-136867393D01*
X283874758Y-136867390D01*
X283879801Y-136864566D01*
X284046186Y-136726186D01*
X284184566Y-136559801D01*
X284187390Y-136554758D01*
X284187393Y-136554754D01*
X284287485Y-136376027D01*
X284287486Y-136376025D01*
X284290309Y-136370984D01*
X284292165Y-136365517D01*
X284292167Y-136365512D01*
X284358015Y-136171529D01*
X284358016Y-136171524D01*
X284359871Y-136166060D01*
X284360699Y-136160351D01*
X284360700Y-136160346D01*
X284390391Y-135955564D01*
X284390924Y-135951890D01*
X284392545Y-135890000D01*
X284372743Y-135674498D01*
X284354824Y-135610962D01*
X284315571Y-135471779D01*
X284315569Y-135471774D01*
X284314001Y-135466214D01*
X284310487Y-135459087D01*
X284220839Y-135277301D01*
X284218285Y-135272122D01*
X284144855Y-135173787D01*
X284092255Y-135103347D01*
X284092254Y-135103346D01*
X284088802Y-135098723D01*
X283978816Y-134997053D01*
X283934128Y-134955743D01*
X283934125Y-134955741D01*
X283929888Y-134951824D01*
X283801187Y-134870620D01*
X283751748Y-134839426D01*
X283751743Y-134839424D01*
X283746864Y-134836345D01*
X283545861Y-134756153D01*
X283498695Y-134746771D01*
X283491361Y-134745312D01*
X283428452Y-134712404D01*
X283393320Y-134650709D01*
X283397120Y-134579814D01*
X283438646Y-134522228D01*
X283484777Y-134500057D01*
X283486060Y-134499871D01*
X283571660Y-134470814D01*
X283685512Y-134432167D01*
X283685517Y-134432165D01*
X283690984Y-134430309D01*
X283696027Y-134427485D01*
X283874754Y-134327393D01*
X283874758Y-134327390D01*
X283879801Y-134324566D01*
X284046186Y-134186186D01*
X284184566Y-134019801D01*
X284187390Y-134014758D01*
X284187393Y-134014754D01*
X284287485Y-133836027D01*
X284287486Y-133836025D01*
X284290309Y-133830984D01*
X284292165Y-133825517D01*
X284292167Y-133825512D01*
X284358015Y-133631529D01*
X284358016Y-133631524D01*
X284359871Y-133626060D01*
X284360699Y-133620351D01*
X284360700Y-133620346D01*
X284390391Y-133415564D01*
X284390924Y-133411890D01*
X284392545Y-133350000D01*
X284372743Y-133134498D01*
X284335573Y-133002701D01*
X284315571Y-132931779D01*
X284315569Y-132931774D01*
X284314001Y-132926214D01*
X284290918Y-132879405D01*
X284220839Y-132737301D01*
X284218285Y-132732122D01*
X284088802Y-132558723D01*
X283978816Y-132457053D01*
X283934128Y-132415743D01*
X283934125Y-132415741D01*
X283929888Y-132411824D01*
X283847481Y-132359829D01*
X283751748Y-132299426D01*
X283751743Y-132299424D01*
X283746864Y-132296345D01*
X283545861Y-132216153D01*
X283498695Y-132206771D01*
X283491361Y-132205312D01*
X283428452Y-132172404D01*
X283393320Y-132110709D01*
X283397120Y-132039814D01*
X283438646Y-131982228D01*
X283484777Y-131960057D01*
X283486060Y-131959871D01*
X283571660Y-131930814D01*
X283685512Y-131892167D01*
X283685517Y-131892165D01*
X283690984Y-131890309D01*
X283696027Y-131887485D01*
X283874754Y-131787393D01*
X283874758Y-131787390D01*
X283879801Y-131784566D01*
X284046186Y-131646186D01*
X284184566Y-131479801D01*
X284187390Y-131474758D01*
X284187393Y-131474754D01*
X284287485Y-131296027D01*
X284287486Y-131296025D01*
X284290309Y-131290984D01*
X284292165Y-131285517D01*
X284292167Y-131285512D01*
X284358015Y-131091529D01*
X284358016Y-131091524D01*
X284359871Y-131086060D01*
X284360699Y-131080351D01*
X284360700Y-131080346D01*
X284390391Y-130875564D01*
X284390924Y-130871890D01*
X284392545Y-130810000D01*
X284372743Y-130594498D01*
X284335573Y-130462701D01*
X284315571Y-130391779D01*
X284315569Y-130391774D01*
X284314001Y-130386214D01*
X284290918Y-130339405D01*
X284220839Y-130197301D01*
X284218285Y-130192122D01*
X284088802Y-130018723D01*
X283978816Y-129917053D01*
X283934128Y-129875743D01*
X283934125Y-129875741D01*
X283929888Y-129871824D01*
X283847481Y-129819829D01*
X283751748Y-129759426D01*
X283751743Y-129759424D01*
X283746864Y-129756345D01*
X283545861Y-129676153D01*
X283498695Y-129666771D01*
X283491361Y-129665312D01*
X283428452Y-129632404D01*
X283393320Y-129570709D01*
X283397120Y-129499814D01*
X283438646Y-129442228D01*
X283484777Y-129420057D01*
X283486060Y-129419871D01*
X283571660Y-129390814D01*
X283685512Y-129352167D01*
X283685517Y-129352165D01*
X283690984Y-129350309D01*
X283696027Y-129347485D01*
X283874754Y-129247393D01*
X283874758Y-129247390D01*
X283879801Y-129244566D01*
X284046186Y-129106186D01*
X284184566Y-128939801D01*
X284187390Y-128934758D01*
X284187393Y-128934754D01*
X284287485Y-128756027D01*
X284287486Y-128756025D01*
X284290309Y-128750984D01*
X284292165Y-128745517D01*
X284292167Y-128745512D01*
X284358015Y-128551529D01*
X284358016Y-128551524D01*
X284359871Y-128546060D01*
X284360699Y-128540351D01*
X284360700Y-128540346D01*
X284390391Y-128335564D01*
X284390924Y-128331890D01*
X284392545Y-128270000D01*
X284372743Y-128054498D01*
X284335573Y-127922701D01*
X284315571Y-127851779D01*
X284315569Y-127851774D01*
X284314001Y-127846214D01*
X284303832Y-127825592D01*
X284220839Y-127657301D01*
X284218285Y-127652122D01*
X284117881Y-127517665D01*
X284092255Y-127483347D01*
X284092254Y-127483346D01*
X284088802Y-127478723D01*
X283993550Y-127390672D01*
X283934128Y-127335743D01*
X283934125Y-127335741D01*
X283929888Y-127331824D01*
X283838729Y-127274307D01*
X283751748Y-127219426D01*
X283751743Y-127219424D01*
X283746864Y-127216345D01*
X283545861Y-127136153D01*
X283498695Y-127126771D01*
X283491361Y-127125312D01*
X283428452Y-127092404D01*
X283393320Y-127030709D01*
X283397120Y-126959814D01*
X283438646Y-126902228D01*
X283484777Y-126880057D01*
X283486060Y-126879871D01*
X283571660Y-126850814D01*
X283685512Y-126812167D01*
X283685517Y-126812165D01*
X283690984Y-126810309D01*
X283696027Y-126807485D01*
X283874754Y-126707393D01*
X283874758Y-126707390D01*
X283879801Y-126704566D01*
X284046186Y-126566186D01*
X284184566Y-126399801D01*
X284187390Y-126394758D01*
X284187393Y-126394754D01*
X284287485Y-126216027D01*
X284287486Y-126216025D01*
X284290309Y-126210984D01*
X284292165Y-126205517D01*
X284292167Y-126205512D01*
X284358015Y-126011529D01*
X284358016Y-126011524D01*
X284359871Y-126006060D01*
X284360699Y-126000351D01*
X284360700Y-126000346D01*
X284388695Y-125807264D01*
X284390924Y-125791890D01*
X284392545Y-125730000D01*
X284372743Y-125514498D01*
X284357627Y-125460900D01*
X284315571Y-125311779D01*
X284315569Y-125311774D01*
X284314001Y-125306214D01*
X284280595Y-125238472D01*
X284220839Y-125117301D01*
X284218285Y-125112122D01*
X284112952Y-124971064D01*
X284092255Y-124943347D01*
X284092254Y-124943346D01*
X284088802Y-124938723D01*
X283978816Y-124837053D01*
X283934128Y-124795743D01*
X283934125Y-124795741D01*
X283929888Y-124791824D01*
X283880949Y-124760946D01*
X283751748Y-124679426D01*
X283751743Y-124679424D01*
X283746864Y-124676345D01*
X283545861Y-124596153D01*
X283498695Y-124586771D01*
X283491361Y-124585312D01*
X283428452Y-124552404D01*
X283393320Y-124490709D01*
X283397120Y-124419814D01*
X283438646Y-124362228D01*
X283484777Y-124340057D01*
X283486060Y-124339871D01*
X283540840Y-124321276D01*
X283685512Y-124272167D01*
X283685517Y-124272165D01*
X283690984Y-124270309D01*
X283696027Y-124267485D01*
X283874754Y-124167393D01*
X283874758Y-124167390D01*
X283879801Y-124164566D01*
X284046186Y-124026186D01*
X284184566Y-123859801D01*
X284187390Y-123854758D01*
X284187393Y-123854754D01*
X284287485Y-123676027D01*
X284287486Y-123676025D01*
X284290309Y-123670984D01*
X284292165Y-123665517D01*
X284292167Y-123665512D01*
X284358015Y-123471529D01*
X284358016Y-123471524D01*
X284359871Y-123466060D01*
X284360699Y-123460351D01*
X284360700Y-123460346D01*
X284390391Y-123255564D01*
X284390924Y-123251890D01*
X284392545Y-123190000D01*
X284372743Y-122974498D01*
X284335573Y-122842701D01*
X284315571Y-122771779D01*
X284315569Y-122771774D01*
X284314001Y-122766214D01*
X284303948Y-122745827D01*
X284220839Y-122577301D01*
X284218285Y-122572122D01*
X284088802Y-122398723D01*
X283978816Y-122297053D01*
X283934128Y-122255743D01*
X283934125Y-122255741D01*
X283929888Y-122251824D01*
X283828256Y-122187699D01*
X283751748Y-122139426D01*
X283751743Y-122139424D01*
X283746864Y-122136345D01*
X283545861Y-122056153D01*
X283498695Y-122046771D01*
X283491361Y-122045312D01*
X283428452Y-122012404D01*
X283393320Y-121950709D01*
X283397120Y-121879814D01*
X283438646Y-121822228D01*
X283484777Y-121800057D01*
X283486060Y-121799871D01*
X283540840Y-121781276D01*
X283685512Y-121732167D01*
X283685517Y-121732165D01*
X283690984Y-121730309D01*
X283696027Y-121727485D01*
X283874754Y-121627393D01*
X283874758Y-121627390D01*
X283879801Y-121624566D01*
X284046186Y-121486186D01*
X284184566Y-121319801D01*
X284187390Y-121314758D01*
X284187393Y-121314754D01*
X284287485Y-121136027D01*
X284287486Y-121136025D01*
X284290309Y-121130984D01*
X284292165Y-121125517D01*
X284292167Y-121125512D01*
X284358015Y-120931529D01*
X284358016Y-120931524D01*
X284359871Y-120926060D01*
X284360699Y-120920351D01*
X284360700Y-120920346D01*
X284379701Y-120789297D01*
X284390924Y-120711890D01*
X284392545Y-120650000D01*
X284372743Y-120434498D01*
X284357627Y-120380900D01*
X284315571Y-120231779D01*
X284315569Y-120231774D01*
X284314001Y-120226214D01*
X284310895Y-120219914D01*
X284220839Y-120037301D01*
X284218285Y-120032122D01*
X284112952Y-119891064D01*
X284092255Y-119863347D01*
X284092254Y-119863346D01*
X284088802Y-119858723D01*
X283977811Y-119756124D01*
X283934128Y-119715743D01*
X283934125Y-119715741D01*
X283929888Y-119711824D01*
X283850124Y-119661497D01*
X283751748Y-119599426D01*
X283751743Y-119599424D01*
X283746864Y-119596345D01*
X283545861Y-119516153D01*
X283496182Y-119506271D01*
X283491361Y-119505312D01*
X283428452Y-119472404D01*
X283393320Y-119410709D01*
X283397120Y-119339814D01*
X283438646Y-119282228D01*
X283484777Y-119260057D01*
X283486060Y-119259871D01*
X283542527Y-119240703D01*
X283685512Y-119192167D01*
X283685517Y-119192165D01*
X283690984Y-119190309D01*
X283736932Y-119164577D01*
X283874754Y-119087393D01*
X283874758Y-119087390D01*
X283879801Y-119084566D01*
X284046186Y-118946186D01*
X284184566Y-118779801D01*
X284187390Y-118774758D01*
X284187393Y-118774754D01*
X284287485Y-118596027D01*
X284287486Y-118596025D01*
X284290309Y-118590984D01*
X284292165Y-118585517D01*
X284292167Y-118585512D01*
X284358015Y-118391529D01*
X284358016Y-118391524D01*
X284359871Y-118386060D01*
X284360699Y-118380351D01*
X284360700Y-118380346D01*
X284390391Y-118175564D01*
X284390924Y-118171890D01*
X284392545Y-118110000D01*
X284372743Y-117894498D01*
X284335573Y-117762701D01*
X284315571Y-117691779D01*
X284315569Y-117691774D01*
X284314001Y-117686214D01*
X284310895Y-117679914D01*
X284220839Y-117497301D01*
X284218285Y-117492122D01*
X284088802Y-117318723D01*
X283978816Y-117217053D01*
X283934128Y-117175743D01*
X283934125Y-117175741D01*
X283929888Y-117171824D01*
X283823254Y-117104543D01*
X283751748Y-117059426D01*
X283751743Y-117059424D01*
X283746864Y-117056345D01*
X283545861Y-116976153D01*
X283498695Y-116966771D01*
X283491361Y-116965312D01*
X283428452Y-116932404D01*
X283393320Y-116870709D01*
X283397120Y-116799814D01*
X283438646Y-116742228D01*
X283484777Y-116720057D01*
X283486060Y-116719871D01*
X283571660Y-116690814D01*
X283685512Y-116652167D01*
X283685517Y-116652165D01*
X283690984Y-116650309D01*
X283696027Y-116647485D01*
X283874754Y-116547393D01*
X283874758Y-116547390D01*
X283879801Y-116544566D01*
X284046186Y-116406186D01*
X284184566Y-116239801D01*
X284187390Y-116234758D01*
X284187393Y-116234754D01*
X284287485Y-116056027D01*
X284287486Y-116056025D01*
X284290309Y-116050984D01*
X284292165Y-116045517D01*
X284292167Y-116045512D01*
X284358015Y-115851529D01*
X284358016Y-115851524D01*
X284359871Y-115846060D01*
X284360699Y-115840351D01*
X284360700Y-115840346D01*
X284390391Y-115635564D01*
X284390924Y-115631890D01*
X284392545Y-115570000D01*
X284372743Y-115354498D01*
X284360916Y-115312563D01*
X284315571Y-115151779D01*
X284315569Y-115151774D01*
X284314001Y-115146214D01*
X284290918Y-115099405D01*
X284220839Y-114957301D01*
X284218285Y-114952122D01*
X284088802Y-114778723D01*
X283978816Y-114677053D01*
X283934128Y-114635743D01*
X283934125Y-114635741D01*
X283929888Y-114631824D01*
X283847481Y-114579829D01*
X283751748Y-114519426D01*
X283751743Y-114519424D01*
X283746864Y-114516345D01*
X283545861Y-114436153D01*
X283498695Y-114426771D01*
X283491361Y-114425312D01*
X283428452Y-114392404D01*
X283393320Y-114330709D01*
X283397120Y-114259814D01*
X283438646Y-114202228D01*
X283484777Y-114180057D01*
X283486060Y-114179871D01*
X283552155Y-114157435D01*
X283685512Y-114112167D01*
X283685517Y-114112165D01*
X283690984Y-114110309D01*
X283696027Y-114107485D01*
X283874754Y-114007393D01*
X283874758Y-114007390D01*
X283879801Y-114004566D01*
X284046186Y-113866186D01*
X284184566Y-113699801D01*
X284187390Y-113694758D01*
X284187393Y-113694754D01*
X284287485Y-113516027D01*
X284287486Y-113516025D01*
X284290309Y-113510984D01*
X284292165Y-113505517D01*
X284292167Y-113505512D01*
X284358015Y-113311529D01*
X284358016Y-113311524D01*
X284359871Y-113306060D01*
X284360699Y-113300351D01*
X284360700Y-113300346D01*
X284390391Y-113095564D01*
X284390924Y-113091890D01*
X284392545Y-113030000D01*
X284372743Y-112814498D01*
X284362787Y-112779196D01*
X284315571Y-112611779D01*
X284315569Y-112611774D01*
X284314001Y-112606214D01*
X284310895Y-112599914D01*
X284220839Y-112417301D01*
X284218285Y-112412122D01*
X284098112Y-112251191D01*
X284092255Y-112243347D01*
X284092254Y-112243346D01*
X284088802Y-112238723D01*
X283978816Y-112137053D01*
X283934128Y-112095743D01*
X283934125Y-112095741D01*
X283929888Y-112091824D01*
X283847481Y-112039829D01*
X283751748Y-111979426D01*
X283751743Y-111979424D01*
X283746864Y-111976345D01*
X283545861Y-111896153D01*
X283498695Y-111886771D01*
X283491361Y-111885312D01*
X283428452Y-111852404D01*
X283393320Y-111790709D01*
X283397120Y-111719814D01*
X283438646Y-111662228D01*
X283484777Y-111640057D01*
X283486060Y-111639871D01*
X283542527Y-111620703D01*
X283685512Y-111572167D01*
X283685517Y-111572165D01*
X283690984Y-111570309D01*
X283696027Y-111567485D01*
X283874754Y-111467393D01*
X283874758Y-111467390D01*
X283879801Y-111464566D01*
X284046186Y-111326186D01*
X284184566Y-111159801D01*
X284187390Y-111154758D01*
X284187393Y-111154754D01*
X284287485Y-110976027D01*
X284287486Y-110976025D01*
X284290309Y-110970984D01*
X284292165Y-110965517D01*
X284292167Y-110965512D01*
X284358015Y-110771529D01*
X284358016Y-110771524D01*
X284359871Y-110766060D01*
X284360699Y-110760351D01*
X284360700Y-110760346D01*
X284383219Y-110605031D01*
X284390924Y-110551890D01*
X284392545Y-110490000D01*
X284372743Y-110274498D01*
X284335573Y-110142701D01*
X284315571Y-110071779D01*
X284315569Y-110071774D01*
X284314001Y-110066214D01*
X284290918Y-110019405D01*
X284220839Y-109877301D01*
X284218285Y-109872122D01*
X284112952Y-109731064D01*
X284092255Y-109703347D01*
X284092254Y-109703346D01*
X284088802Y-109698723D01*
X283978816Y-109597053D01*
X283934128Y-109555743D01*
X283934125Y-109555741D01*
X283929888Y-109551824D01*
X283847481Y-109499829D01*
X283751748Y-109439426D01*
X283751743Y-109439424D01*
X283746864Y-109436345D01*
X283545861Y-109356153D01*
X283498695Y-109346771D01*
X283491361Y-109345312D01*
X283428452Y-109312404D01*
X283393320Y-109250709D01*
X283397120Y-109179814D01*
X283438646Y-109122228D01*
X283484777Y-109100057D01*
X283486060Y-109099871D01*
X283571660Y-109070814D01*
X283685512Y-109032167D01*
X283685517Y-109032165D01*
X283690984Y-109030309D01*
X283696027Y-109027485D01*
X283874754Y-108927393D01*
X283874758Y-108927390D01*
X283879801Y-108924566D01*
X284046186Y-108786186D01*
X284184566Y-108619801D01*
X284187390Y-108614758D01*
X284187393Y-108614754D01*
X284287485Y-108436027D01*
X284287486Y-108436025D01*
X284290309Y-108430984D01*
X284292165Y-108425517D01*
X284292167Y-108425512D01*
X284358015Y-108231529D01*
X284358016Y-108231524D01*
X284359871Y-108226060D01*
X284360699Y-108220351D01*
X284360700Y-108220346D01*
X284385139Y-108051786D01*
X284390924Y-108011890D01*
X284392545Y-107950000D01*
X284372743Y-107734498D01*
X284357627Y-107680900D01*
X284315571Y-107531779D01*
X284315569Y-107531774D01*
X284314001Y-107526214D01*
X284280595Y-107458472D01*
X284220839Y-107337301D01*
X284218285Y-107332122D01*
X284112952Y-107191064D01*
X284092255Y-107163347D01*
X284092254Y-107163346D01*
X284088802Y-107158723D01*
X283978816Y-107057053D01*
X283934128Y-107015743D01*
X283934125Y-107015741D01*
X283929888Y-107011824D01*
X283846143Y-106958985D01*
X283751748Y-106899426D01*
X283751743Y-106899424D01*
X283746864Y-106896345D01*
X283545861Y-106816153D01*
X283498695Y-106806771D01*
X283491361Y-106805312D01*
X283428452Y-106772404D01*
X283393320Y-106710709D01*
X283397120Y-106639814D01*
X283438646Y-106582228D01*
X283484777Y-106560057D01*
X283486060Y-106559871D01*
X283556550Y-106535943D01*
X283685512Y-106492167D01*
X283685517Y-106492165D01*
X283690984Y-106490309D01*
X283734139Y-106466141D01*
X283874754Y-106387393D01*
X283874758Y-106387390D01*
X283879801Y-106384566D01*
X284046186Y-106246186D01*
X284184566Y-106079801D01*
X284187390Y-106074758D01*
X284187393Y-106074754D01*
X284287485Y-105896027D01*
X284287486Y-105896025D01*
X284290309Y-105890984D01*
X284292165Y-105885517D01*
X284292167Y-105885512D01*
X284358015Y-105691529D01*
X284358016Y-105691524D01*
X284359871Y-105686060D01*
X284360699Y-105680351D01*
X284360700Y-105680346D01*
X284388424Y-105489129D01*
X284390924Y-105471890D01*
X284392545Y-105410000D01*
X284372743Y-105194498D01*
X284367561Y-105176124D01*
X284315571Y-104991779D01*
X284315569Y-104991774D01*
X284314001Y-104986214D01*
X284280738Y-104918762D01*
X284220839Y-104797301D01*
X284218285Y-104792122D01*
X284098112Y-104631191D01*
X284092255Y-104623347D01*
X284092254Y-104623346D01*
X284088802Y-104618723D01*
X283978816Y-104517053D01*
X283934128Y-104475743D01*
X283934125Y-104475741D01*
X283929888Y-104471824D01*
X283799840Y-104389770D01*
X283751748Y-104359426D01*
X283751743Y-104359424D01*
X283746864Y-104356345D01*
X283545861Y-104276153D01*
X283333610Y-104233933D01*
X283327835Y-104233857D01*
X283327831Y-104233857D01*
X283219159Y-104232435D01*
X283117219Y-104231100D01*
X283111522Y-104232079D01*
X283111521Y-104232079D01*
X283094173Y-104235060D01*
X282903935Y-104267749D01*
X282700901Y-104342652D01*
X282695940Y-104345604D01*
X282695939Y-104345604D01*
X282519885Y-104450345D01*
X282519882Y-104450347D01*
X282514917Y-104453301D01*
X282510577Y-104457107D01*
X282510573Y-104457110D01*
X282389537Y-104563257D01*
X282352212Y-104595990D01*
X282348637Y-104600525D01*
X282348636Y-104600526D01*
X282253485Y-104721225D01*
X282218234Y-104765940D01*
X282117471Y-104957460D01*
X282115758Y-104962977D01*
X282060511Y-105140900D01*
X282053296Y-105164135D01*
X282027860Y-105379045D01*
X282042014Y-105594991D01*
X282095284Y-105804742D01*
X282185886Y-106001272D01*
X282310786Y-106178002D01*
X282465800Y-106329010D01*
X282470596Y-106332215D01*
X282470599Y-106332217D01*
X282618069Y-106430753D01*
X282645738Y-106449241D01*
X282651041Y-106451519D01*
X282651044Y-106451521D01*
X282797207Y-106514317D01*
X282844573Y-106534667D01*
X282850208Y-106535942D01*
X282850211Y-106535943D01*
X282894531Y-106545971D01*
X282938319Y-106555879D01*
X283000345Y-106590421D01*
X283033850Y-106653015D01*
X283028196Y-106723786D01*
X282985178Y-106780265D01*
X282931851Y-106802952D01*
X282926204Y-106803922D01*
X282903935Y-106807749D01*
X282700901Y-106882652D01*
X282695940Y-106885604D01*
X282695939Y-106885604D01*
X282519885Y-106990345D01*
X282519882Y-106990347D01*
X282514917Y-106993301D01*
X282510577Y-106997107D01*
X282510573Y-106997110D01*
X282359111Y-107129940D01*
X282352212Y-107135990D01*
X282348637Y-107140525D01*
X282344660Y-107144716D01*
X282343567Y-107143678D01*
X282291554Y-107180621D01*
X282250490Y-107187500D01*
X280712460Y-107187500D01*
X280644339Y-107167498D01*
X280606668Y-107129940D01*
X280562325Y-107061396D01*
X280562323Y-107061393D01*
X280559515Y-107057053D01*
X280540420Y-107036067D01*
X280401582Y-106883487D01*
X280401580Y-106883486D01*
X280398104Y-106879665D01*
X280394053Y-106876466D01*
X280394049Y-106876462D01*
X280270333Y-106778757D01*
X280229270Y-106720840D01*
X280226038Y-106649917D01*
X280261664Y-106588505D01*
X280275257Y-106577296D01*
X280340423Y-106530814D01*
X280340425Y-106530812D01*
X280344627Y-106527815D01*
X280514511Y-106358523D01*
X280538616Y-106324978D01*
X280651445Y-106167958D01*
X280654463Y-106163758D01*
X280691492Y-106088837D01*
X280758433Y-105953392D01*
X280758434Y-105953390D01*
X280760727Y-105948750D01*
X280830447Y-105719274D01*
X280861752Y-105481492D01*
X280862157Y-105464931D01*
X280863417Y-105413365D01*
X280863417Y-105413361D01*
X280863499Y-105410000D01*
X280857001Y-105330970D01*
X280844271Y-105176124D01*
X280844270Y-105176118D01*
X280843847Y-105170973D01*
X280798837Y-104991779D01*
X280786679Y-104943375D01*
X280786678Y-104943371D01*
X280785420Y-104938364D01*
X280783364Y-104933634D01*
X280783361Y-104933627D01*
X280691847Y-104723159D01*
X280691845Y-104723156D01*
X280689787Y-104718422D01*
X280684943Y-104710933D01*
X280562325Y-104521396D01*
X280562323Y-104521393D01*
X280559515Y-104517053D01*
X280539528Y-104495087D01*
X280401582Y-104343487D01*
X280401580Y-104343486D01*
X280398104Y-104339665D01*
X280394053Y-104336466D01*
X280394049Y-104336462D01*
X280232794Y-104209111D01*
X280209888Y-104191021D01*
X279999922Y-104075113D01*
X279815950Y-104009965D01*
X279778720Y-103996781D01*
X279778716Y-103996780D01*
X279773845Y-103995055D01*
X279768752Y-103994148D01*
X279768749Y-103994147D01*
X279542816Y-103953902D01*
X279542810Y-103953901D01*
X279537727Y-103952996D01*
X279450460Y-103951930D01*
X279303081Y-103950129D01*
X279303079Y-103950129D01*
X279297911Y-103950066D01*
X279060837Y-103986343D01*
X278832871Y-104060854D01*
X278828279Y-104063244D01*
X278828280Y-104063244D01*
X278718287Y-104120503D01*
X278620136Y-104171597D01*
X278616003Y-104174700D01*
X278616000Y-104174702D01*
X278444623Y-104303376D01*
X278428345Y-104315598D01*
X278424773Y-104319336D01*
X278290758Y-104459575D01*
X278262648Y-104488990D01*
X278259734Y-104493262D01*
X278259733Y-104493263D01*
X278176152Y-104615789D01*
X278127495Y-104687117D01*
X278091253Y-104765193D01*
X278034974Y-104886436D01*
X278026516Y-104904656D01*
X277999728Y-105001251D01*
X277967944Y-105115865D01*
X277962424Y-105135768D01*
X277936938Y-105374244D01*
X277937235Y-105379396D01*
X277937235Y-105379400D01*
X277938806Y-105406646D01*
X277950744Y-105613680D01*
X277951879Y-105618717D01*
X277951880Y-105618723D01*
X277998230Y-105824395D01*
X278003470Y-105847646D01*
X278047979Y-105957257D01*
X278087497Y-106054577D01*
X278093702Y-106069859D01*
X278219014Y-106274351D01*
X278222398Y-106278257D01*
X278222399Y-106278259D01*
X278234797Y-106292571D01*
X278376043Y-106455630D01*
X278531109Y-106584368D01*
X278570742Y-106643268D01*
X278572240Y-106714249D01*
X278535126Y-106774772D01*
X278526276Y-106782069D01*
X278523242Y-106784347D01*
X278433509Y-106851721D01*
X278428345Y-106855598D01*
X278391451Y-106894205D01*
X278280810Y-107009985D01*
X278262648Y-107028990D01*
X278259737Y-107033258D01*
X278259733Y-107033263D01*
X278175420Y-107156862D01*
X278127495Y-107227117D01*
X278081899Y-107325345D01*
X278034974Y-107426436D01*
X278026516Y-107444656D01*
X277962424Y-107675768D01*
X277936938Y-107914244D01*
X277937235Y-107919396D01*
X277937235Y-107919400D01*
X277939000Y-107950000D01*
X277950744Y-108153680D01*
X277951879Y-108158717D01*
X277951880Y-108158723D01*
X277998230Y-108364395D01*
X278003470Y-108387646D01*
X278047979Y-108497257D01*
X278088355Y-108596690D01*
X278093702Y-108609859D01*
X278219014Y-108814351D01*
X278376043Y-108995630D01*
X278531109Y-109124368D01*
X278570742Y-109183268D01*
X278572240Y-109254249D01*
X278535126Y-109314772D01*
X278526275Y-109322070D01*
X278495320Y-109345312D01*
X278428345Y-109395598D01*
X278424773Y-109399336D01*
X278307059Y-109522517D01*
X278262648Y-109568990D01*
X278192034Y-109672506D01*
X278137125Y-109717507D01*
X278087948Y-109727500D01*
X275958027Y-109727500D01*
X275889906Y-109707498D01*
X275868936Y-109690599D01*
X274906803Y-108728465D01*
X274894423Y-108714059D01*
X274885795Y-108702335D01*
X274881454Y-108696436D01*
X274840945Y-108662021D01*
X274833429Y-108655091D01*
X274827685Y-108649347D01*
X274824811Y-108647073D01*
X274824804Y-108647067D01*
X274805289Y-108631628D01*
X274801885Y-108628837D01*
X274751528Y-108586055D01*
X274751524Y-108586052D01*
X274745949Y-108581316D01*
X274739432Y-108577988D01*
X274734368Y-108574611D01*
X274729144Y-108571384D01*
X274723400Y-108566840D01*
X274676112Y-108544739D01*
X274656918Y-108535768D01*
X274652967Y-108533837D01*
X274594117Y-108503787D01*
X274587596Y-108500457D01*
X274580481Y-108498716D01*
X274574735Y-108496579D01*
X274568952Y-108494655D01*
X274562321Y-108491556D01*
X274490443Y-108476606D01*
X274486171Y-108475639D01*
X274414888Y-108458196D01*
X274409289Y-108457849D01*
X274409285Y-108457848D01*
X274403670Y-108457500D01*
X274403672Y-108457461D01*
X274399771Y-108457228D01*
X274395412Y-108456839D01*
X274388244Y-108455348D01*
X274380927Y-108455546D01*
X274310423Y-108457454D01*
X274307014Y-108457500D01*
X269269024Y-108457500D01*
X269200903Y-108437498D01*
X269154410Y-108383842D01*
X269144306Y-108313568D01*
X269147317Y-108298889D01*
X269182045Y-108169282D01*
X269182045Y-108169280D01*
X269183469Y-108163967D01*
X269202189Y-107950000D01*
X269183469Y-107736033D01*
X269147317Y-107601112D01*
X269129302Y-107533877D01*
X269129301Y-107533875D01*
X269127879Y-107528567D01*
X269125556Y-107523585D01*
X269039430Y-107338887D01*
X269039428Y-107338884D01*
X269037107Y-107333906D01*
X268913912Y-107157964D01*
X268762036Y-107006088D01*
X268757528Y-107002931D01*
X268757525Y-107002929D01*
X268590604Y-106886050D01*
X268590601Y-106886048D01*
X268586095Y-106882893D01*
X268581113Y-106880570D01*
X268581108Y-106880567D01*
X268396415Y-106794444D01*
X268396414Y-106794444D01*
X268391433Y-106792121D01*
X268362420Y-106784347D01*
X268329037Y-106775402D01*
X268268415Y-106738450D01*
X268237393Y-106674589D01*
X268245822Y-106604095D01*
X268291026Y-106549348D01*
X268321147Y-106534383D01*
X268368124Y-106518436D01*
X268445512Y-106492167D01*
X268445517Y-106492165D01*
X268450984Y-106490309D01*
X268494139Y-106466141D01*
X268634754Y-106387393D01*
X268634758Y-106387390D01*
X268639801Y-106384566D01*
X268806186Y-106246186D01*
X268944566Y-106079801D01*
X268947390Y-106074758D01*
X268947393Y-106074754D01*
X269047485Y-105896027D01*
X269047486Y-105896025D01*
X269050309Y-105890984D01*
X269052165Y-105885517D01*
X269052167Y-105885512D01*
X269118015Y-105691529D01*
X269118016Y-105691524D01*
X269119871Y-105686060D01*
X269120699Y-105680351D01*
X269120700Y-105680346D01*
X269148424Y-105489129D01*
X269150924Y-105471890D01*
X269152545Y-105410000D01*
X269132743Y-105194498D01*
X269127561Y-105176124D01*
X269075571Y-104991779D01*
X269075569Y-104991774D01*
X269074001Y-104986214D01*
X269040738Y-104918762D01*
X268980839Y-104797301D01*
X268978285Y-104792122D01*
X268858112Y-104631191D01*
X268852255Y-104623347D01*
X268852254Y-104623346D01*
X268848802Y-104618723D01*
X268738816Y-104517053D01*
X268694128Y-104475743D01*
X268694125Y-104475741D01*
X268689888Y-104471824D01*
X268559840Y-104389770D01*
X268511748Y-104359426D01*
X268511743Y-104359424D01*
X268506864Y-104356345D01*
X268305861Y-104276153D01*
X268093610Y-104233933D01*
X268087835Y-104233857D01*
X268087831Y-104233857D01*
X267979159Y-104232435D01*
X267877219Y-104231100D01*
X267871522Y-104232079D01*
X267871521Y-104232079D01*
X267854173Y-104235060D01*
X267663935Y-104267749D01*
X267460901Y-104342652D01*
X267455940Y-104345604D01*
X267455939Y-104345604D01*
X267279885Y-104450345D01*
X267279882Y-104450347D01*
X267274917Y-104453301D01*
X267270577Y-104457107D01*
X267270573Y-104457110D01*
X267149537Y-104563257D01*
X267112212Y-104595990D01*
X267108637Y-104600525D01*
X267104660Y-104604716D01*
X267103567Y-104603678D01*
X267051554Y-104640621D01*
X267010490Y-104647500D01*
X265472460Y-104647500D01*
X265404339Y-104627498D01*
X265366668Y-104589940D01*
X265322325Y-104521396D01*
X265322323Y-104521393D01*
X265319515Y-104517053D01*
X265299528Y-104495087D01*
X265161582Y-104343487D01*
X265161580Y-104343486D01*
X265158104Y-104339665D01*
X265154053Y-104336466D01*
X265154049Y-104336462D01*
X264992794Y-104209111D01*
X264969888Y-104191021D01*
X264759922Y-104075113D01*
X264575950Y-104009965D01*
X264538720Y-103996781D01*
X264538716Y-103996780D01*
X264533845Y-103995055D01*
X264528752Y-103994148D01*
X264528749Y-103994147D01*
X264302816Y-103953902D01*
X264302810Y-103953901D01*
X264297727Y-103952996D01*
X264210460Y-103951930D01*
X264063081Y-103950129D01*
X264063079Y-103950129D01*
X264057911Y-103950066D01*
X263820837Y-103986343D01*
X263592871Y-104060854D01*
X263588279Y-104063244D01*
X263588280Y-104063244D01*
X263478287Y-104120503D01*
X263380136Y-104171597D01*
X263376003Y-104174700D01*
X263376000Y-104174702D01*
X263204623Y-104303376D01*
X263188345Y-104315598D01*
X263184773Y-104319336D01*
X263050758Y-104459575D01*
X263022648Y-104488990D01*
X263019734Y-104493262D01*
X263019733Y-104493263D01*
X262936152Y-104615789D01*
X262887495Y-104687117D01*
X262851253Y-104765193D01*
X262794974Y-104886436D01*
X262786516Y-104904656D01*
X262759728Y-105001251D01*
X262727944Y-105115865D01*
X262722424Y-105135768D01*
X262696938Y-105374244D01*
X262697235Y-105379396D01*
X262697235Y-105379400D01*
X262698806Y-105406646D01*
X262710744Y-105613680D01*
X262711879Y-105618717D01*
X262711880Y-105618723D01*
X262758230Y-105824395D01*
X262763470Y-105847646D01*
X262807979Y-105957257D01*
X262847497Y-106054577D01*
X262853702Y-106069859D01*
X262979014Y-106274351D01*
X262982398Y-106278257D01*
X262982399Y-106278259D01*
X262994797Y-106292571D01*
X263136043Y-106455630D01*
X263291109Y-106584368D01*
X263330742Y-106643268D01*
X263332240Y-106714249D01*
X263295126Y-106774772D01*
X263286276Y-106782069D01*
X263283242Y-106784347D01*
X263193509Y-106851721D01*
X263188345Y-106855598D01*
X263151451Y-106894205D01*
X263040810Y-107009985D01*
X263022648Y-107028990D01*
X262952230Y-107132219D01*
X262952035Y-107132505D01*
X262897123Y-107177507D01*
X262852741Y-107186526D01*
X262852785Y-107187288D01*
X262849136Y-107187500D01*
X262845475Y-107187500D01*
X262841840Y-107187924D01*
X262841837Y-107187924D01*
X262828065Y-107189530D01*
X262817084Y-107190810D01*
X262812713Y-107191243D01*
X262801701Y-107192138D01*
X262746872Y-107196597D01*
X262746869Y-107196598D01*
X262739573Y-107197191D01*
X262732609Y-107199447D01*
X262726614Y-107200645D01*
X262720664Y-107202051D01*
X262713393Y-107202899D01*
X262644398Y-107227943D01*
X262640252Y-107229366D01*
X262577388Y-107249731D01*
X262577386Y-107249732D01*
X262570425Y-107251987D01*
X262564170Y-107255783D01*
X262558633Y-107258318D01*
X262553142Y-107261068D01*
X262546259Y-107263566D01*
X262540135Y-107267581D01*
X262484868Y-107303815D01*
X262481200Y-107306130D01*
X262418419Y-107344227D01*
X262414212Y-107347943D01*
X262414208Y-107347946D01*
X262409995Y-107351668D01*
X262409969Y-107351638D01*
X262407041Y-107354236D01*
X262403687Y-107357040D01*
X262397565Y-107361054D01*
X262392532Y-107366367D01*
X262344013Y-107417585D01*
X262341635Y-107420027D01*
X261772794Y-107988868D01*
X261710482Y-108022894D01*
X261639667Y-108017829D01*
X261582831Y-107975282D01*
X261558178Y-107910755D01*
X261548513Y-107800289D01*
X261543204Y-107739606D01*
X261541780Y-107734291D01*
X261489965Y-107540915D01*
X261489964Y-107540913D01*
X261488542Y-107535605D01*
X261482937Y-107523585D01*
X261401609Y-107349176D01*
X261401607Y-107349173D01*
X261399286Y-107344195D01*
X261278148Y-107171191D01*
X261128809Y-107021852D01*
X261124301Y-107018695D01*
X261124298Y-107018693D01*
X260960315Y-106903871D01*
X260960312Y-106903869D01*
X260955806Y-106900714D01*
X260950824Y-106898391D01*
X260950819Y-106898388D01*
X260769377Y-106813781D01*
X260769376Y-106813781D01*
X260764395Y-106811458D01*
X260759087Y-106810036D01*
X260759085Y-106810035D01*
X260728004Y-106801707D01*
X260667381Y-106764755D01*
X260636360Y-106700894D01*
X260644788Y-106630400D01*
X260689991Y-106575653D01*
X260728004Y-106558293D01*
X260759085Y-106549965D01*
X260759087Y-106549964D01*
X260764395Y-106548542D01*
X260778916Y-106541771D01*
X260950819Y-106461612D01*
X260950824Y-106461609D01*
X260955806Y-106459286D01*
X260960315Y-106456129D01*
X261124298Y-106341307D01*
X261124301Y-106341305D01*
X261128809Y-106338148D01*
X261278148Y-106188809D01*
X261399286Y-106015805D01*
X261408630Y-105995768D01*
X261486219Y-105829377D01*
X261486220Y-105829376D01*
X261488542Y-105824395D01*
X261492403Y-105809988D01*
X261541780Y-105625709D01*
X261541781Y-105625706D01*
X261543204Y-105620394D01*
X261561611Y-105410000D01*
X261543204Y-105199606D01*
X261541780Y-105194291D01*
X261489965Y-105000915D01*
X261489964Y-105000913D01*
X261488542Y-104995605D01*
X261484163Y-104986214D01*
X261401609Y-104809176D01*
X261401607Y-104809173D01*
X261399286Y-104804195D01*
X261278148Y-104631191D01*
X261128809Y-104481852D01*
X261124301Y-104478695D01*
X261124298Y-104478693D01*
X260960315Y-104363871D01*
X260960312Y-104363869D01*
X260955806Y-104360714D01*
X260950824Y-104358391D01*
X260950819Y-104358388D01*
X260769377Y-104273781D01*
X260769376Y-104273781D01*
X260764395Y-104271458D01*
X260759087Y-104270036D01*
X260759085Y-104270035D01*
X260728004Y-104261707D01*
X260667381Y-104224755D01*
X260636360Y-104160894D01*
X260644788Y-104090400D01*
X260689991Y-104035653D01*
X260728004Y-104018293D01*
X260759085Y-104009965D01*
X260759087Y-104009964D01*
X260764395Y-104008542D01*
X260793318Y-103995055D01*
X260950819Y-103921612D01*
X260950824Y-103921609D01*
X260955806Y-103919286D01*
X261038953Y-103861066D01*
X261124298Y-103801307D01*
X261124301Y-103801305D01*
X261128809Y-103798148D01*
X261278148Y-103648809D01*
X261399286Y-103475805D01*
X261424050Y-103422700D01*
X261486219Y-103289377D01*
X261486220Y-103289376D01*
X261488542Y-103284395D01*
X261530676Y-103127151D01*
X261541780Y-103085709D01*
X261541780Y-103085707D01*
X261543204Y-103080394D01*
X261561611Y-102870000D01*
X261543204Y-102659606D01*
X261488542Y-102455605D01*
X261449431Y-102371731D01*
X261401609Y-102269176D01*
X261401607Y-102269173D01*
X261399286Y-102264195D01*
X261278148Y-102091191D01*
X261128809Y-101941852D01*
X261124301Y-101938695D01*
X261124298Y-101938693D01*
X260960315Y-101823871D01*
X260960312Y-101823869D01*
X260955806Y-101820714D01*
X260950824Y-101818391D01*
X260950819Y-101818388D01*
X260769377Y-101733781D01*
X260769376Y-101733781D01*
X260764395Y-101731458D01*
X260759087Y-101730036D01*
X260759085Y-101730035D01*
X260728004Y-101721707D01*
X260667381Y-101684755D01*
X260636360Y-101620894D01*
X260644788Y-101550400D01*
X260689991Y-101495653D01*
X260728004Y-101478293D01*
X260759085Y-101469965D01*
X260759087Y-101469964D01*
X260764395Y-101468542D01*
X260773351Y-101464366D01*
X260950819Y-101381612D01*
X260950824Y-101381609D01*
X260955806Y-101379286D01*
X260989723Y-101355537D01*
X261124298Y-101261307D01*
X261124301Y-101261305D01*
X261128809Y-101258148D01*
X261278148Y-101108809D01*
X261399286Y-100935805D01*
X261402645Y-100928603D01*
X261486219Y-100749377D01*
X261486220Y-100749376D01*
X261488542Y-100744395D01*
X261538983Y-100556149D01*
X261541780Y-100545709D01*
X261541780Y-100545707D01*
X261543204Y-100540394D01*
X261561611Y-100330000D01*
X262846502Y-100330000D01*
X262866457Y-100558087D01*
X262867881Y-100563400D01*
X262867881Y-100563402D01*
X262914956Y-100739085D01*
X262925716Y-100779243D01*
X262928039Y-100784224D01*
X262928039Y-100784225D01*
X263020151Y-100981762D01*
X263020154Y-100981767D01*
X263022477Y-100986749D01*
X263047752Y-101022845D01*
X263134137Y-101146215D01*
X263153802Y-101174300D01*
X263315700Y-101336198D01*
X263320208Y-101339355D01*
X263320211Y-101339357D01*
X263395052Y-101391761D01*
X263503251Y-101467523D01*
X263508233Y-101469846D01*
X263508238Y-101469849D01*
X263703311Y-101560812D01*
X263710757Y-101564284D01*
X263716065Y-101565706D01*
X263716067Y-101565707D01*
X263926598Y-101622119D01*
X263926600Y-101622119D01*
X263931913Y-101623543D01*
X264160000Y-101643498D01*
X264388087Y-101623543D01*
X264393400Y-101622119D01*
X264393402Y-101622119D01*
X264603933Y-101565707D01*
X264603935Y-101565706D01*
X264609243Y-101564284D01*
X264616689Y-101560812D01*
X264811762Y-101469849D01*
X264811767Y-101469846D01*
X264816749Y-101467523D01*
X264890243Y-101416062D01*
X268438493Y-101416062D01*
X268447789Y-101428077D01*
X268498994Y-101463931D01*
X268508489Y-101469414D01*
X268705947Y-101561490D01*
X268716239Y-101565236D01*
X268926688Y-101621625D01*
X268937481Y-101623528D01*
X269154525Y-101642517D01*
X269165475Y-101642517D01*
X269382519Y-101623528D01*
X269393312Y-101621625D01*
X269603761Y-101565236D01*
X269614053Y-101561490D01*
X269811511Y-101469414D01*
X269821006Y-101463931D01*
X269873048Y-101427491D01*
X269881424Y-101417012D01*
X269874356Y-101403566D01*
X269172812Y-100702022D01*
X269158868Y-100694408D01*
X269157035Y-100694539D01*
X269150420Y-100698790D01*
X268444923Y-101404287D01*
X268438493Y-101416062D01*
X264890243Y-101416062D01*
X264924948Y-101391761D01*
X264999789Y-101339357D01*
X264999792Y-101339355D01*
X265004300Y-101336198D01*
X265166198Y-101174300D01*
X265185864Y-101146215D01*
X265272248Y-101022845D01*
X265297523Y-100986749D01*
X265299846Y-100981767D01*
X265299849Y-100981762D01*
X265391961Y-100784225D01*
X265391961Y-100784224D01*
X265394284Y-100779243D01*
X265405045Y-100739085D01*
X265452119Y-100563402D01*
X265452119Y-100563400D01*
X265453543Y-100558087D01*
X265473019Y-100335475D01*
X267847483Y-100335475D01*
X267866472Y-100552519D01*
X267868375Y-100563312D01*
X267924764Y-100773761D01*
X267928510Y-100784053D01*
X268020586Y-100981511D01*
X268026069Y-100991006D01*
X268062509Y-101043048D01*
X268072988Y-101051424D01*
X268086434Y-101044356D01*
X268787978Y-100342812D01*
X268794356Y-100331132D01*
X269524408Y-100331132D01*
X269524539Y-100332965D01*
X269528790Y-100339580D01*
X270234287Y-101045077D01*
X270246062Y-101051507D01*
X270258077Y-101042211D01*
X270293931Y-100991006D01*
X270299414Y-100981511D01*
X270391490Y-100784053D01*
X270395236Y-100773761D01*
X270451625Y-100563312D01*
X270453528Y-100552519D01*
X270472517Y-100335475D01*
X270472517Y-100330000D01*
X276943502Y-100330000D01*
X276963457Y-100558087D01*
X276964881Y-100563400D01*
X276964881Y-100563402D01*
X277011956Y-100739085D01*
X277022716Y-100779243D01*
X277025039Y-100784224D01*
X277025039Y-100784225D01*
X277117151Y-100981762D01*
X277117154Y-100981767D01*
X277119477Y-100986749D01*
X277144752Y-101022845D01*
X277231137Y-101146215D01*
X277250802Y-101174300D01*
X277412700Y-101336198D01*
X277417208Y-101339355D01*
X277417211Y-101339357D01*
X277492052Y-101391761D01*
X277600251Y-101467523D01*
X277605233Y-101469846D01*
X277605238Y-101469849D01*
X277800311Y-101560812D01*
X277807757Y-101564284D01*
X277813065Y-101565706D01*
X277813067Y-101565707D01*
X278023598Y-101622119D01*
X278023600Y-101622119D01*
X278028913Y-101623543D01*
X278257000Y-101643498D01*
X278485087Y-101623543D01*
X278490400Y-101622119D01*
X278490402Y-101622119D01*
X278700933Y-101565707D01*
X278700935Y-101565706D01*
X278706243Y-101564284D01*
X278713689Y-101560812D01*
X278908762Y-101469849D01*
X278908767Y-101469846D01*
X278913749Y-101467523D01*
X278987243Y-101416062D01*
X282535493Y-101416062D01*
X282544789Y-101428077D01*
X282595994Y-101463931D01*
X282605489Y-101469414D01*
X282802947Y-101561490D01*
X282813239Y-101565236D01*
X283023688Y-101621625D01*
X283034481Y-101623528D01*
X283251525Y-101642517D01*
X283262475Y-101642517D01*
X283479519Y-101623528D01*
X283490312Y-101621625D01*
X283700761Y-101565236D01*
X283711053Y-101561490D01*
X283908511Y-101469414D01*
X283918006Y-101463931D01*
X283970048Y-101427491D01*
X283978424Y-101417012D01*
X283971356Y-101403566D01*
X283269812Y-100702022D01*
X283255868Y-100694408D01*
X283254035Y-100694539D01*
X283247420Y-100698790D01*
X282541923Y-101404287D01*
X282535493Y-101416062D01*
X278987243Y-101416062D01*
X279021948Y-101391761D01*
X279096789Y-101339357D01*
X279096792Y-101339355D01*
X279101300Y-101336198D01*
X279263198Y-101174300D01*
X279282864Y-101146215D01*
X279369248Y-101022845D01*
X279394523Y-100986749D01*
X279396846Y-100981767D01*
X279396849Y-100981762D01*
X279488961Y-100784225D01*
X279488961Y-100784224D01*
X279491284Y-100779243D01*
X279502045Y-100739085D01*
X279549119Y-100563402D01*
X279549119Y-100563400D01*
X279550543Y-100558087D01*
X279570019Y-100335475D01*
X281944483Y-100335475D01*
X281963472Y-100552519D01*
X281965375Y-100563312D01*
X282021764Y-100773761D01*
X282025510Y-100784053D01*
X282117586Y-100981511D01*
X282123069Y-100991006D01*
X282159509Y-101043048D01*
X282169988Y-101051424D01*
X282183434Y-101044356D01*
X282884978Y-100342812D01*
X282891356Y-100331132D01*
X283621408Y-100331132D01*
X283621539Y-100332965D01*
X283625790Y-100339580D01*
X284331287Y-101045077D01*
X284343062Y-101051507D01*
X284355077Y-101042211D01*
X284390931Y-100991006D01*
X284396414Y-100981511D01*
X284488490Y-100784053D01*
X284492236Y-100773761D01*
X284548625Y-100563312D01*
X284550528Y-100552519D01*
X284569517Y-100335475D01*
X284569517Y-100324525D01*
X284550528Y-100107481D01*
X284548625Y-100096688D01*
X284492236Y-99886239D01*
X284488490Y-99875947D01*
X284396414Y-99678489D01*
X284390931Y-99668994D01*
X284354491Y-99616952D01*
X284344012Y-99608576D01*
X284330566Y-99615644D01*
X283629022Y-100317188D01*
X283621408Y-100331132D01*
X282891356Y-100331132D01*
X282892592Y-100328868D01*
X282892461Y-100327035D01*
X282888210Y-100320420D01*
X282182713Y-99614923D01*
X282170938Y-99608493D01*
X282158923Y-99617789D01*
X282123069Y-99668994D01*
X282117586Y-99678489D01*
X282025510Y-99875947D01*
X282021764Y-99886239D01*
X281965375Y-100096688D01*
X281963472Y-100107481D01*
X281944483Y-100324525D01*
X281944483Y-100335475D01*
X279570019Y-100335475D01*
X279570498Y-100330000D01*
X279550543Y-100101913D01*
X279520156Y-99988507D01*
X279492707Y-99886067D01*
X279492706Y-99886065D01*
X279491284Y-99880757D01*
X279488961Y-99875775D01*
X279396849Y-99678238D01*
X279396846Y-99678233D01*
X279394523Y-99673251D01*
X279312215Y-99555703D01*
X279266357Y-99490211D01*
X279266355Y-99490208D01*
X279263198Y-99485700D01*
X279101300Y-99323802D01*
X279096792Y-99320645D01*
X279096789Y-99320643D01*
X278985886Y-99242988D01*
X282535576Y-99242988D01*
X282542644Y-99256434D01*
X283244188Y-99957978D01*
X283258132Y-99965592D01*
X283259965Y-99965461D01*
X283266580Y-99961210D01*
X283972077Y-99255713D01*
X283978507Y-99243938D01*
X283969211Y-99231923D01*
X283918006Y-99196069D01*
X283908511Y-99190586D01*
X283711053Y-99098510D01*
X283700761Y-99094764D01*
X283490312Y-99038375D01*
X283479519Y-99036472D01*
X283262475Y-99017483D01*
X283251525Y-99017483D01*
X283034481Y-99036472D01*
X283023688Y-99038375D01*
X282813239Y-99094764D01*
X282802947Y-99098510D01*
X282605489Y-99190586D01*
X282595994Y-99196069D01*
X282543952Y-99232509D01*
X282535576Y-99242988D01*
X278985886Y-99242988D01*
X278970920Y-99232509D01*
X278913749Y-99192477D01*
X278908767Y-99190154D01*
X278908762Y-99190151D01*
X278711225Y-99098039D01*
X278711224Y-99098039D01*
X278706243Y-99095716D01*
X278700935Y-99094294D01*
X278700933Y-99094293D01*
X278490402Y-99037881D01*
X278490400Y-99037881D01*
X278485087Y-99036457D01*
X278257000Y-99016502D01*
X278028913Y-99036457D01*
X278023600Y-99037881D01*
X278023598Y-99037881D01*
X277813067Y-99094293D01*
X277813065Y-99094294D01*
X277807757Y-99095716D01*
X277802776Y-99098039D01*
X277802775Y-99098039D01*
X277605238Y-99190151D01*
X277605233Y-99190154D01*
X277600251Y-99192477D01*
X277543080Y-99232509D01*
X277417211Y-99320643D01*
X277417208Y-99320645D01*
X277412700Y-99323802D01*
X277250802Y-99485700D01*
X277247645Y-99490208D01*
X277247643Y-99490211D01*
X277201785Y-99555703D01*
X277119477Y-99673251D01*
X277117154Y-99678233D01*
X277117151Y-99678238D01*
X277025039Y-99875775D01*
X277022716Y-99880757D01*
X277021294Y-99886065D01*
X277021293Y-99886067D01*
X276993844Y-99988507D01*
X276963457Y-100101913D01*
X276943502Y-100330000D01*
X270472517Y-100330000D01*
X270472517Y-100324525D01*
X270453528Y-100107481D01*
X270451625Y-100096688D01*
X270395236Y-99886239D01*
X270391490Y-99875947D01*
X270299414Y-99678489D01*
X270293931Y-99668994D01*
X270257491Y-99616952D01*
X270247012Y-99608576D01*
X270233566Y-99615644D01*
X269532022Y-100317188D01*
X269524408Y-100331132D01*
X268794356Y-100331132D01*
X268795592Y-100328868D01*
X268795461Y-100327035D01*
X268791210Y-100320420D01*
X268085713Y-99614923D01*
X268073938Y-99608493D01*
X268061923Y-99617789D01*
X268026069Y-99668994D01*
X268020586Y-99678489D01*
X267928510Y-99875947D01*
X267924764Y-99886239D01*
X267868375Y-100096688D01*
X267866472Y-100107481D01*
X267847483Y-100324525D01*
X267847483Y-100335475D01*
X265473019Y-100335475D01*
X265473498Y-100330000D01*
X265453543Y-100101913D01*
X265423156Y-99988507D01*
X265395707Y-99886067D01*
X265395706Y-99886065D01*
X265394284Y-99880757D01*
X265391961Y-99875775D01*
X265299849Y-99678238D01*
X265299846Y-99678233D01*
X265297523Y-99673251D01*
X265215215Y-99555703D01*
X265169357Y-99490211D01*
X265169355Y-99490208D01*
X265166198Y-99485700D01*
X265004300Y-99323802D01*
X264999792Y-99320645D01*
X264999789Y-99320643D01*
X264888886Y-99242988D01*
X268438576Y-99242988D01*
X268445644Y-99256434D01*
X269147188Y-99957978D01*
X269161132Y-99965592D01*
X269162965Y-99965461D01*
X269169580Y-99961210D01*
X269875077Y-99255713D01*
X269881507Y-99243938D01*
X269872211Y-99231923D01*
X269821006Y-99196069D01*
X269811511Y-99190586D01*
X269614053Y-99098510D01*
X269603761Y-99094764D01*
X269393312Y-99038375D01*
X269382519Y-99036472D01*
X269165475Y-99017483D01*
X269154525Y-99017483D01*
X268937481Y-99036472D01*
X268926688Y-99038375D01*
X268716239Y-99094764D01*
X268705947Y-99098510D01*
X268508489Y-99190586D01*
X268498994Y-99196069D01*
X268446952Y-99232509D01*
X268438576Y-99242988D01*
X264888886Y-99242988D01*
X264873920Y-99232509D01*
X264816749Y-99192477D01*
X264811767Y-99190154D01*
X264811762Y-99190151D01*
X264614225Y-99098039D01*
X264614224Y-99098039D01*
X264609243Y-99095716D01*
X264603935Y-99094294D01*
X264603933Y-99094293D01*
X264393402Y-99037881D01*
X264393400Y-99037881D01*
X264388087Y-99036457D01*
X264160000Y-99016502D01*
X263931913Y-99036457D01*
X263926600Y-99037881D01*
X263926598Y-99037881D01*
X263716067Y-99094293D01*
X263716065Y-99094294D01*
X263710757Y-99095716D01*
X263705776Y-99098039D01*
X263705775Y-99098039D01*
X263508238Y-99190151D01*
X263508233Y-99190154D01*
X263503251Y-99192477D01*
X263446080Y-99232509D01*
X263320211Y-99320643D01*
X263320208Y-99320645D01*
X263315700Y-99323802D01*
X263153802Y-99485700D01*
X263150645Y-99490208D01*
X263150643Y-99490211D01*
X263104785Y-99555703D01*
X263022477Y-99673251D01*
X263020154Y-99678233D01*
X263020151Y-99678238D01*
X262928039Y-99875775D01*
X262925716Y-99880757D01*
X262924294Y-99886065D01*
X262924293Y-99886067D01*
X262896844Y-99988507D01*
X262866457Y-100101913D01*
X262846502Y-100330000D01*
X261561611Y-100330000D01*
X261543204Y-100119606D01*
X261522765Y-100043327D01*
X261489965Y-99920915D01*
X261489964Y-99920913D01*
X261488542Y-99915605D01*
X261486219Y-99910623D01*
X261401609Y-99729176D01*
X261401607Y-99729173D01*
X261399286Y-99724195D01*
X261278148Y-99551191D01*
X261128809Y-99401852D01*
X261124301Y-99398695D01*
X261124298Y-99398693D01*
X260960315Y-99283871D01*
X260960312Y-99283869D01*
X260955806Y-99280714D01*
X260950824Y-99278391D01*
X260950819Y-99278388D01*
X260769377Y-99193781D01*
X260769376Y-99193781D01*
X260764395Y-99191458D01*
X260759087Y-99190036D01*
X260759085Y-99190035D01*
X260565709Y-99138220D01*
X260565707Y-99138220D01*
X260560394Y-99136796D01*
X260350000Y-99118389D01*
X260139606Y-99136796D01*
X260134293Y-99138220D01*
X260134291Y-99138220D01*
X259940915Y-99190035D01*
X259940913Y-99190036D01*
X259935605Y-99191458D01*
X259930624Y-99193780D01*
X259930623Y-99193781D01*
X259749176Y-99278391D01*
X259749173Y-99278393D01*
X259744195Y-99280714D01*
X259571191Y-99401852D01*
X259421852Y-99551191D01*
X259300714Y-99724195D01*
X259298393Y-99729173D01*
X259298391Y-99729176D01*
X259213781Y-99910623D01*
X259211458Y-99915605D01*
X259210036Y-99920913D01*
X259210035Y-99920915D01*
X259177235Y-100043327D01*
X259156796Y-100119606D01*
X259138389Y-100330000D01*
X259156796Y-100540394D01*
X259158220Y-100545707D01*
X259158220Y-100545709D01*
X259161018Y-100556149D01*
X259211458Y-100744395D01*
X259213780Y-100749376D01*
X259213781Y-100749377D01*
X259297356Y-100928603D01*
X259300714Y-100935805D01*
X259421852Y-101108809D01*
X259571191Y-101258148D01*
X259575699Y-101261305D01*
X259575702Y-101261307D01*
X259710277Y-101355537D01*
X259744194Y-101379286D01*
X259749176Y-101381609D01*
X259749181Y-101381612D01*
X259926649Y-101464366D01*
X259935605Y-101468542D01*
X259940913Y-101469964D01*
X259940915Y-101469965D01*
X259971996Y-101478293D01*
X260032619Y-101515245D01*
X260063640Y-101579106D01*
X260055212Y-101649600D01*
X260010009Y-101704347D01*
X259971996Y-101721707D01*
X259940915Y-101730035D01*
X259940913Y-101730036D01*
X259935605Y-101731458D01*
X259930624Y-101733780D01*
X259930623Y-101733781D01*
X259749176Y-101818391D01*
X259749173Y-101818393D01*
X259744195Y-101820714D01*
X259571191Y-101941852D01*
X259421852Y-102091191D01*
X259300714Y-102264195D01*
X259298393Y-102269173D01*
X259298391Y-102269176D01*
X259250569Y-102371731D01*
X259211458Y-102455605D01*
X259156796Y-102659606D01*
X259138389Y-102870000D01*
X259156796Y-103080394D01*
X259158220Y-103085707D01*
X259158220Y-103085709D01*
X259169325Y-103127151D01*
X259211458Y-103284395D01*
X259213780Y-103289376D01*
X259213781Y-103289377D01*
X259275951Y-103422700D01*
X259300714Y-103475805D01*
X259421852Y-103648809D01*
X259571191Y-103798148D01*
X259575699Y-103801305D01*
X259575702Y-103801307D01*
X259661047Y-103861066D01*
X259744194Y-103919286D01*
X259749176Y-103921609D01*
X259749181Y-103921612D01*
X259906682Y-103995055D01*
X259935605Y-104008542D01*
X259940913Y-104009964D01*
X259940915Y-104009965D01*
X259971996Y-104018293D01*
X260032619Y-104055245D01*
X260063640Y-104119106D01*
X260055212Y-104189600D01*
X260010009Y-104244347D01*
X259971996Y-104261707D01*
X259940915Y-104270035D01*
X259940913Y-104270036D01*
X259935605Y-104271458D01*
X259930624Y-104273780D01*
X259930623Y-104273781D01*
X259749176Y-104358391D01*
X259749173Y-104358393D01*
X259744195Y-104360714D01*
X259571191Y-104481852D01*
X259421852Y-104631191D01*
X259300714Y-104804195D01*
X259298393Y-104809173D01*
X259298391Y-104809176D01*
X259215837Y-104986214D01*
X259211458Y-104995605D01*
X259210036Y-105000913D01*
X259210035Y-105000915D01*
X259158220Y-105194291D01*
X259156796Y-105199606D01*
X259138389Y-105410000D01*
X259156796Y-105620394D01*
X259158219Y-105625706D01*
X259158220Y-105625709D01*
X259207598Y-105809988D01*
X259211458Y-105824395D01*
X259213780Y-105829376D01*
X259213781Y-105829377D01*
X259291371Y-105995768D01*
X259300714Y-106015805D01*
X259421852Y-106188809D01*
X259571191Y-106338148D01*
X259575699Y-106341305D01*
X259575702Y-106341307D01*
X259739685Y-106456129D01*
X259744194Y-106459286D01*
X259749176Y-106461609D01*
X259749181Y-106461612D01*
X259921084Y-106541771D01*
X259935605Y-106548542D01*
X259940913Y-106549964D01*
X259940915Y-106549965D01*
X259971996Y-106558293D01*
X260032619Y-106595245D01*
X260063640Y-106659106D01*
X260055212Y-106729600D01*
X260010009Y-106784347D01*
X259971996Y-106801707D01*
X259940915Y-106810035D01*
X259940913Y-106810036D01*
X259935605Y-106811458D01*
X259930624Y-106813780D01*
X259930623Y-106813781D01*
X259749176Y-106898391D01*
X259749173Y-106898393D01*
X259744195Y-106900714D01*
X259571191Y-107021852D01*
X259442448Y-107150595D01*
X259380136Y-107184621D01*
X259353353Y-107187500D01*
X253098027Y-107187500D01*
X253029906Y-107167498D01*
X253008936Y-107150599D01*
X252046803Y-106188465D01*
X252034423Y-106174059D01*
X252025795Y-106162335D01*
X252021454Y-106156436D01*
X251980945Y-106122021D01*
X251973429Y-106115091D01*
X251967685Y-106109347D01*
X251964811Y-106107073D01*
X251964804Y-106107067D01*
X251945289Y-106091628D01*
X251941885Y-106088837D01*
X251891528Y-106046055D01*
X251891524Y-106046052D01*
X251885949Y-106041316D01*
X251879432Y-106037988D01*
X251874368Y-106034611D01*
X251869144Y-106031384D01*
X251863400Y-106026840D01*
X251829132Y-106010824D01*
X251796918Y-105995768D01*
X251792967Y-105993837D01*
X251734117Y-105963787D01*
X251727596Y-105960457D01*
X251720481Y-105958716D01*
X251714735Y-105956579D01*
X251708952Y-105954655D01*
X251702321Y-105951556D01*
X251630443Y-105936606D01*
X251626171Y-105935639D01*
X251554888Y-105918196D01*
X251549289Y-105917849D01*
X251549285Y-105917848D01*
X251543670Y-105917500D01*
X251543672Y-105917461D01*
X251539771Y-105917228D01*
X251535412Y-105916839D01*
X251528244Y-105915348D01*
X251520927Y-105915546D01*
X251450423Y-105917454D01*
X251447014Y-105917500D01*
X246387801Y-105917500D01*
X246319680Y-105897498D01*
X246273187Y-105843842D01*
X246263083Y-105773568D01*
X246266092Y-105758897D01*
X246303204Y-105620394D01*
X246321611Y-105410000D01*
X246303204Y-105199606D01*
X246301780Y-105194291D01*
X246249965Y-105000915D01*
X246249964Y-105000913D01*
X246248542Y-104995605D01*
X246244163Y-104986214D01*
X246161609Y-104809176D01*
X246161607Y-104809173D01*
X246159286Y-104804195D01*
X246038148Y-104631191D01*
X245888809Y-104481852D01*
X245884301Y-104478695D01*
X245884298Y-104478693D01*
X245720315Y-104363871D01*
X245720312Y-104363869D01*
X245715806Y-104360714D01*
X245710824Y-104358391D01*
X245710819Y-104358388D01*
X245529377Y-104273781D01*
X245529376Y-104273781D01*
X245524395Y-104271458D01*
X245519087Y-104270036D01*
X245519085Y-104270035D01*
X245488004Y-104261707D01*
X245427381Y-104224755D01*
X245396360Y-104160894D01*
X245404788Y-104090400D01*
X245449991Y-104035653D01*
X245488004Y-104018293D01*
X245519085Y-104009965D01*
X245519087Y-104009964D01*
X245524395Y-104008542D01*
X245553318Y-103995055D01*
X245710819Y-103921612D01*
X245710824Y-103921609D01*
X245715806Y-103919286D01*
X245798953Y-103861066D01*
X245884298Y-103801307D01*
X245884301Y-103801305D01*
X245888809Y-103798148D01*
X246038148Y-103648809D01*
X246159286Y-103475805D01*
X246184050Y-103422700D01*
X246246219Y-103289377D01*
X246246220Y-103289376D01*
X246248542Y-103284395D01*
X246290676Y-103127151D01*
X246301780Y-103085709D01*
X246301780Y-103085707D01*
X246303204Y-103080394D01*
X246321611Y-102870000D01*
X246303204Y-102659606D01*
X246248542Y-102455605D01*
X246209431Y-102371731D01*
X246161609Y-102269176D01*
X246161607Y-102269173D01*
X246159286Y-102264195D01*
X246038148Y-102091191D01*
X245888809Y-101941852D01*
X245884301Y-101938695D01*
X245884298Y-101938693D01*
X245720315Y-101823871D01*
X245720312Y-101823869D01*
X245715806Y-101820714D01*
X245710824Y-101818391D01*
X245710819Y-101818388D01*
X245622479Y-101777195D01*
X245569194Y-101730278D01*
X245549733Y-101662001D01*
X245570275Y-101594041D01*
X245624298Y-101547975D01*
X245675729Y-101537000D01*
X245856634Y-101537000D01*
X245918816Y-101530245D01*
X246055205Y-101479115D01*
X246171761Y-101391761D01*
X246259115Y-101275205D01*
X246310245Y-101138816D01*
X246317000Y-101076634D01*
X246317000Y-99583366D01*
X246310245Y-99521184D01*
X246259115Y-99384795D01*
X246171761Y-99268239D01*
X246055205Y-99180885D01*
X245918816Y-99129755D01*
X245856634Y-99123000D01*
X244363366Y-99123000D01*
X244301184Y-99129755D01*
X244164795Y-99180885D01*
X244048239Y-99268239D01*
X243960885Y-99384795D01*
X243909755Y-99521184D01*
X243903000Y-99583366D01*
X243903000Y-101076634D01*
X243909755Y-101138816D01*
X243960885Y-101275205D01*
X244048239Y-101391761D01*
X244164795Y-101479115D01*
X244301184Y-101530245D01*
X244363366Y-101537000D01*
X244544272Y-101537000D01*
X244612393Y-101557002D01*
X244658886Y-101610658D01*
X244668990Y-101680932D01*
X244639496Y-101745512D01*
X244597522Y-101777195D01*
X244509176Y-101818391D01*
X244509173Y-101818393D01*
X244504195Y-101820714D01*
X244331191Y-101941852D01*
X244181852Y-102091191D01*
X244060714Y-102264195D01*
X244058393Y-102269173D01*
X244058391Y-102269176D01*
X244010569Y-102371731D01*
X243971458Y-102455605D01*
X243916796Y-102659606D01*
X243916317Y-102665086D01*
X243901822Y-102830755D01*
X243875958Y-102896873D01*
X243818455Y-102938513D01*
X243747567Y-102942453D01*
X243687206Y-102908868D01*
X243156810Y-102378472D01*
X243144423Y-102364059D01*
X243135795Y-102352335D01*
X243131454Y-102346436D01*
X243090945Y-102312021D01*
X243083429Y-102305091D01*
X243077685Y-102299347D01*
X243074811Y-102297073D01*
X243074804Y-102297067D01*
X243055289Y-102281628D01*
X243051885Y-102278837D01*
X243001528Y-102236055D01*
X243001524Y-102236052D01*
X242995949Y-102231316D01*
X242989432Y-102227988D01*
X242984368Y-102224611D01*
X242979144Y-102221384D01*
X242973400Y-102216840D01*
X242947109Y-102204552D01*
X242906918Y-102185768D01*
X242902967Y-102183837D01*
X242844117Y-102153787D01*
X242837596Y-102150457D01*
X242830481Y-102148716D01*
X242824735Y-102146579D01*
X242818952Y-102144655D01*
X242812321Y-102141556D01*
X242740443Y-102126606D01*
X242736171Y-102125639D01*
X242664888Y-102108196D01*
X242659289Y-102107849D01*
X242659285Y-102107848D01*
X242653670Y-102107500D01*
X242653672Y-102107461D01*
X242649771Y-102107228D01*
X242645412Y-102106839D01*
X242638244Y-102105348D01*
X242630927Y-102105546D01*
X242560423Y-102107454D01*
X242557014Y-102107500D01*
X242296647Y-102107500D01*
X242228526Y-102087498D01*
X242207552Y-102070595D01*
X242078809Y-101941852D01*
X242074301Y-101938695D01*
X242074298Y-101938693D01*
X241910315Y-101823871D01*
X241910312Y-101823869D01*
X241905806Y-101820714D01*
X241900824Y-101818391D01*
X241900819Y-101818388D01*
X241719377Y-101733781D01*
X241719376Y-101733781D01*
X241714395Y-101731458D01*
X241709087Y-101730036D01*
X241709085Y-101730035D01*
X241678004Y-101721707D01*
X241617381Y-101684755D01*
X241586360Y-101620894D01*
X241594788Y-101550400D01*
X241639991Y-101495653D01*
X241678004Y-101478293D01*
X241709085Y-101469965D01*
X241709087Y-101469964D01*
X241714395Y-101468542D01*
X241723351Y-101464366D01*
X241900819Y-101381612D01*
X241900824Y-101381609D01*
X241905806Y-101379286D01*
X241939723Y-101355537D01*
X242074298Y-101261307D01*
X242074301Y-101261305D01*
X242078809Y-101258148D01*
X242228148Y-101108809D01*
X242349286Y-100935805D01*
X242352645Y-100928603D01*
X242436219Y-100749377D01*
X242436220Y-100749376D01*
X242438542Y-100744395D01*
X242488983Y-100556149D01*
X242491780Y-100545709D01*
X242491780Y-100545707D01*
X242493204Y-100540394D01*
X242511611Y-100330000D01*
X242493204Y-100119606D01*
X242472765Y-100043327D01*
X242439965Y-99920915D01*
X242439964Y-99920913D01*
X242438542Y-99915605D01*
X242436219Y-99910623D01*
X242351609Y-99729176D01*
X242351607Y-99729173D01*
X242349286Y-99724195D01*
X242228148Y-99551191D01*
X242078809Y-99401852D01*
X242074301Y-99398695D01*
X242074298Y-99398693D01*
X241910315Y-99283871D01*
X241910312Y-99283869D01*
X241905806Y-99280714D01*
X241900824Y-99278391D01*
X241900819Y-99278388D01*
X241719377Y-99193781D01*
X241719376Y-99193781D01*
X241714395Y-99191458D01*
X241709087Y-99190036D01*
X241709085Y-99190035D01*
X241515709Y-99138220D01*
X241515707Y-99138220D01*
X241510394Y-99136796D01*
X241300000Y-99118389D01*
X241089606Y-99136796D01*
X241084293Y-99138220D01*
X241084291Y-99138220D01*
X240890915Y-99190035D01*
X240890913Y-99190036D01*
X240885605Y-99191458D01*
X240880624Y-99193780D01*
X240880623Y-99193781D01*
X240699176Y-99278391D01*
X240699173Y-99278393D01*
X240694195Y-99280714D01*
X240521191Y-99401852D01*
X240392448Y-99530595D01*
X240330136Y-99564621D01*
X240303353Y-99567500D01*
X240097368Y-99567500D01*
X240078420Y-99566067D01*
X240071033Y-99564943D01*
X240064024Y-99563877D01*
X240064022Y-99563877D01*
X240056792Y-99562777D01*
X240049500Y-99563370D01*
X240049497Y-99563370D01*
X240003825Y-99567085D01*
X239993611Y-99567500D01*
X239985475Y-99567500D01*
X239981840Y-99567924D01*
X239981837Y-99567924D01*
X239968065Y-99569530D01*
X239957084Y-99570810D01*
X239952713Y-99571243D01*
X239941701Y-99572138D01*
X239886872Y-99576597D01*
X239886869Y-99576598D01*
X239879573Y-99577191D01*
X239872609Y-99579447D01*
X239866614Y-99580645D01*
X239860664Y-99582051D01*
X239853393Y-99582899D01*
X239784398Y-99607943D01*
X239780252Y-99609366D01*
X239717388Y-99629731D01*
X239717386Y-99629732D01*
X239710425Y-99631987D01*
X239704170Y-99635783D01*
X239698633Y-99638318D01*
X239693142Y-99641068D01*
X239686259Y-99643566D01*
X239680135Y-99647581D01*
X239624868Y-99683815D01*
X239621200Y-99686130D01*
X239558419Y-99724227D01*
X239554212Y-99727943D01*
X239554208Y-99727946D01*
X239549995Y-99731668D01*
X239549969Y-99731638D01*
X239547041Y-99734236D01*
X239543687Y-99737040D01*
X239537565Y-99741054D01*
X239532532Y-99746367D01*
X239483995Y-99797604D01*
X239481617Y-99800046D01*
X238268472Y-101013190D01*
X238254059Y-101025577D01*
X238236436Y-101038546D01*
X238231692Y-101044129D01*
X238231693Y-101044129D01*
X238202021Y-101079055D01*
X238195091Y-101086571D01*
X238189347Y-101092315D01*
X238187073Y-101095189D01*
X238187067Y-101095196D01*
X238171628Y-101114711D01*
X238168837Y-101118115D01*
X238126055Y-101168472D01*
X238126052Y-101168476D01*
X238121316Y-101174051D01*
X238117988Y-101180568D01*
X238114611Y-101185632D01*
X238111384Y-101190856D01*
X238106840Y-101196600D01*
X238103741Y-101203231D01*
X238075768Y-101263082D01*
X238073837Y-101267033D01*
X238064778Y-101284775D01*
X238040457Y-101332404D01*
X238038716Y-101339519D01*
X238036579Y-101345265D01*
X238034655Y-101351048D01*
X238031556Y-101357679D01*
X238017036Y-101427491D01*
X238016608Y-101429547D01*
X238015639Y-101433829D01*
X237998196Y-101505112D01*
X237997500Y-101516330D01*
X237997461Y-101516328D01*
X237997228Y-101520229D01*
X237996839Y-101524588D01*
X237995348Y-101531756D01*
X237995546Y-101539073D01*
X237997454Y-101609577D01*
X237997500Y-101612986D01*
X237997500Y-104072624D01*
X237996067Y-104091574D01*
X237993876Y-104105973D01*
X237993876Y-104105979D01*
X237992776Y-104113208D01*
X237993369Y-104120500D01*
X237993369Y-104120503D01*
X237997085Y-104166183D01*
X237997500Y-104176398D01*
X237997500Y-104184525D01*
X238000811Y-104212924D01*
X238001238Y-104217244D01*
X238007191Y-104290426D01*
X238009447Y-104297388D01*
X238010643Y-104303376D01*
X238012051Y-104309333D01*
X238012899Y-104316607D01*
X238015397Y-104323489D01*
X238015398Y-104323493D01*
X238037945Y-104385607D01*
X238039355Y-104389711D01*
X238061987Y-104459575D01*
X238065787Y-104465838D01*
X238068325Y-104471380D01*
X238071067Y-104476856D01*
X238073566Y-104483741D01*
X238077581Y-104489865D01*
X238113815Y-104545132D01*
X238116130Y-104548800D01*
X238154227Y-104611581D01*
X238157941Y-104615786D01*
X238157943Y-104615789D01*
X238161667Y-104620005D01*
X238161638Y-104620031D01*
X238164238Y-104622962D01*
X238167042Y-104626316D01*
X238171054Y-104632435D01*
X238186916Y-104647461D01*
X238227586Y-104685988D01*
X238230028Y-104688366D01*
X239244067Y-105702405D01*
X239278093Y-105764717D01*
X239273028Y-105835532D01*
X239230481Y-105892368D01*
X239163961Y-105917179D01*
X239154972Y-105917500D01*
X237858027Y-105917500D01*
X237789906Y-105897498D01*
X237768936Y-105880599D01*
X236806803Y-104918465D01*
X236794423Y-104904059D01*
X236785795Y-104892335D01*
X236781454Y-104886436D01*
X236740945Y-104852021D01*
X236733429Y-104845091D01*
X236727685Y-104839347D01*
X236724811Y-104837073D01*
X236724804Y-104837067D01*
X236705289Y-104821628D01*
X236701885Y-104818837D01*
X236651528Y-104776055D01*
X236651524Y-104776052D01*
X236645949Y-104771316D01*
X236639432Y-104767988D01*
X236634368Y-104764611D01*
X236629144Y-104761384D01*
X236623400Y-104756840D01*
X236560797Y-104727581D01*
X236556918Y-104725768D01*
X236552967Y-104723837D01*
X236494117Y-104693787D01*
X236487596Y-104690457D01*
X236480481Y-104688716D01*
X236474735Y-104686579D01*
X236468952Y-104684655D01*
X236462321Y-104681556D01*
X236390443Y-104666606D01*
X236386171Y-104665639D01*
X236314888Y-104648196D01*
X236309289Y-104647849D01*
X236309285Y-104647848D01*
X236303670Y-104647500D01*
X236303672Y-104647461D01*
X236299771Y-104647228D01*
X236295412Y-104646839D01*
X236288244Y-104645348D01*
X236280927Y-104645546D01*
X236210423Y-104647454D01*
X236207014Y-104647500D01*
X234676647Y-104647500D01*
X234608526Y-104627498D01*
X234587552Y-104610595D01*
X234458809Y-104481852D01*
X234454301Y-104478695D01*
X234454298Y-104478693D01*
X234290315Y-104363871D01*
X234290312Y-104363869D01*
X234285806Y-104360714D01*
X234280824Y-104358391D01*
X234280819Y-104358388D01*
X234099377Y-104273781D01*
X234099376Y-104273781D01*
X234094395Y-104271458D01*
X234089087Y-104270036D01*
X234089085Y-104270035D01*
X234058004Y-104261707D01*
X233997381Y-104224755D01*
X233966360Y-104160894D01*
X233974788Y-104090400D01*
X234019991Y-104035653D01*
X234058004Y-104018293D01*
X234089085Y-104009965D01*
X234089087Y-104009964D01*
X234094395Y-104008542D01*
X234123318Y-103995055D01*
X234280819Y-103921612D01*
X234280824Y-103921609D01*
X234285806Y-103919286D01*
X234368953Y-103861066D01*
X234454298Y-103801307D01*
X234454301Y-103801305D01*
X234458809Y-103798148D01*
X234608148Y-103648809D01*
X234729286Y-103475805D01*
X234754050Y-103422700D01*
X234816219Y-103289377D01*
X234816220Y-103289376D01*
X234818542Y-103284395D01*
X234860676Y-103127151D01*
X234871780Y-103085709D01*
X234871780Y-103085707D01*
X234873204Y-103080394D01*
X234891611Y-102870000D01*
X234873204Y-102659606D01*
X234818542Y-102455605D01*
X234779431Y-102371731D01*
X234731609Y-102269176D01*
X234731607Y-102269173D01*
X234729286Y-102264195D01*
X234608148Y-102091191D01*
X234458809Y-101941852D01*
X234454301Y-101938695D01*
X234454298Y-101938693D01*
X234290315Y-101823871D01*
X234290312Y-101823869D01*
X234285806Y-101820714D01*
X234280824Y-101818391D01*
X234280819Y-101818388D01*
X234192479Y-101777195D01*
X234139194Y-101730278D01*
X234119733Y-101662001D01*
X234140275Y-101594041D01*
X234194298Y-101547975D01*
X234245729Y-101537000D01*
X234426634Y-101537000D01*
X234488816Y-101530245D01*
X234625205Y-101479115D01*
X234741761Y-101391761D01*
X234829115Y-101275205D01*
X234880245Y-101138816D01*
X234887000Y-101076634D01*
X234887000Y-99583366D01*
X234880245Y-99521184D01*
X234829115Y-99384795D01*
X234741761Y-99268239D01*
X234625205Y-99180885D01*
X234488816Y-99129755D01*
X234426634Y-99123000D01*
X232933366Y-99123000D01*
X232871184Y-99129755D01*
X232734795Y-99180885D01*
X232666695Y-99231923D01*
X232644602Y-99248481D01*
X232578096Y-99273329D01*
X232508713Y-99258276D01*
X232458483Y-99208102D01*
X232443516Y-99158637D01*
X232433528Y-99044480D01*
X232431625Y-99033688D01*
X232375236Y-98823239D01*
X232371490Y-98812947D01*
X232279414Y-98615489D01*
X232273931Y-98605994D01*
X232237491Y-98553952D01*
X232227012Y-98545576D01*
X232213566Y-98552644D01*
X231512022Y-99254188D01*
X231504408Y-99268132D01*
X231504539Y-99269965D01*
X231508790Y-99276580D01*
X232214287Y-99982077D01*
X232226062Y-99988507D01*
X232238078Y-99979210D01*
X232243787Y-99971057D01*
X232299244Y-99926728D01*
X232369863Y-99919419D01*
X232433224Y-99951449D01*
X232469209Y-100012651D01*
X232473000Y-100043327D01*
X232473000Y-101076634D01*
X232479755Y-101138816D01*
X232530885Y-101275205D01*
X232618239Y-101391761D01*
X232734795Y-101479115D01*
X232871184Y-101530245D01*
X232933366Y-101537000D01*
X233114272Y-101537000D01*
X233182393Y-101557002D01*
X233228886Y-101610658D01*
X233238990Y-101680932D01*
X233209496Y-101745512D01*
X233167522Y-101777195D01*
X233079176Y-101818391D01*
X233079173Y-101818393D01*
X233074195Y-101820714D01*
X232901191Y-101941852D01*
X232751852Y-102091191D01*
X232630714Y-102264195D01*
X232628393Y-102269173D01*
X232628391Y-102269176D01*
X232580569Y-102371731D01*
X232541458Y-102455605D01*
X232540036Y-102460913D01*
X232540035Y-102460915D01*
X232531207Y-102493862D01*
X232494255Y-102554485D01*
X232430394Y-102585506D01*
X232359900Y-102577078D01*
X232305153Y-102531875D01*
X232283500Y-102461251D01*
X232283500Y-102023805D01*
X232283770Y-102015564D01*
X232287628Y-101956705D01*
X232288006Y-101950939D01*
X232277602Y-101863041D01*
X232277259Y-101859766D01*
X232269698Y-101777480D01*
X232269169Y-101771721D01*
X232267599Y-101766155D01*
X232266914Y-101762459D01*
X232264756Y-101751610D01*
X232263983Y-101747974D01*
X232263304Y-101742235D01*
X232237069Y-101657744D01*
X232236140Y-101654608D01*
X232213693Y-101575018D01*
X232212123Y-101569451D01*
X232209565Y-101564263D01*
X232208240Y-101560812D01*
X232204099Y-101550434D01*
X232202696Y-101547047D01*
X232200982Y-101541527D01*
X232187725Y-101516328D01*
X232159802Y-101463255D01*
X232158305Y-101460318D01*
X232142116Y-101427491D01*
X232119171Y-101380963D01*
X232115713Y-101376332D01*
X232113750Y-101373129D01*
X232107827Y-101363742D01*
X232105818Y-101360649D01*
X232103129Y-101355537D01*
X232048344Y-101286044D01*
X232046373Y-101283474D01*
X231996884Y-101217199D01*
X231996877Y-101217192D01*
X231993427Y-101212571D01*
X231964285Y-101185632D01*
X231933027Y-101156738D01*
X231929461Y-101153308D01*
X231497239Y-100721086D01*
X231463213Y-100658774D01*
X231468278Y-100587959D01*
X231510825Y-100531123D01*
X231553724Y-100510284D01*
X231583759Y-100502237D01*
X231594053Y-100498490D01*
X231791511Y-100406414D01*
X231801006Y-100400931D01*
X231853048Y-100364491D01*
X231861424Y-100354012D01*
X231854356Y-100340566D01*
X230065713Y-98551923D01*
X230053938Y-98545493D01*
X230041923Y-98554789D01*
X230006069Y-98605994D01*
X230000586Y-98615489D01*
X229908510Y-98812947D01*
X229904764Y-98823239D01*
X229848375Y-99033686D01*
X229846471Y-99044482D01*
X229842531Y-99089524D01*
X229816668Y-99155642D01*
X229759165Y-99197282D01*
X229702201Y-99203670D01*
X229673821Y-99200311D01*
X229639882Y-99196294D01*
X229636660Y-99195870D01*
X229549103Y-99183175D01*
X229466946Y-99186403D01*
X229461999Y-99186500D01*
X229012481Y-99186500D01*
X228979870Y-99182207D01*
X228974937Y-99180885D01*
X228891906Y-99158637D01*
X228815709Y-99138220D01*
X228815707Y-99138220D01*
X228810394Y-99136796D01*
X228600000Y-99118389D01*
X228389606Y-99136796D01*
X228384293Y-99138220D01*
X228384291Y-99138220D01*
X228190915Y-99190035D01*
X228190913Y-99190036D01*
X228185605Y-99191458D01*
X228180624Y-99193780D01*
X228180623Y-99193781D01*
X227999176Y-99278391D01*
X227999173Y-99278393D01*
X227994195Y-99280714D01*
X227821191Y-99401852D01*
X227671852Y-99551191D01*
X227550714Y-99724195D01*
X227548393Y-99729173D01*
X227548391Y-99729176D01*
X227463781Y-99910623D01*
X227461458Y-99915605D01*
X227460036Y-99920913D01*
X227460035Y-99920915D01*
X227427235Y-100043327D01*
X227406796Y-100119606D01*
X227388389Y-100330000D01*
X227406796Y-100540394D01*
X227408220Y-100545707D01*
X227408220Y-100545709D01*
X227411018Y-100556149D01*
X227461458Y-100744395D01*
X227463780Y-100749376D01*
X227463781Y-100749377D01*
X227547356Y-100928603D01*
X227550714Y-100935805D01*
X227671852Y-101108809D01*
X227821191Y-101258148D01*
X227825699Y-101261305D01*
X227825702Y-101261307D01*
X227960277Y-101355537D01*
X227994194Y-101379286D01*
X227999176Y-101381609D01*
X227999181Y-101381612D01*
X228176649Y-101464366D01*
X228185605Y-101468542D01*
X228190913Y-101469964D01*
X228190915Y-101469965D01*
X228221996Y-101478293D01*
X228282619Y-101515245D01*
X228313640Y-101579106D01*
X228305212Y-101649600D01*
X228260009Y-101704347D01*
X228221996Y-101721707D01*
X228190915Y-101730035D01*
X228190913Y-101730036D01*
X228185605Y-101731458D01*
X228180624Y-101733780D01*
X228180623Y-101733781D01*
X227999176Y-101818391D01*
X227999173Y-101818393D01*
X227994195Y-101820714D01*
X227821191Y-101941852D01*
X227671852Y-102091191D01*
X227550714Y-102264195D01*
X227548393Y-102269173D01*
X227548391Y-102269176D01*
X227500569Y-102371731D01*
X227461458Y-102455605D01*
X227406796Y-102659606D01*
X227388389Y-102870000D01*
X227406796Y-103080394D01*
X227408220Y-103085707D01*
X227408220Y-103085709D01*
X227419325Y-103127151D01*
X227461458Y-103284395D01*
X227463780Y-103289376D01*
X227463781Y-103289377D01*
X227525951Y-103422700D01*
X227550714Y-103475805D01*
X227671852Y-103648809D01*
X227821191Y-103798148D01*
X227825699Y-103801305D01*
X227825702Y-103801307D01*
X227911047Y-103861066D01*
X227994194Y-103919286D01*
X227999176Y-103921609D01*
X227999181Y-103921612D01*
X228156682Y-103995055D01*
X228185605Y-104008542D01*
X228190913Y-104009964D01*
X228190915Y-104009965D01*
X228221996Y-104018293D01*
X228282619Y-104055245D01*
X228313640Y-104119106D01*
X228305212Y-104189600D01*
X228260009Y-104244347D01*
X228221996Y-104261707D01*
X228190915Y-104270035D01*
X228190913Y-104270036D01*
X228185605Y-104271458D01*
X228180624Y-104273780D01*
X228180623Y-104273781D01*
X227999176Y-104358391D01*
X227999173Y-104358393D01*
X227994195Y-104360714D01*
X227821191Y-104481852D01*
X227692448Y-104610595D01*
X227630136Y-104644621D01*
X227603353Y-104647500D01*
X226762377Y-104647500D01*
X226743427Y-104646067D01*
X226729028Y-104643876D01*
X226729022Y-104643876D01*
X226721793Y-104642776D01*
X226714501Y-104643369D01*
X226714498Y-104643369D01*
X226668818Y-104647085D01*
X226658603Y-104647500D01*
X226650475Y-104647500D01*
X226646853Y-104647922D01*
X226646840Y-104647923D01*
X226622086Y-104650809D01*
X226617727Y-104651240D01*
X226544574Y-104657191D01*
X226537612Y-104659447D01*
X226531624Y-104660643D01*
X226525667Y-104662051D01*
X226518393Y-104662899D01*
X226511511Y-104665397D01*
X226511507Y-104665398D01*
X226449393Y-104687945D01*
X226445289Y-104689355D01*
X226375425Y-104711987D01*
X226369162Y-104715787D01*
X226363620Y-104718325D01*
X226358144Y-104721067D01*
X226351259Y-104723566D01*
X226345135Y-104727581D01*
X226289868Y-104763815D01*
X226286200Y-104766130D01*
X226223419Y-104804227D01*
X226219214Y-104807941D01*
X226219211Y-104807943D01*
X226214995Y-104811667D01*
X226214969Y-104811638D01*
X226212038Y-104814238D01*
X226208684Y-104817042D01*
X226202565Y-104821054D01*
X226173230Y-104852021D01*
X226149012Y-104877586D01*
X226146634Y-104880028D01*
X225568472Y-105458190D01*
X225554059Y-105470577D01*
X225536436Y-105483546D01*
X225520158Y-105502707D01*
X225502021Y-105524055D01*
X225495091Y-105531571D01*
X225489347Y-105537315D01*
X225487073Y-105540189D01*
X225487067Y-105540196D01*
X225471628Y-105559711D01*
X225468837Y-105563115D01*
X225426055Y-105613472D01*
X225426052Y-105613476D01*
X225421316Y-105619051D01*
X225417988Y-105625568D01*
X225414611Y-105630632D01*
X225411384Y-105635856D01*
X225406840Y-105641600D01*
X225403741Y-105648231D01*
X225375768Y-105708082D01*
X225373837Y-105712033D01*
X225340457Y-105777404D01*
X225338716Y-105784519D01*
X225336579Y-105790265D01*
X225334655Y-105796048D01*
X225331556Y-105802679D01*
X225325902Y-105829865D01*
X225316608Y-105874547D01*
X225315639Y-105878829D01*
X225298196Y-105950112D01*
X225297849Y-105955711D01*
X225297848Y-105955715D01*
X225297554Y-105960457D01*
X225297500Y-105961330D01*
X225297461Y-105961328D01*
X225297228Y-105965229D01*
X225296839Y-105969588D01*
X225295348Y-105976756D01*
X225295546Y-105984073D01*
X225297454Y-106054577D01*
X225297500Y-106057986D01*
X225297500Y-109601500D01*
X225277498Y-109669621D01*
X225223842Y-109716114D01*
X225171500Y-109727500D01*
X223587368Y-109727500D01*
X223568420Y-109726067D01*
X223561033Y-109724943D01*
X223554024Y-109723877D01*
X223554022Y-109723877D01*
X223546792Y-109722777D01*
X223539500Y-109723370D01*
X223539497Y-109723370D01*
X223493825Y-109727085D01*
X223483611Y-109727500D01*
X223475475Y-109727500D01*
X223471840Y-109727924D01*
X223471837Y-109727924D01*
X223458065Y-109729530D01*
X223447084Y-109730810D01*
X223442713Y-109731243D01*
X223431701Y-109732138D01*
X223376872Y-109736597D01*
X223376869Y-109736598D01*
X223369573Y-109737191D01*
X223362611Y-109739446D01*
X223356607Y-109740646D01*
X223350660Y-109742052D01*
X223343393Y-109742899D01*
X223291995Y-109761556D01*
X223274388Y-109767947D01*
X223270227Y-109769375D01*
X223207387Y-109789732D01*
X223207382Y-109789734D01*
X223200425Y-109791988D01*
X223194173Y-109795782D01*
X223188598Y-109798334D01*
X223183135Y-109801070D01*
X223176259Y-109803566D01*
X223170140Y-109807578D01*
X223114863Y-109843819D01*
X223111159Y-109846156D01*
X223048419Y-109884228D01*
X223039994Y-109891668D01*
X223039969Y-109891640D01*
X223037044Y-109894234D01*
X223033690Y-109897039D01*
X223027565Y-109901054D01*
X223022530Y-109906369D01*
X223022529Y-109906370D01*
X222974012Y-109957586D01*
X222971634Y-109960028D01*
X222402794Y-110528868D01*
X222340482Y-110562894D01*
X222269667Y-110557829D01*
X222212831Y-110515282D01*
X222188178Y-110450755D01*
X222173683Y-110285086D01*
X222173204Y-110279606D01*
X222170347Y-110268944D01*
X222119965Y-110080915D01*
X222119964Y-110080913D01*
X222118542Y-110075605D01*
X222114163Y-110066214D01*
X222031609Y-109889176D01*
X222031607Y-109889173D01*
X222029286Y-109884195D01*
X221908148Y-109711191D01*
X221758809Y-109561852D01*
X221754301Y-109558695D01*
X221754298Y-109558693D01*
X221590315Y-109443871D01*
X221590312Y-109443869D01*
X221585806Y-109440714D01*
X221580824Y-109438391D01*
X221580819Y-109438388D01*
X221399377Y-109353781D01*
X221399376Y-109353781D01*
X221394395Y-109351458D01*
X221389087Y-109350036D01*
X221389085Y-109350035D01*
X221358004Y-109341707D01*
X221297381Y-109304755D01*
X221266360Y-109240894D01*
X221274788Y-109170400D01*
X221319991Y-109115653D01*
X221358004Y-109098293D01*
X221389085Y-109089965D01*
X221389087Y-109089964D01*
X221394395Y-109088542D01*
X221421414Y-109075943D01*
X221580819Y-109001612D01*
X221580824Y-109001609D01*
X221585806Y-108999286D01*
X221590315Y-108996129D01*
X221754298Y-108881307D01*
X221754301Y-108881305D01*
X221758809Y-108878148D01*
X221887552Y-108749405D01*
X221949864Y-108715379D01*
X221976647Y-108712500D01*
X222182624Y-108712500D01*
X222201574Y-108713933D01*
X222215973Y-108716124D01*
X222215979Y-108716124D01*
X222223208Y-108717224D01*
X222230500Y-108716631D01*
X222230503Y-108716631D01*
X222276183Y-108712915D01*
X222286398Y-108712500D01*
X222294525Y-108712500D01*
X222298161Y-108712076D01*
X222298163Y-108712076D01*
X222305067Y-108711271D01*
X222322924Y-108709189D01*
X222327244Y-108708762D01*
X222400426Y-108702809D01*
X222407388Y-108700553D01*
X222413376Y-108699357D01*
X222419333Y-108697949D01*
X222426607Y-108697101D01*
X222433489Y-108694603D01*
X222433493Y-108694602D01*
X222495607Y-108672055D01*
X222499711Y-108670645D01*
X222569575Y-108648013D01*
X222575838Y-108644213D01*
X222581380Y-108641675D01*
X222586856Y-108638933D01*
X222593741Y-108636434D01*
X222655132Y-108596185D01*
X222658800Y-108593870D01*
X222721581Y-108555773D01*
X222725786Y-108552059D01*
X222725789Y-108552057D01*
X222730005Y-108548333D01*
X222730031Y-108548362D01*
X222732962Y-108545762D01*
X222736316Y-108542958D01*
X222742435Y-108538946D01*
X222795989Y-108482413D01*
X222798366Y-108479972D01*
X223376528Y-107901810D01*
X223390941Y-107889423D01*
X223402665Y-107880795D01*
X223408564Y-107876454D01*
X223442979Y-107835945D01*
X223449909Y-107828429D01*
X223455653Y-107822685D01*
X223457927Y-107819811D01*
X223457933Y-107819804D01*
X223473372Y-107800289D01*
X223476163Y-107796885D01*
X223518945Y-107746528D01*
X223518948Y-107746524D01*
X223523684Y-107740949D01*
X223527012Y-107734432D01*
X223530389Y-107729368D01*
X223533616Y-107724144D01*
X223538160Y-107718400D01*
X223569242Y-107651896D01*
X223571147Y-107647999D01*
X223604543Y-107582596D01*
X223606284Y-107575482D01*
X223608416Y-107569748D01*
X223610344Y-107563952D01*
X223613444Y-107557320D01*
X223628395Y-107485440D01*
X223629365Y-107481156D01*
X223631767Y-107471339D01*
X223646804Y-107409888D01*
X223647500Y-107398670D01*
X223647537Y-107398672D01*
X223647773Y-107394773D01*
X223648163Y-107390402D01*
X223649652Y-107383243D01*
X223647546Y-107305423D01*
X223647500Y-107302014D01*
X223647500Y-101032377D01*
X223648933Y-101013427D01*
X223651124Y-100999028D01*
X223651124Y-100999022D01*
X223652224Y-100991793D01*
X223647915Y-100938818D01*
X223647500Y-100928603D01*
X223647500Y-100920475D01*
X223647078Y-100916853D01*
X223647077Y-100916840D01*
X223644191Y-100892086D01*
X223643758Y-100887710D01*
X223638402Y-100821867D01*
X223637809Y-100814574D01*
X223635553Y-100807612D01*
X223634357Y-100801624D01*
X223632949Y-100795667D01*
X223632101Y-100788393D01*
X223629603Y-100781511D01*
X223629602Y-100781507D01*
X223607055Y-100719393D01*
X223605645Y-100715289D01*
X223583013Y-100645425D01*
X223579213Y-100639162D01*
X223576675Y-100633620D01*
X223573933Y-100628144D01*
X223571434Y-100621259D01*
X223531185Y-100559868D01*
X223528870Y-100556200D01*
X223490773Y-100493419D01*
X223483333Y-100484995D01*
X223483362Y-100484969D01*
X223480762Y-100482038D01*
X223477958Y-100478684D01*
X223473946Y-100472565D01*
X223417413Y-100419011D01*
X223414972Y-100416634D01*
X222836810Y-99838472D01*
X222824423Y-99824059D01*
X222815795Y-99812335D01*
X222811454Y-99806436D01*
X222770945Y-99772021D01*
X222763429Y-99765091D01*
X222757685Y-99759347D01*
X222754811Y-99757073D01*
X222754804Y-99757067D01*
X222735289Y-99741628D01*
X222731885Y-99738837D01*
X222681528Y-99696055D01*
X222681524Y-99696052D01*
X222675949Y-99691316D01*
X222669432Y-99687988D01*
X222664368Y-99684611D01*
X222659144Y-99681384D01*
X222653400Y-99676840D01*
X222590797Y-99647581D01*
X222586918Y-99645768D01*
X222582967Y-99643837D01*
X222531955Y-99617789D01*
X222517596Y-99610457D01*
X222510481Y-99608716D01*
X222504735Y-99606579D01*
X222498952Y-99604655D01*
X222492321Y-99601556D01*
X222420443Y-99586606D01*
X222416171Y-99585639D01*
X222344888Y-99568196D01*
X222339289Y-99567849D01*
X222339285Y-99567848D01*
X222333670Y-99567500D01*
X222333672Y-99567461D01*
X222329771Y-99567228D01*
X222325412Y-99566839D01*
X222318244Y-99565348D01*
X222310926Y-99565546D01*
X222287863Y-99566170D01*
X222219226Y-99548018D01*
X222171299Y-99495639D01*
X222166473Y-99484446D01*
X222132267Y-99393203D01*
X222129115Y-99384795D01*
X222041761Y-99268239D01*
X221925205Y-99180885D01*
X221788816Y-99129755D01*
X221726634Y-99123000D01*
X220233366Y-99123000D01*
X220171184Y-99129755D01*
X220034795Y-99180885D01*
X219918239Y-99268239D01*
X219830885Y-99384795D01*
X219779755Y-99521184D01*
X219773000Y-99583366D01*
X219773000Y-101076634D01*
X219779755Y-101138816D01*
X219830885Y-101275205D01*
X219918239Y-101391761D01*
X220034795Y-101479115D01*
X220171184Y-101530245D01*
X220233366Y-101537000D01*
X220414272Y-101537000D01*
X220482393Y-101557002D01*
X220528886Y-101610658D01*
X220538990Y-101680932D01*
X220509496Y-101745512D01*
X220467522Y-101777195D01*
X220379176Y-101818391D01*
X220379173Y-101818393D01*
X220374195Y-101820714D01*
X220201191Y-101941852D01*
X220051852Y-102091191D01*
X219930714Y-102264195D01*
X219928393Y-102269173D01*
X219928391Y-102269176D01*
X219880569Y-102371731D01*
X219841458Y-102455605D01*
X219786796Y-102659606D01*
X219768389Y-102870000D01*
X219786796Y-103080394D01*
X219788220Y-103085707D01*
X219788220Y-103085709D01*
X219799325Y-103127151D01*
X219841458Y-103284395D01*
X219843780Y-103289376D01*
X219843781Y-103289377D01*
X219905951Y-103422700D01*
X219930714Y-103475805D01*
X220051852Y-103648809D01*
X220201191Y-103798148D01*
X220205699Y-103801305D01*
X220205702Y-103801307D01*
X220291047Y-103861066D01*
X220374194Y-103919286D01*
X220379176Y-103921609D01*
X220379181Y-103921612D01*
X220536682Y-103995055D01*
X220565605Y-104008542D01*
X220570913Y-104009964D01*
X220570915Y-104009965D01*
X220601996Y-104018293D01*
X220662619Y-104055245D01*
X220693640Y-104119106D01*
X220685212Y-104189600D01*
X220640009Y-104244347D01*
X220601996Y-104261707D01*
X220570915Y-104270035D01*
X220570913Y-104270036D01*
X220565605Y-104271458D01*
X220560624Y-104273780D01*
X220560623Y-104273781D01*
X220379176Y-104358391D01*
X220379173Y-104358393D01*
X220374195Y-104360714D01*
X220201191Y-104481852D01*
X220072448Y-104610595D01*
X220010136Y-104644621D01*
X219983353Y-104647500D01*
X219777377Y-104647500D01*
X219758427Y-104646067D01*
X219744028Y-104643876D01*
X219744022Y-104643876D01*
X219736793Y-104642776D01*
X219729501Y-104643369D01*
X219729498Y-104643369D01*
X219683818Y-104647085D01*
X219673603Y-104647500D01*
X219665475Y-104647500D01*
X219661853Y-104647922D01*
X219661840Y-104647923D01*
X219637086Y-104650809D01*
X219632727Y-104651240D01*
X219559574Y-104657191D01*
X219552612Y-104659447D01*
X219546624Y-104660643D01*
X219540667Y-104662051D01*
X219533393Y-104662899D01*
X219526511Y-104665397D01*
X219526507Y-104665398D01*
X219464393Y-104687945D01*
X219460289Y-104689355D01*
X219390425Y-104711987D01*
X219384162Y-104715787D01*
X219378620Y-104718325D01*
X219373144Y-104721067D01*
X219366259Y-104723566D01*
X219360135Y-104727581D01*
X219304868Y-104763815D01*
X219301200Y-104766130D01*
X219238419Y-104804227D01*
X219234214Y-104807941D01*
X219234211Y-104807943D01*
X219229995Y-104811667D01*
X219229969Y-104811638D01*
X219227038Y-104814238D01*
X219223684Y-104817042D01*
X219217565Y-104821054D01*
X219188230Y-104852021D01*
X219164012Y-104877586D01*
X219161634Y-104880028D01*
X218583472Y-105458190D01*
X218569059Y-105470577D01*
X218551436Y-105483546D01*
X218535158Y-105502707D01*
X218517021Y-105524055D01*
X218510091Y-105531571D01*
X218504347Y-105537315D01*
X218502073Y-105540189D01*
X218502067Y-105540196D01*
X218486628Y-105559711D01*
X218483837Y-105563115D01*
X218441055Y-105613472D01*
X218441052Y-105613476D01*
X218436316Y-105619051D01*
X218432988Y-105625568D01*
X218429611Y-105630632D01*
X218426384Y-105635856D01*
X218421840Y-105641600D01*
X218418741Y-105648231D01*
X218390768Y-105708082D01*
X218388837Y-105712033D01*
X218355457Y-105777404D01*
X218353716Y-105784519D01*
X218351579Y-105790265D01*
X218349655Y-105796048D01*
X218346556Y-105802679D01*
X218340902Y-105829865D01*
X218331608Y-105874547D01*
X218330639Y-105878829D01*
X218313196Y-105950112D01*
X218312849Y-105955711D01*
X218312848Y-105955715D01*
X218312554Y-105960457D01*
X218312500Y-105961330D01*
X218312461Y-105961328D01*
X218312228Y-105965229D01*
X218311839Y-105969588D01*
X218310348Y-105976756D01*
X218310546Y-105984073D01*
X218312454Y-106054577D01*
X218312500Y-106057986D01*
X218312500Y-113597624D01*
X218311067Y-113616574D01*
X218308876Y-113630973D01*
X218308876Y-113630979D01*
X218307776Y-113638208D01*
X218308369Y-113645500D01*
X218308369Y-113645503D01*
X218312085Y-113691183D01*
X218312500Y-113701398D01*
X218312500Y-113709525D01*
X218315811Y-113737924D01*
X218316238Y-113742244D01*
X218322191Y-113815426D01*
X218324447Y-113822388D01*
X218325643Y-113828376D01*
X218327051Y-113834333D01*
X218327899Y-113841607D01*
X218330397Y-113848489D01*
X218330398Y-113848493D01*
X218352945Y-113910607D01*
X218354355Y-113914711D01*
X218376987Y-113984575D01*
X218380787Y-113990838D01*
X218383325Y-113996380D01*
X218386067Y-114001856D01*
X218388566Y-114008741D01*
X218392581Y-114014865D01*
X218428815Y-114070132D01*
X218431130Y-114073800D01*
X218469227Y-114136581D01*
X218472941Y-114140786D01*
X218472943Y-114140789D01*
X218476667Y-114145005D01*
X218476638Y-114145031D01*
X218479238Y-114147962D01*
X218482042Y-114151316D01*
X218486054Y-114157435D01*
X218509738Y-114179871D01*
X218542586Y-114210988D01*
X218545028Y-114213366D01*
X219123190Y-114791528D01*
X219135577Y-114805941D01*
X219148546Y-114823564D01*
X219154129Y-114828307D01*
X219189055Y-114857979D01*
X219196571Y-114864909D01*
X219202315Y-114870653D01*
X219205189Y-114872927D01*
X219205196Y-114872933D01*
X219224711Y-114888372D01*
X219228115Y-114891163D01*
X219278472Y-114933945D01*
X219278476Y-114933948D01*
X219284051Y-114938684D01*
X219290568Y-114942012D01*
X219295632Y-114945389D01*
X219300856Y-114948616D01*
X219306600Y-114953160D01*
X219373104Y-114984242D01*
X219377001Y-114986147D01*
X219442404Y-115019543D01*
X219449518Y-115021284D01*
X219455252Y-115023416D01*
X219461048Y-115025344D01*
X219467680Y-115028444D01*
X219539555Y-115043394D01*
X219543839Y-115044364D01*
X219615112Y-115061804D01*
X219620714Y-115062152D01*
X219620717Y-115062152D01*
X219626330Y-115062500D01*
X219626328Y-115062537D01*
X219630227Y-115062773D01*
X219634599Y-115063163D01*
X219641757Y-115064652D01*
X219699533Y-115063088D01*
X219768168Y-115081239D01*
X219816096Y-115133617D01*
X219828098Y-115203592D01*
X219823274Y-115226406D01*
X219796522Y-115312563D01*
X219794130Y-115323817D01*
X219769425Y-115532547D01*
X219769124Y-115544048D01*
X219782871Y-115753779D01*
X219784672Y-115765149D01*
X219836409Y-115968863D01*
X219840250Y-115979710D01*
X219928247Y-116170592D01*
X219933996Y-116180549D01*
X219955112Y-116210427D01*
X219965701Y-116218815D01*
X219979000Y-116211788D01*
X220890905Y-115299884D01*
X220953217Y-115265859D01*
X221024033Y-115270924D01*
X221069095Y-115299884D01*
X221982609Y-116213398D01*
X221994987Y-116220156D01*
X222001566Y-116215231D01*
X222084095Y-116067865D01*
X222088771Y-116057362D01*
X222156334Y-115858328D01*
X222159019Y-115847145D01*
X222189475Y-115637088D01*
X222190105Y-115629705D01*
X222191572Y-115573704D01*
X222191329Y-115566305D01*
X222171908Y-115354945D01*
X222169811Y-115343630D01*
X222112758Y-115141336D01*
X222108636Y-115130597D01*
X222067336Y-115046850D01*
X222055146Y-114976908D01*
X222082705Y-114911479D01*
X222099521Y-114894458D01*
X222101313Y-114892960D01*
X222107435Y-114888946D01*
X222160989Y-114832413D01*
X222163366Y-114829972D01*
X223163933Y-113829405D01*
X223226245Y-113795379D01*
X223253028Y-113792500D01*
X227603353Y-113792500D01*
X227671474Y-113812502D01*
X227692448Y-113829405D01*
X227821191Y-113958148D01*
X227825699Y-113961305D01*
X227825702Y-113961307D01*
X227989685Y-114076129D01*
X227994194Y-114079286D01*
X227999176Y-114081609D01*
X227999181Y-114081612D01*
X228168794Y-114160703D01*
X228185605Y-114168542D01*
X228190913Y-114169964D01*
X228190915Y-114169965D01*
X228221996Y-114178293D01*
X228282619Y-114215245D01*
X228313640Y-114279106D01*
X228305212Y-114349600D01*
X228260009Y-114404347D01*
X228221996Y-114421707D01*
X228190915Y-114430035D01*
X228190913Y-114430036D01*
X228185605Y-114431458D01*
X228180624Y-114433780D01*
X228180623Y-114433781D01*
X227999176Y-114518391D01*
X227999173Y-114518393D01*
X227994195Y-114520714D01*
X227821191Y-114641852D01*
X227671852Y-114791191D01*
X227550714Y-114964195D01*
X227548393Y-114969173D01*
X227548391Y-114969176D01*
X227468112Y-115141336D01*
X227461458Y-115155605D01*
X227460036Y-115160913D01*
X227460035Y-115160915D01*
X227409653Y-115348944D01*
X227406796Y-115359606D01*
X227388389Y-115570000D01*
X227406796Y-115780394D01*
X227408219Y-115785706D01*
X227408220Y-115785709D01*
X227425857Y-115851529D01*
X227461458Y-115984395D01*
X227463780Y-115989376D01*
X227463781Y-115989377D01*
X227537101Y-116146611D01*
X227550714Y-116175805D01*
X227671852Y-116348809D01*
X227821191Y-116498148D01*
X227825699Y-116501305D01*
X227825702Y-116501307D01*
X227989685Y-116616129D01*
X227994194Y-116619286D01*
X227999176Y-116621609D01*
X227999181Y-116621612D01*
X228158586Y-116695943D01*
X228185605Y-116708542D01*
X228190913Y-116709964D01*
X228190915Y-116709965D01*
X228384291Y-116761780D01*
X228384293Y-116761780D01*
X228389606Y-116763204D01*
X228467605Y-116770028D01*
X228560755Y-116778178D01*
X228626873Y-116804042D01*
X228668513Y-116861545D01*
X228672453Y-116932433D01*
X228638868Y-116992794D01*
X226203472Y-119428190D01*
X226189059Y-119440577D01*
X226171436Y-119453546D01*
X226166692Y-119459129D01*
X226166693Y-119459129D01*
X226137021Y-119494055D01*
X226130091Y-119501571D01*
X226124347Y-119507315D01*
X226122073Y-119510189D01*
X226122067Y-119510196D01*
X226106628Y-119529711D01*
X226103837Y-119533115D01*
X226061055Y-119583472D01*
X226061052Y-119583476D01*
X226056316Y-119589051D01*
X226052988Y-119595568D01*
X226049611Y-119600632D01*
X226046384Y-119605856D01*
X226041840Y-119611600D01*
X226034641Y-119627003D01*
X226010768Y-119678082D01*
X226008837Y-119682033D01*
X226000884Y-119697609D01*
X225975457Y-119747404D01*
X225973716Y-119754519D01*
X225971579Y-119760265D01*
X225969655Y-119766048D01*
X225966556Y-119772679D01*
X225954113Y-119832505D01*
X225951608Y-119844547D01*
X225950639Y-119848829D01*
X225933196Y-119920112D01*
X225932849Y-119925711D01*
X225932848Y-119925715D01*
X225932710Y-119927938D01*
X225932500Y-119931330D01*
X225932461Y-119931328D01*
X225932228Y-119935229D01*
X225931839Y-119939588D01*
X225930348Y-119946756D01*
X225930546Y-119954073D01*
X225932454Y-120024577D01*
X225932500Y-120027986D01*
X225932500Y-121044972D01*
X225912498Y-121113093D01*
X225858842Y-121159586D01*
X225788568Y-121169690D01*
X225723988Y-121140196D01*
X225717405Y-121134067D01*
X224741810Y-120158472D01*
X224729423Y-120144059D01*
X224720795Y-120132335D01*
X224716454Y-120126436D01*
X224675945Y-120092021D01*
X224668429Y-120085091D01*
X224662685Y-120079347D01*
X224659811Y-120077073D01*
X224659804Y-120077067D01*
X224640289Y-120061628D01*
X224636885Y-120058837D01*
X224586528Y-120016055D01*
X224586524Y-120016052D01*
X224580949Y-120011316D01*
X224574432Y-120007988D01*
X224569368Y-120004611D01*
X224564144Y-120001384D01*
X224558400Y-119996840D01*
X224511112Y-119974739D01*
X224491918Y-119965768D01*
X224487967Y-119963837D01*
X224434254Y-119936410D01*
X224422596Y-119930457D01*
X224415481Y-119928716D01*
X224409735Y-119926579D01*
X224403952Y-119924655D01*
X224397321Y-119921556D01*
X224325443Y-119906606D01*
X224321171Y-119905639D01*
X224249888Y-119888196D01*
X224244289Y-119887849D01*
X224244285Y-119887848D01*
X224238670Y-119887500D01*
X224238672Y-119887461D01*
X224234771Y-119887228D01*
X224230412Y-119886839D01*
X224223244Y-119885348D01*
X224215927Y-119885546D01*
X224145423Y-119887454D01*
X224142014Y-119887500D01*
X222284936Y-119887500D01*
X222216815Y-119867498D01*
X222170322Y-119813842D01*
X222166954Y-119805730D01*
X222132267Y-119713203D01*
X222129115Y-119704795D01*
X222041761Y-119588239D01*
X221925205Y-119500885D01*
X221788816Y-119449755D01*
X221726634Y-119443000D01*
X220233366Y-119443000D01*
X220171184Y-119449755D01*
X220034795Y-119500885D01*
X219933953Y-119576462D01*
X219932396Y-119577629D01*
X219865890Y-119602477D01*
X219796507Y-119587424D01*
X219767736Y-119565898D01*
X219366415Y-119164577D01*
X219332389Y-119102265D01*
X219329510Y-119075482D01*
X219329510Y-117669386D01*
X219330943Y-117650436D01*
X219333134Y-117636037D01*
X219333134Y-117636031D01*
X219334234Y-117628802D01*
X219332846Y-117611731D01*
X219329925Y-117575827D01*
X219329510Y-117565612D01*
X219329510Y-117557485D01*
X219326199Y-117529086D01*
X219325770Y-117524746D01*
X219325729Y-117524232D01*
X219319819Y-117451584D01*
X219317563Y-117444622D01*
X219316367Y-117438634D01*
X219314959Y-117432677D01*
X219314111Y-117425403D01*
X219311613Y-117418521D01*
X219311612Y-117418517D01*
X219289065Y-117356403D01*
X219287655Y-117352299D01*
X219265023Y-117282435D01*
X219261223Y-117276172D01*
X219258685Y-117270630D01*
X219255943Y-117265154D01*
X219253444Y-117258269D01*
X219213195Y-117196878D01*
X219210880Y-117193210D01*
X219172783Y-117130429D01*
X219165343Y-117122005D01*
X219165372Y-117121979D01*
X219162772Y-117119048D01*
X219159968Y-117115694D01*
X219155956Y-117109575D01*
X219099423Y-117056021D01*
X219096982Y-117053644D01*
X218625652Y-116582314D01*
X220332046Y-116582314D01*
X220341928Y-116594803D01*
X220397041Y-116631627D01*
X220407146Y-116637114D01*
X220600267Y-116720086D01*
X220611210Y-116723641D01*
X220816209Y-116770028D01*
X220827618Y-116771530D01*
X221037645Y-116779781D01*
X221049129Y-116779179D01*
X221257145Y-116749019D01*
X221268328Y-116746334D01*
X221467362Y-116678771D01*
X221477865Y-116674095D01*
X221620404Y-116594270D01*
X221630266Y-116584194D01*
X221627311Y-116576522D01*
X220992811Y-115942021D01*
X220978868Y-115934408D01*
X220977034Y-115934539D01*
X220970420Y-115938790D01*
X220338239Y-116570972D01*
X220332046Y-116582314D01*
X218625652Y-116582314D01*
X217142436Y-115099098D01*
X217108410Y-115036786D01*
X217106010Y-114999022D01*
X217111132Y-114940476D01*
X217111132Y-114940475D01*
X217111611Y-114935000D01*
X217093204Y-114724606D01*
X217072074Y-114645747D01*
X217039965Y-114525915D01*
X217039964Y-114525913D01*
X217038542Y-114520605D01*
X217030560Y-114503487D01*
X216951609Y-114334176D01*
X216951607Y-114334173D01*
X216949286Y-114329195D01*
X216828148Y-114156191D01*
X216678809Y-114006852D01*
X216674301Y-114003695D01*
X216674298Y-114003693D01*
X216510315Y-113888871D01*
X216510313Y-113888870D01*
X216505806Y-113885714D01*
X216500824Y-113883391D01*
X216500819Y-113883388D01*
X216319377Y-113798781D01*
X216319376Y-113798781D01*
X216314395Y-113796458D01*
X216309087Y-113795036D01*
X216309085Y-113795035D01*
X216278004Y-113786707D01*
X216217381Y-113749755D01*
X216186360Y-113685894D01*
X216194788Y-113615400D01*
X216239991Y-113560653D01*
X216278004Y-113543293D01*
X216309085Y-113534965D01*
X216309087Y-113534964D01*
X216314395Y-113533542D01*
X216325703Y-113528269D01*
X216500819Y-113446612D01*
X216500824Y-113446609D01*
X216505806Y-113444286D01*
X216599204Y-113378888D01*
X216674298Y-113326307D01*
X216674301Y-113326305D01*
X216678809Y-113323148D01*
X216828148Y-113173809D01*
X216949286Y-113000805D01*
X216973406Y-112949081D01*
X217036219Y-112814377D01*
X217036220Y-112814376D01*
X217038542Y-112809395D01*
X217048102Y-112773719D01*
X217091780Y-112610709D01*
X217091780Y-112610707D01*
X217093204Y-112605394D01*
X217111611Y-112395000D01*
X217093204Y-112184606D01*
X217089382Y-112170342D01*
X217039965Y-111985915D01*
X217039964Y-111985913D01*
X217038542Y-111980605D01*
X217030560Y-111963487D01*
X216951609Y-111794176D01*
X216951607Y-111794173D01*
X216949286Y-111789195D01*
X216828148Y-111616191D01*
X216678809Y-111466852D01*
X216674301Y-111463695D01*
X216674298Y-111463693D01*
X216510315Y-111348871D01*
X216510312Y-111348869D01*
X216505806Y-111345714D01*
X216500824Y-111343391D01*
X216500819Y-111343388D01*
X216412479Y-111302195D01*
X216359194Y-111255278D01*
X216339733Y-111187001D01*
X216360275Y-111119041D01*
X216414298Y-111072975D01*
X216465729Y-111062000D01*
X216646634Y-111062000D01*
X216708816Y-111055245D01*
X216845205Y-111004115D01*
X216961761Y-110916761D01*
X217049115Y-110800205D01*
X217100245Y-110663816D01*
X217107000Y-110601634D01*
X217107000Y-109108366D01*
X217100245Y-109046184D01*
X217049115Y-108909795D01*
X216961761Y-108793239D01*
X216845205Y-108705885D01*
X216708816Y-108654755D01*
X216646634Y-108648000D01*
X215153366Y-108648000D01*
X215091184Y-108654755D01*
X214954795Y-108705885D01*
X214838239Y-108793239D01*
X214750885Y-108909795D01*
X214699755Y-109046184D01*
X214693000Y-109108366D01*
X214693000Y-110601634D01*
X214699755Y-110663816D01*
X214750885Y-110800205D01*
X214838239Y-110916761D01*
X214954795Y-111004115D01*
X215091184Y-111055245D01*
X215153366Y-111062000D01*
X215334272Y-111062000D01*
X215402393Y-111082002D01*
X215448886Y-111135658D01*
X215458990Y-111205932D01*
X215429496Y-111270512D01*
X215387522Y-111302195D01*
X215299176Y-111343391D01*
X215299173Y-111343393D01*
X215294195Y-111345714D01*
X215121191Y-111466852D01*
X214971852Y-111616191D01*
X214938050Y-111664465D01*
X214909099Y-111705812D01*
X214874970Y-111738914D01*
X214859861Y-111748820D01*
X214856178Y-111751143D01*
X214793419Y-111789227D01*
X214789214Y-111792941D01*
X214789211Y-111792943D01*
X214784995Y-111796667D01*
X214784969Y-111796638D01*
X214782038Y-111799238D01*
X214778684Y-111802042D01*
X214772565Y-111806054D01*
X214767533Y-111811366D01*
X214719012Y-111862586D01*
X214716634Y-111865028D01*
X213884472Y-112697190D01*
X213870059Y-112709577D01*
X213852436Y-112722546D01*
X213847692Y-112728129D01*
X213847693Y-112728129D01*
X213818021Y-112763055D01*
X213811091Y-112770571D01*
X213805347Y-112776315D01*
X213803073Y-112779189D01*
X213803067Y-112779196D01*
X213787628Y-112798711D01*
X213784837Y-112802115D01*
X213742055Y-112852472D01*
X213742052Y-112852476D01*
X213737316Y-112858051D01*
X213733988Y-112864568D01*
X213730611Y-112869632D01*
X213727384Y-112874856D01*
X213722840Y-112880600D01*
X213719741Y-112887231D01*
X213691768Y-112947082D01*
X213689837Y-112951033D01*
X213656457Y-113016404D01*
X213654716Y-113023519D01*
X213652579Y-113029265D01*
X213650655Y-113035048D01*
X213647556Y-113041679D01*
X213637113Y-113091890D01*
X213632608Y-113113547D01*
X213631639Y-113117829D01*
X213614196Y-113189112D01*
X213613500Y-113200330D01*
X213613461Y-113200328D01*
X213613228Y-113204229D01*
X213612839Y-113208588D01*
X213611348Y-113215756D01*
X213611546Y-113223073D01*
X213613454Y-113293577D01*
X213613500Y-113296986D01*
X213613500Y-125662624D01*
X213612067Y-125681574D01*
X213609876Y-125695973D01*
X213609876Y-125695979D01*
X213608776Y-125703208D01*
X212090000Y-125703208D01*
X212090000Y-104267000D01*
X213316502Y-104267000D01*
X213336457Y-104495087D01*
X213337881Y-104500400D01*
X213337881Y-104500402D01*
X213393972Y-104709733D01*
X213395716Y-104716243D01*
X213398039Y-104721224D01*
X213398039Y-104721225D01*
X213490151Y-104918762D01*
X213490154Y-104918767D01*
X213492477Y-104923749D01*
X213516082Y-104957460D01*
X213594444Y-105069372D01*
X213623802Y-105111300D01*
X213785700Y-105273198D01*
X213790208Y-105276355D01*
X213790211Y-105276357D01*
X213806052Y-105287449D01*
X213973251Y-105404523D01*
X213978233Y-105406846D01*
X213978238Y-105406849D01*
X214142717Y-105483546D01*
X214180757Y-105501284D01*
X214186065Y-105502706D01*
X214186067Y-105502707D01*
X214396598Y-105559119D01*
X214396600Y-105559119D01*
X214401913Y-105560543D01*
X214630000Y-105580498D01*
X214858087Y-105560543D01*
X214863400Y-105559119D01*
X214863402Y-105559119D01*
X215073933Y-105502707D01*
X215073935Y-105502706D01*
X215079243Y-105501284D01*
X215117283Y-105483546D01*
X215281762Y-105406849D01*
X215281767Y-105406846D01*
X215286749Y-105404523D01*
X215453948Y-105287449D01*
X215469789Y-105276357D01*
X215469792Y-105276355D01*
X215474300Y-105273198D01*
X215636198Y-105111300D01*
X215665557Y-105069372D01*
X215743918Y-104957460D01*
X215767523Y-104923749D01*
X215769846Y-104918767D01*
X215769849Y-104918762D01*
X215861961Y-104721225D01*
X215861961Y-104721224D01*
X215864284Y-104716243D01*
X215866029Y-104709733D01*
X215922119Y-104500402D01*
X215922119Y-104500400D01*
X215923543Y-104495087D01*
X215943498Y-104267000D01*
X215923543Y-104038913D01*
X215918018Y-104018293D01*
X215865707Y-103823067D01*
X215865706Y-103823065D01*
X215864284Y-103817757D01*
X215855140Y-103798148D01*
X215769849Y-103615238D01*
X215769846Y-103615233D01*
X215767523Y-103610251D01*
X215636198Y-103422700D01*
X215474300Y-103260802D01*
X215469792Y-103257645D01*
X215469789Y-103257643D01*
X215363937Y-103183525D01*
X215286749Y-103129477D01*
X215281767Y-103127154D01*
X215281762Y-103127151D01*
X215084225Y-103035039D01*
X215084224Y-103035039D01*
X215079243Y-103032716D01*
X215073935Y-103031294D01*
X215073933Y-103031293D01*
X214863402Y-102974881D01*
X214863400Y-102974881D01*
X214858087Y-102973457D01*
X214630000Y-102953502D01*
X214401913Y-102973457D01*
X214396600Y-102974881D01*
X214396598Y-102974881D01*
X214186067Y-103031293D01*
X214186065Y-103031294D01*
X214180757Y-103032716D01*
X214175776Y-103035039D01*
X214175775Y-103035039D01*
X213978238Y-103127151D01*
X213978233Y-103127154D01*
X213973251Y-103129477D01*
X213896063Y-103183525D01*
X213790211Y-103257643D01*
X213790208Y-103257645D01*
X213785700Y-103260802D01*
X213623802Y-103422700D01*
X213492477Y-103610251D01*
X213490154Y-103615233D01*
X213490151Y-103615238D01*
X213404860Y-103798148D01*
X213395716Y-103817757D01*
X213394294Y-103823065D01*
X213394293Y-103823067D01*
X213341982Y-104018293D01*
X213336457Y-104038913D01*
X213316502Y-104267000D01*
X212090000Y-104267000D01*
X212090000Y-100353062D01*
X213908493Y-100353062D01*
X213917789Y-100365077D01*
X213968994Y-100400931D01*
X213978489Y-100406414D01*
X214175947Y-100498490D01*
X214186239Y-100502236D01*
X214396688Y-100558625D01*
X214407481Y-100560528D01*
X214624525Y-100579517D01*
X214635475Y-100579517D01*
X214852519Y-100560528D01*
X214863312Y-100558625D01*
X215073761Y-100502236D01*
X215084053Y-100498490D01*
X215281511Y-100406414D01*
X215291006Y-100400931D01*
X215343048Y-100364491D01*
X215351424Y-100354012D01*
X215344356Y-100340566D01*
X214642812Y-99639022D01*
X214628868Y-99631408D01*
X214627035Y-99631539D01*
X214620420Y-99635790D01*
X213914923Y-100341287D01*
X213908493Y-100353062D01*
X212090000Y-100353062D01*
X212090000Y-99272475D01*
X213317483Y-99272475D01*
X213336472Y-99489519D01*
X213338375Y-99500312D01*
X213394764Y-99710761D01*
X213398510Y-99721053D01*
X213490586Y-99918511D01*
X213496069Y-99928006D01*
X213532509Y-99980048D01*
X213542988Y-99988424D01*
X213556434Y-99981356D01*
X214257978Y-99279812D01*
X214264356Y-99268132D01*
X214994408Y-99268132D01*
X214994539Y-99269965D01*
X214998790Y-99276580D01*
X215704287Y-99982077D01*
X215716062Y-99988507D01*
X215728077Y-99979211D01*
X215763931Y-99928006D01*
X215769414Y-99918511D01*
X215861490Y-99721053D01*
X215865236Y-99710761D01*
X215921625Y-99500312D01*
X215923528Y-99489519D01*
X215942517Y-99272475D01*
X215942517Y-99261525D01*
X215923528Y-99044481D01*
X215921625Y-99033688D01*
X215865236Y-98823239D01*
X215861490Y-98812947D01*
X215769414Y-98615489D01*
X215763931Y-98605994D01*
X215727491Y-98553952D01*
X215717012Y-98545576D01*
X215703566Y-98552644D01*
X215002022Y-99254188D01*
X214994408Y-99268132D01*
X214264356Y-99268132D01*
X214265592Y-99265868D01*
X214265461Y-99264035D01*
X214261210Y-99257420D01*
X213555713Y-98551923D01*
X213543938Y-98545493D01*
X213531923Y-98554789D01*
X213496069Y-98605994D01*
X213490586Y-98615489D01*
X213398510Y-98812947D01*
X213394764Y-98823239D01*
X213338375Y-99033688D01*
X213336472Y-99044481D01*
X213317483Y-99261525D01*
X213317483Y-99272475D01*
X212090000Y-99272475D01*
X212090000Y-98179988D01*
X213908576Y-98179988D01*
X213915644Y-98193434D01*
X214617188Y-98894978D01*
X214631132Y-98902592D01*
X214632965Y-98902461D01*
X214639580Y-98898210D01*
X215345077Y-98192713D01*
X215351507Y-98180938D01*
X215350772Y-98179988D01*
X230418576Y-98179988D01*
X230425644Y-98193434D01*
X231127188Y-98894978D01*
X231141132Y-98902592D01*
X231142965Y-98902461D01*
X231149580Y-98898210D01*
X231855077Y-98192713D01*
X231861507Y-98180938D01*
X231852211Y-98168923D01*
X231801006Y-98133069D01*
X231791511Y-98127586D01*
X231594053Y-98035510D01*
X231583761Y-98031764D01*
X231373312Y-97975375D01*
X231362519Y-97973472D01*
X231145475Y-97954483D01*
X231134525Y-97954483D01*
X230917481Y-97973472D01*
X230906688Y-97975375D01*
X230696239Y-98031764D01*
X230685947Y-98035510D01*
X230488489Y-98127586D01*
X230478994Y-98133069D01*
X230426952Y-98169509D01*
X230418576Y-98179988D01*
X215350772Y-98179988D01*
X215342211Y-98168923D01*
X215291006Y-98133069D01*
X215281511Y-98127586D01*
X215084053Y-98035510D01*
X215073761Y-98031764D01*
X214863312Y-97975375D01*
X214852519Y-97973472D01*
X214635475Y-97954483D01*
X214624525Y-97954483D01*
X214407481Y-97973472D01*
X214396688Y-97975375D01*
X214186239Y-98031764D01*
X214175947Y-98035510D01*
X213978489Y-98127586D01*
X213968994Y-98133069D01*
X213916952Y-98169509D01*
X213908576Y-98179988D01*
X212090000Y-98179988D01*
X212090000Y-97789500D01*
X212110002Y-97721379D01*
X212163658Y-97674886D01*
X212216000Y-97663500D01*
X284989000Y-97663500D01*
X285057121Y-97683502D01*
G37*
G04 #@! TD.AperFunction*
M02*
