G04 #@! TF.GenerationSoftware,KiCad,Pcbnew,(6.0.6)*
G04 #@! TF.CreationDate,2022-10-18T23:28:59+10:30*
G04 #@! TF.ProjectId,BBCROMRAM2014,42424352-4f4d-4524-914d-323031342e6b,rev?*
G04 #@! TF.SameCoordinates,Original*
G04 #@! TF.FileFunction,Soldermask,Top*
G04 #@! TF.FilePolarity,Negative*
%FSLAX46Y46*%
G04 Gerber Fmt 4.6, Leading zero omitted, Abs format (unit mm)*
G04 Created by KiCad (PCBNEW (6.0.6)) date 2022-10-18 23:28:59*
%MOMM*%
%LPD*%
G01*
G04 APERTURE LIST*
%ADD10R,1.397000X1.397000*%
%ADD11C,1.397000*%
%ADD12C,2.100000*%
%ADD13C,2.200000*%
%ADD14C,1.900000*%
%ADD15C,1.600000*%
G04 APERTURE END LIST*
D10*
X215900000Y-109855000D03*
D11*
X215900000Y-112395000D03*
X215900000Y-114935000D03*
X215900000Y-117475000D03*
X215900000Y-120015000D03*
X215900000Y-122555000D03*
X215900000Y-125095000D03*
D10*
X245110000Y-100330000D03*
D11*
X245110000Y-102870000D03*
X245110000Y-105410000D03*
X245110000Y-107950000D03*
X245110000Y-110490000D03*
X245110000Y-113030000D03*
X245110000Y-115570000D03*
X245110000Y-118110000D03*
X245110000Y-120650000D03*
X245110000Y-123190000D03*
X245110000Y-125730000D03*
X245110000Y-128270000D03*
X245110000Y-130810000D03*
X245110000Y-133350000D03*
X245110000Y-135890000D03*
X245110000Y-138430000D03*
X260350000Y-138430000D03*
X260350000Y-135890000D03*
X260350000Y-133350000D03*
X260350000Y-130810000D03*
X260350000Y-128270000D03*
X260350000Y-125730000D03*
X260350000Y-123190000D03*
X260350000Y-120650000D03*
X260350000Y-118110000D03*
X260350000Y-115570000D03*
X260350000Y-113030000D03*
X260350000Y-110490000D03*
X260350000Y-107950000D03*
X260350000Y-105410000D03*
X260350000Y-102870000D03*
X260350000Y-100330000D03*
D12*
X267970000Y-105410000D03*
D13*
X267970000Y-107950000D03*
D12*
X267970000Y-110490000D03*
X267970000Y-113030000D03*
X267970000Y-115570000D03*
X267970000Y-118110000D03*
X267970000Y-120650000D03*
X267970000Y-123190000D03*
X267970000Y-125730000D03*
X267970000Y-128270000D03*
X267970000Y-130810000D03*
X267970000Y-133350000D03*
X267970000Y-135890000D03*
X267970000Y-138430000D03*
X283210000Y-138430000D03*
X283210000Y-135890000D03*
X283210000Y-133350000D03*
X283210000Y-130810000D03*
X283210000Y-128270000D03*
X283210000Y-125730000D03*
X283210000Y-123190000D03*
X283210000Y-120650000D03*
X283210000Y-118110000D03*
X283210000Y-115570000D03*
X283210000Y-113030000D03*
X283210000Y-110490000D03*
X283210000Y-107950000D03*
X283210000Y-105410000D03*
D14*
X264160000Y-105410000D03*
X264160000Y-107950000D03*
X264160000Y-110490000D03*
X264160000Y-113030000D03*
X264160000Y-115570000D03*
X264160000Y-118110000D03*
X264160000Y-120650000D03*
X264160000Y-123190000D03*
X264160000Y-125730000D03*
X264160000Y-128270000D03*
X264160000Y-130810000D03*
X264160000Y-133350000D03*
X264160000Y-135890000D03*
X264160000Y-138430000D03*
X279400000Y-138430000D03*
X279400000Y-135890000D03*
X279400000Y-133350000D03*
X279400000Y-130810000D03*
X279400000Y-128270000D03*
X279400000Y-125730000D03*
X279400000Y-123190000D03*
X279400000Y-120650000D03*
X279400000Y-118110000D03*
X279400000Y-115570000D03*
X279400000Y-113030000D03*
X279400000Y-110490000D03*
X279400000Y-107950000D03*
X279400000Y-105410000D03*
D10*
X220980000Y-120650000D03*
D11*
X220980000Y-123190000D03*
X220980000Y-125730000D03*
X220980000Y-128270000D03*
X220980000Y-130810000D03*
X220980000Y-133350000D03*
X220980000Y-135890000D03*
X220980000Y-138430000D03*
X228600000Y-138430000D03*
X228600000Y-135890000D03*
X228600000Y-133350000D03*
X228600000Y-130810000D03*
X228600000Y-128270000D03*
X228600000Y-125730000D03*
X228600000Y-123190000D03*
X228600000Y-120650000D03*
D10*
X220980000Y-100330000D03*
D11*
X220980000Y-102870000D03*
X220980000Y-105410000D03*
X220980000Y-107950000D03*
X220980000Y-110490000D03*
X220980000Y-113030000D03*
X220980000Y-115570000D03*
X228600000Y-115570000D03*
X228600000Y-113030000D03*
X228600000Y-110490000D03*
X228600000Y-107950000D03*
X228600000Y-105410000D03*
X228600000Y-102870000D03*
X228600000Y-100330000D03*
D10*
X233680000Y-100330000D03*
D11*
X233680000Y-102870000D03*
X233680000Y-105410000D03*
X233680000Y-107950000D03*
X233680000Y-110490000D03*
X233680000Y-113030000D03*
X233680000Y-115570000D03*
X233680000Y-118110000D03*
X233680000Y-120650000D03*
X233680000Y-123190000D03*
X233680000Y-125730000D03*
X233680000Y-128270000D03*
X233680000Y-130810000D03*
X233680000Y-133350000D03*
X233680000Y-135890000D03*
X233680000Y-138430000D03*
X241300000Y-138430000D03*
X241300000Y-135890000D03*
X241300000Y-133350000D03*
X241300000Y-130810000D03*
X241300000Y-128270000D03*
X241300000Y-125730000D03*
X241300000Y-123190000D03*
X241300000Y-120650000D03*
X241300000Y-118110000D03*
X241300000Y-115570000D03*
X241300000Y-113030000D03*
X241300000Y-110490000D03*
X241300000Y-107950000D03*
X241300000Y-105410000D03*
X241300000Y-102870000D03*
X241300000Y-100330000D03*
D15*
X231140000Y-123190000D03*
X231140000Y-128190000D03*
X264160000Y-100330000D03*
X269160000Y-100330000D03*
X278257000Y-100330000D03*
X283257000Y-100330000D03*
X214630000Y-104267000D03*
X214630000Y-99267000D03*
X231140000Y-104267000D03*
X231140000Y-99267000D03*
M02*
