%FSLAX45Y45*%
G04 Gerber Fmt 4.5, Leading zero omitted, Abs format (unit mm)*
G04 Created by KiCad (PCBNEW (6.0.6)) date 2022-10-18 23:29:13*
%MOMM*%
%LPD*%
G01*
G04 APERTURE LIST*
%TA.AperFunction,Profile*%
%ADD10C,0.100000*%
%TD*%
%ADD11C,0.200000*%
%ADD12C,0.080000*%
%ADD13C,0.081280*%
%ADD14C,0.150000*%
%ADD15C,0.180000*%
G04 APERTURE END LIST*
D10*
X21145500Y-9715500D02*
X28575000Y-9715500D01*
X28575000Y-9715500D02*
X28575000Y-14160500D01*
X21145500Y-9715500D02*
X21145500Y-14160500D01*
X21145500Y-14160500D02*
X28575000Y-14160500D01*
D11*
D12*
X21423000Y-9886700D02*
X21503000Y-9966700D01*
X21503000Y-9886700D02*
X21423000Y-9966700D01*
X21423000Y-10386700D02*
X21503000Y-10466700D01*
X21503000Y-10386700D02*
X21423000Y-10466700D01*
X23074000Y-9886700D02*
X23154000Y-9966700D01*
X23154000Y-9886700D02*
X23074000Y-9966700D01*
X23074000Y-10386700D02*
X23154000Y-10466700D01*
X23154000Y-10386700D02*
X23074000Y-10466700D01*
X23074000Y-12279000D02*
X23154000Y-12359000D01*
X23154000Y-12279000D02*
X23074000Y-12359000D01*
X23074000Y-12779000D02*
X23154000Y-12859000D01*
X23154000Y-12779000D02*
X23074000Y-12859000D01*
X26376000Y-9993000D02*
X26456000Y-10073000D01*
X26456000Y-9993000D02*
X26376000Y-10073000D01*
X26876000Y-9993000D02*
X26956000Y-10073000D01*
X26956000Y-9993000D02*
X26876000Y-10073000D01*
X27785700Y-9993000D02*
X27865700Y-10073000D01*
X27865700Y-9993000D02*
X27785700Y-10073000D01*
X28285700Y-9993000D02*
X28365700Y-10073000D01*
X28365700Y-9993000D02*
X28285700Y-10073000D01*
D13*
X21630640Y-10985500D02*
G75*
G03*
X21630640Y-10985500I-40640J0D01*
G01*
X21630640Y-11239500D02*
G75*
G03*
X21630640Y-11239500I-40640J0D01*
G01*
X21630640Y-11493500D02*
G75*
G03*
X21630640Y-11493500I-40640J0D01*
G01*
X21630640Y-11747500D02*
G75*
G03*
X21630640Y-11747500I-40640J0D01*
G01*
X21630640Y-12001500D02*
G75*
G03*
X21630640Y-12001500I-40640J0D01*
G01*
X21630640Y-12255500D02*
G75*
G03*
X21630640Y-12255500I-40640J0D01*
G01*
X21630640Y-12509500D02*
G75*
G03*
X21630640Y-12509500I-40640J0D01*
G01*
X22138640Y-10033000D02*
G75*
G03*
X22138640Y-10033000I-40640J0D01*
G01*
X22138640Y-10287000D02*
G75*
G03*
X22138640Y-10287000I-40640J0D01*
G01*
X22138640Y-10541000D02*
G75*
G03*
X22138640Y-10541000I-40640J0D01*
G01*
X22138640Y-10795000D02*
G75*
G03*
X22138640Y-10795000I-40640J0D01*
G01*
X22138640Y-11049000D02*
G75*
G03*
X22138640Y-11049000I-40640J0D01*
G01*
X22138640Y-11303000D02*
G75*
G03*
X22138640Y-11303000I-40640J0D01*
G01*
X22138640Y-11557000D02*
G75*
G03*
X22138640Y-11557000I-40640J0D01*
G01*
X22138640Y-12065000D02*
G75*
G03*
X22138640Y-12065000I-40640J0D01*
G01*
X22138640Y-12319000D02*
G75*
G03*
X22138640Y-12319000I-40640J0D01*
G01*
X22138640Y-12573000D02*
G75*
G03*
X22138640Y-12573000I-40640J0D01*
G01*
X22138640Y-12827000D02*
G75*
G03*
X22138640Y-12827000I-40640J0D01*
G01*
X22138640Y-13081000D02*
G75*
G03*
X22138640Y-13081000I-40640J0D01*
G01*
X22138640Y-13335000D02*
G75*
G03*
X22138640Y-13335000I-40640J0D01*
G01*
X22138640Y-13589000D02*
G75*
G03*
X22138640Y-13589000I-40640J0D01*
G01*
X22138640Y-13843000D02*
G75*
G03*
X22138640Y-13843000I-40640J0D01*
G01*
X22900640Y-10033000D02*
G75*
G03*
X22900640Y-10033000I-40640J0D01*
G01*
X22900640Y-10287000D02*
G75*
G03*
X22900640Y-10287000I-40640J0D01*
G01*
X22900640Y-10541000D02*
G75*
G03*
X22900640Y-10541000I-40640J0D01*
G01*
X22900640Y-10795000D02*
G75*
G03*
X22900640Y-10795000I-40640J0D01*
G01*
X22900640Y-11049000D02*
G75*
G03*
X22900640Y-11049000I-40640J0D01*
G01*
X22900640Y-11303000D02*
G75*
G03*
X22900640Y-11303000I-40640J0D01*
G01*
X22900640Y-11557000D02*
G75*
G03*
X22900640Y-11557000I-40640J0D01*
G01*
X22900640Y-12065000D02*
G75*
G03*
X22900640Y-12065000I-40640J0D01*
G01*
X22900640Y-12319000D02*
G75*
G03*
X22900640Y-12319000I-40640J0D01*
G01*
X22900640Y-12573000D02*
G75*
G03*
X22900640Y-12573000I-40640J0D01*
G01*
X22900640Y-12827000D02*
G75*
G03*
X22900640Y-12827000I-40640J0D01*
G01*
X22900640Y-13081000D02*
G75*
G03*
X22900640Y-13081000I-40640J0D01*
G01*
X22900640Y-13335000D02*
G75*
G03*
X22900640Y-13335000I-40640J0D01*
G01*
X22900640Y-13589000D02*
G75*
G03*
X22900640Y-13589000I-40640J0D01*
G01*
X22900640Y-13843000D02*
G75*
G03*
X22900640Y-13843000I-40640J0D01*
G01*
X23408640Y-10033000D02*
G75*
G03*
X23408640Y-10033000I-40640J0D01*
G01*
X23408640Y-10287000D02*
G75*
G03*
X23408640Y-10287000I-40640J0D01*
G01*
X23408640Y-10541000D02*
G75*
G03*
X23408640Y-10541000I-40640J0D01*
G01*
X23408640Y-10795000D02*
G75*
G03*
X23408640Y-10795000I-40640J0D01*
G01*
X23408640Y-11049000D02*
G75*
G03*
X23408640Y-11049000I-40640J0D01*
G01*
X23408640Y-11303000D02*
G75*
G03*
X23408640Y-11303000I-40640J0D01*
G01*
X23408640Y-11557000D02*
G75*
G03*
X23408640Y-11557000I-40640J0D01*
G01*
X23408640Y-11811000D02*
G75*
G03*
X23408640Y-11811000I-40640J0D01*
G01*
X23408640Y-12065000D02*
G75*
G03*
X23408640Y-12065000I-40640J0D01*
G01*
X23408640Y-12319000D02*
G75*
G03*
X23408640Y-12319000I-40640J0D01*
G01*
X23408640Y-12573000D02*
G75*
G03*
X23408640Y-12573000I-40640J0D01*
G01*
X23408640Y-12827000D02*
G75*
G03*
X23408640Y-12827000I-40640J0D01*
G01*
X23408640Y-13081000D02*
G75*
G03*
X23408640Y-13081000I-40640J0D01*
G01*
X23408640Y-13335000D02*
G75*
G03*
X23408640Y-13335000I-40640J0D01*
G01*
X23408640Y-13589000D02*
G75*
G03*
X23408640Y-13589000I-40640J0D01*
G01*
X23408640Y-13843000D02*
G75*
G03*
X23408640Y-13843000I-40640J0D01*
G01*
X24170640Y-10033000D02*
G75*
G03*
X24170640Y-10033000I-40640J0D01*
G01*
X24170640Y-10287000D02*
G75*
G03*
X24170640Y-10287000I-40640J0D01*
G01*
X24170640Y-10541000D02*
G75*
G03*
X24170640Y-10541000I-40640J0D01*
G01*
X24170640Y-10795000D02*
G75*
G03*
X24170640Y-10795000I-40640J0D01*
G01*
X24170640Y-11049000D02*
G75*
G03*
X24170640Y-11049000I-40640J0D01*
G01*
X24170640Y-11303000D02*
G75*
G03*
X24170640Y-11303000I-40640J0D01*
G01*
X24170640Y-11557000D02*
G75*
G03*
X24170640Y-11557000I-40640J0D01*
G01*
X24170640Y-11811000D02*
G75*
G03*
X24170640Y-11811000I-40640J0D01*
G01*
X24170640Y-12065000D02*
G75*
G03*
X24170640Y-12065000I-40640J0D01*
G01*
X24170640Y-12319000D02*
G75*
G03*
X24170640Y-12319000I-40640J0D01*
G01*
X24170640Y-12573000D02*
G75*
G03*
X24170640Y-12573000I-40640J0D01*
G01*
X24170640Y-12827000D02*
G75*
G03*
X24170640Y-12827000I-40640J0D01*
G01*
X24170640Y-13081000D02*
G75*
G03*
X24170640Y-13081000I-40640J0D01*
G01*
X24170640Y-13335000D02*
G75*
G03*
X24170640Y-13335000I-40640J0D01*
G01*
X24170640Y-13589000D02*
G75*
G03*
X24170640Y-13589000I-40640J0D01*
G01*
X24170640Y-13843000D02*
G75*
G03*
X24170640Y-13843000I-40640J0D01*
G01*
X24551640Y-10033000D02*
G75*
G03*
X24551640Y-10033000I-40640J0D01*
G01*
X24551640Y-10287000D02*
G75*
G03*
X24551640Y-10287000I-40640J0D01*
G01*
X24551640Y-10541000D02*
G75*
G03*
X24551640Y-10541000I-40640J0D01*
G01*
X24551640Y-10795000D02*
G75*
G03*
X24551640Y-10795000I-40640J0D01*
G01*
X24551640Y-11049000D02*
G75*
G03*
X24551640Y-11049000I-40640J0D01*
G01*
X24551640Y-11303000D02*
G75*
G03*
X24551640Y-11303000I-40640J0D01*
G01*
X24551640Y-11557000D02*
G75*
G03*
X24551640Y-11557000I-40640J0D01*
G01*
X24551640Y-11811000D02*
G75*
G03*
X24551640Y-11811000I-40640J0D01*
G01*
X24551640Y-12065000D02*
G75*
G03*
X24551640Y-12065000I-40640J0D01*
G01*
X24551640Y-12319000D02*
G75*
G03*
X24551640Y-12319000I-40640J0D01*
G01*
X24551640Y-12573000D02*
G75*
G03*
X24551640Y-12573000I-40640J0D01*
G01*
X24551640Y-12827000D02*
G75*
G03*
X24551640Y-12827000I-40640J0D01*
G01*
X24551640Y-13081000D02*
G75*
G03*
X24551640Y-13081000I-40640J0D01*
G01*
X24551640Y-13335000D02*
G75*
G03*
X24551640Y-13335000I-40640J0D01*
G01*
X24551640Y-13589000D02*
G75*
G03*
X24551640Y-13589000I-40640J0D01*
G01*
X24551640Y-13843000D02*
G75*
G03*
X24551640Y-13843000I-40640J0D01*
G01*
X26075640Y-10033000D02*
G75*
G03*
X26075640Y-10033000I-40640J0D01*
G01*
X26075640Y-10287000D02*
G75*
G03*
X26075640Y-10287000I-40640J0D01*
G01*
X26075640Y-10541000D02*
G75*
G03*
X26075640Y-10541000I-40640J0D01*
G01*
X26075640Y-10795000D02*
G75*
G03*
X26075640Y-10795000I-40640J0D01*
G01*
X26075640Y-11049000D02*
G75*
G03*
X26075640Y-11049000I-40640J0D01*
G01*
X26075640Y-11303000D02*
G75*
G03*
X26075640Y-11303000I-40640J0D01*
G01*
X26075640Y-11557000D02*
G75*
G03*
X26075640Y-11557000I-40640J0D01*
G01*
X26075640Y-11811000D02*
G75*
G03*
X26075640Y-11811000I-40640J0D01*
G01*
X26075640Y-12065000D02*
G75*
G03*
X26075640Y-12065000I-40640J0D01*
G01*
X26075640Y-12319000D02*
G75*
G03*
X26075640Y-12319000I-40640J0D01*
G01*
X26075640Y-12573000D02*
G75*
G03*
X26075640Y-12573000I-40640J0D01*
G01*
X26075640Y-12827000D02*
G75*
G03*
X26075640Y-12827000I-40640J0D01*
G01*
X26075640Y-13081000D02*
G75*
G03*
X26075640Y-13081000I-40640J0D01*
G01*
X26075640Y-13335000D02*
G75*
G03*
X26075640Y-13335000I-40640J0D01*
G01*
X26075640Y-13589000D02*
G75*
G03*
X26075640Y-13589000I-40640J0D01*
G01*
X26075640Y-13843000D02*
G75*
G03*
X26075640Y-13843000I-40640J0D01*
G01*
D14*
X26416000Y-10466000D02*
X26416000Y-10616000D01*
X26341000Y-10541000D02*
X26491000Y-10541000D01*
X26416000Y-10720000D02*
X26416000Y-10870000D01*
X26341000Y-10795000D02*
X26491000Y-10795000D01*
X26416000Y-10974000D02*
X26416000Y-11124000D01*
X26341000Y-11049000D02*
X26491000Y-11049000D01*
X26416000Y-11228000D02*
X26416000Y-11378000D01*
X26341000Y-11303000D02*
X26491000Y-11303000D01*
X26416000Y-11482000D02*
X26416000Y-11632000D01*
X26341000Y-11557000D02*
X26491000Y-11557000D01*
X26416000Y-11736000D02*
X26416000Y-11886000D01*
X26341000Y-11811000D02*
X26491000Y-11811000D01*
X26416000Y-11990000D02*
X26416000Y-12140000D01*
X26341000Y-12065000D02*
X26491000Y-12065000D01*
X26416000Y-12244000D02*
X26416000Y-12394000D01*
X26341000Y-12319000D02*
X26491000Y-12319000D01*
X26416000Y-12498000D02*
X26416000Y-12648000D01*
X26341000Y-12573000D02*
X26491000Y-12573000D01*
X26416000Y-12752000D02*
X26416000Y-12902000D01*
X26341000Y-12827000D02*
X26491000Y-12827000D01*
X26416000Y-13006000D02*
X26416000Y-13156000D01*
X26341000Y-13081000D02*
X26491000Y-13081000D01*
X26416000Y-13260000D02*
X26416000Y-13410000D01*
X26341000Y-13335000D02*
X26491000Y-13335000D01*
X26416000Y-13514000D02*
X26416000Y-13664000D01*
X26341000Y-13589000D02*
X26491000Y-13589000D01*
X26416000Y-13768000D02*
X26416000Y-13918000D01*
X26341000Y-13843000D02*
X26491000Y-13843000D01*
X27940000Y-10466000D02*
X27940000Y-10616000D01*
X27865000Y-10541000D02*
X28015000Y-10541000D01*
X27940000Y-10720000D02*
X27940000Y-10870000D01*
X27865000Y-10795000D02*
X28015000Y-10795000D01*
X27940000Y-10974000D02*
X27940000Y-11124000D01*
X27865000Y-11049000D02*
X28015000Y-11049000D01*
X27940000Y-11228000D02*
X27940000Y-11378000D01*
X27865000Y-11303000D02*
X28015000Y-11303000D01*
X27940000Y-11482000D02*
X27940000Y-11632000D01*
X27865000Y-11557000D02*
X28015000Y-11557000D01*
X27940000Y-11736000D02*
X27940000Y-11886000D01*
X27865000Y-11811000D02*
X28015000Y-11811000D01*
X27940000Y-11990000D02*
X27940000Y-12140000D01*
X27865000Y-12065000D02*
X28015000Y-12065000D01*
X27940000Y-12244000D02*
X27940000Y-12394000D01*
X27865000Y-12319000D02*
X28015000Y-12319000D01*
X27940000Y-12498000D02*
X27940000Y-12648000D01*
X27865000Y-12573000D02*
X28015000Y-12573000D01*
X27940000Y-12752000D02*
X27940000Y-12902000D01*
X27865000Y-12827000D02*
X28015000Y-12827000D01*
X27940000Y-13006000D02*
X27940000Y-13156000D01*
X27865000Y-13081000D02*
X28015000Y-13081000D01*
X27940000Y-13260000D02*
X27940000Y-13410000D01*
X27865000Y-13335000D02*
X28015000Y-13335000D01*
X27940000Y-13514000D02*
X27940000Y-13664000D01*
X27865000Y-13589000D02*
X28015000Y-13589000D01*
X27940000Y-13768000D02*
X27940000Y-13918000D01*
X27865000Y-13843000D02*
X28015000Y-13843000D01*
D15*
X26860640Y-10604640D02*
X26860640Y-10477360D01*
X26733360Y-10477360D01*
X26733360Y-10604640D01*
X26860640Y-10604640D01*
X26860640Y-10858640D02*
X26860640Y-10731360D01*
X26733360Y-10731360D01*
X26733360Y-10858640D01*
X26860640Y-10858640D01*
X26860640Y-11112640D02*
X26860640Y-10985360D01*
X26733360Y-10985360D01*
X26733360Y-11112640D01*
X26860640Y-11112640D01*
X26860640Y-11366640D02*
X26860640Y-11239360D01*
X26733360Y-11239360D01*
X26733360Y-11366640D01*
X26860640Y-11366640D01*
X26860640Y-11620640D02*
X26860640Y-11493360D01*
X26733360Y-11493360D01*
X26733360Y-11620640D01*
X26860640Y-11620640D01*
X26860640Y-11874640D02*
X26860640Y-11747360D01*
X26733360Y-11747360D01*
X26733360Y-11874640D01*
X26860640Y-11874640D01*
X26860640Y-12128640D02*
X26860640Y-12001360D01*
X26733360Y-12001360D01*
X26733360Y-12128640D01*
X26860640Y-12128640D01*
X26860640Y-12382640D02*
X26860640Y-12255360D01*
X26733360Y-12255360D01*
X26733360Y-12382640D01*
X26860640Y-12382640D01*
X26860640Y-12636640D02*
X26860640Y-12509360D01*
X26733360Y-12509360D01*
X26733360Y-12636640D01*
X26860640Y-12636640D01*
X26860640Y-12890640D02*
X26860640Y-12763360D01*
X26733360Y-12763360D01*
X26733360Y-12890640D01*
X26860640Y-12890640D01*
X26860640Y-13144640D02*
X26860640Y-13017360D01*
X26733360Y-13017360D01*
X26733360Y-13144640D01*
X26860640Y-13144640D01*
X26860640Y-13398640D02*
X26860640Y-13271360D01*
X26733360Y-13271360D01*
X26733360Y-13398640D01*
X26860640Y-13398640D01*
X26860640Y-13652640D02*
X26860640Y-13525360D01*
X26733360Y-13525360D01*
X26733360Y-13652640D01*
X26860640Y-13652640D01*
X26860640Y-13906640D02*
X26860640Y-13779360D01*
X26733360Y-13779360D01*
X26733360Y-13906640D01*
X26860640Y-13906640D01*
X28384640Y-10604640D02*
X28384640Y-10477360D01*
X28257360Y-10477360D01*
X28257360Y-10604640D01*
X28384640Y-10604640D01*
X28384640Y-10858640D02*
X28384640Y-10731360D01*
X28257360Y-10731360D01*
X28257360Y-10858640D01*
X28384640Y-10858640D01*
X28384640Y-11112640D02*
X28384640Y-10985360D01*
X28257360Y-10985360D01*
X28257360Y-11112640D01*
X28384640Y-11112640D01*
X28384640Y-11366640D02*
X28384640Y-11239360D01*
X28257360Y-11239360D01*
X28257360Y-11366640D01*
X28384640Y-11366640D01*
X28384640Y-11620640D02*
X28384640Y-11493360D01*
X28257360Y-11493360D01*
X28257360Y-11620640D01*
X28384640Y-11620640D01*
X28384640Y-11874640D02*
X28384640Y-11747360D01*
X28257360Y-11747360D01*
X28257360Y-11874640D01*
X28384640Y-11874640D01*
X28384640Y-12128640D02*
X28384640Y-12001360D01*
X28257360Y-12001360D01*
X28257360Y-12128640D01*
X28384640Y-12128640D01*
X28384640Y-12382640D02*
X28384640Y-12255360D01*
X28257360Y-12255360D01*
X28257360Y-12382640D01*
X28384640Y-12382640D01*
X28384640Y-12636640D02*
X28384640Y-12509360D01*
X28257360Y-12509360D01*
X28257360Y-12636640D01*
X28384640Y-12636640D01*
X28384640Y-12890640D02*
X28384640Y-12763360D01*
X28257360Y-12763360D01*
X28257360Y-12890640D01*
X28384640Y-12890640D01*
X28384640Y-13144640D02*
X28384640Y-13017360D01*
X28257360Y-13017360D01*
X28257360Y-13144640D01*
X28384640Y-13144640D01*
X28384640Y-13398640D02*
X28384640Y-13271360D01*
X28257360Y-13271360D01*
X28257360Y-13398640D01*
X28384640Y-13398640D01*
X28384640Y-13652640D02*
X28384640Y-13525360D01*
X28257360Y-13525360D01*
X28257360Y-13652640D01*
X28384640Y-13652640D01*
X28384640Y-13906640D02*
X28384640Y-13779360D01*
X28257360Y-13779360D01*
X28257360Y-13906640D01*
X28384640Y-13906640D01*
D11*
X21398119Y-14475976D02*
X21398119Y-14275976D01*
X21445738Y-14275976D01*
X21474310Y-14285500D01*
X21493357Y-14304548D01*
X21502881Y-14323595D01*
X21512405Y-14361690D01*
X21512405Y-14390262D01*
X21502881Y-14428357D01*
X21493357Y-14447405D01*
X21474310Y-14466452D01*
X21445738Y-14475976D01*
X21398119Y-14475976D01*
X21598119Y-14475976D02*
X21598119Y-14342643D01*
X21598119Y-14380738D02*
X21607643Y-14361690D01*
X21617167Y-14352167D01*
X21636214Y-14342643D01*
X21655262Y-14342643D01*
X21721929Y-14475976D02*
X21721929Y-14342643D01*
X21721929Y-14275976D02*
X21712405Y-14285500D01*
X21721929Y-14295024D01*
X21731452Y-14285500D01*
X21721929Y-14275976D01*
X21721929Y-14295024D01*
X21845738Y-14475976D02*
X21826690Y-14466452D01*
X21817167Y-14447405D01*
X21817167Y-14275976D01*
X21950500Y-14475976D02*
X21931452Y-14466452D01*
X21921929Y-14447405D01*
X21921929Y-14275976D01*
X22179071Y-14475976D02*
X22179071Y-14275976D01*
X22245738Y-14418833D01*
X22312405Y-14275976D01*
X22312405Y-14475976D01*
X22493357Y-14475976D02*
X22493357Y-14371214D01*
X22483833Y-14352167D01*
X22464786Y-14342643D01*
X22426690Y-14342643D01*
X22407643Y-14352167D01*
X22493357Y-14466452D02*
X22474309Y-14475976D01*
X22426690Y-14475976D01*
X22407643Y-14466452D01*
X22398119Y-14447405D01*
X22398119Y-14428357D01*
X22407643Y-14409309D01*
X22426690Y-14399786D01*
X22474309Y-14399786D01*
X22493357Y-14390262D01*
X22588595Y-14342643D02*
X22588595Y-14542643D01*
X22588595Y-14352167D02*
X22607643Y-14342643D01*
X22645738Y-14342643D01*
X22664786Y-14352167D01*
X22674309Y-14361690D01*
X22683833Y-14380738D01*
X22683833Y-14437881D01*
X22674309Y-14456928D01*
X22664786Y-14466452D01*
X22645738Y-14475976D01*
X22607643Y-14475976D01*
X22588595Y-14466452D01*
X22769548Y-14456928D02*
X22779071Y-14466452D01*
X22769548Y-14475976D01*
X22760024Y-14466452D01*
X22769548Y-14456928D01*
X22769548Y-14475976D01*
X22769548Y-14352167D02*
X22779071Y-14361690D01*
X22769548Y-14371214D01*
X22760024Y-14361690D01*
X22769548Y-14352167D01*
X22769548Y-14371214D01*
D12*
X21060500Y-14765500D02*
X21140500Y-14845500D01*
X21140500Y-14765500D02*
X21060500Y-14845500D01*
D11*
X21436214Y-14695976D02*
X21455262Y-14695976D01*
X21474310Y-14705500D01*
X21483833Y-14715024D01*
X21493357Y-14734071D01*
X21502881Y-14772167D01*
X21502881Y-14819786D01*
X21493357Y-14857881D01*
X21483833Y-14876928D01*
X21474310Y-14886452D01*
X21455262Y-14895976D01*
X21436214Y-14895976D01*
X21417167Y-14886452D01*
X21407643Y-14876928D01*
X21398119Y-14857881D01*
X21388595Y-14819786D01*
X21388595Y-14772167D01*
X21398119Y-14734071D01*
X21407643Y-14715024D01*
X21417167Y-14705500D01*
X21436214Y-14695976D01*
X21588595Y-14876928D02*
X21598119Y-14886452D01*
X21588595Y-14895976D01*
X21579071Y-14886452D01*
X21588595Y-14876928D01*
X21588595Y-14895976D01*
X21712405Y-14781690D02*
X21693357Y-14772167D01*
X21683833Y-14762643D01*
X21674310Y-14743595D01*
X21674310Y-14734071D01*
X21683833Y-14715024D01*
X21693357Y-14705500D01*
X21712405Y-14695976D01*
X21750500Y-14695976D01*
X21769548Y-14705500D01*
X21779071Y-14715024D01*
X21788595Y-14734071D01*
X21788595Y-14743595D01*
X21779071Y-14762643D01*
X21769548Y-14772167D01*
X21750500Y-14781690D01*
X21712405Y-14781690D01*
X21693357Y-14791214D01*
X21683833Y-14800738D01*
X21674310Y-14819786D01*
X21674310Y-14857881D01*
X21683833Y-14876928D01*
X21693357Y-14886452D01*
X21712405Y-14895976D01*
X21750500Y-14895976D01*
X21769548Y-14886452D01*
X21779071Y-14876928D01*
X21788595Y-14857881D01*
X21788595Y-14819786D01*
X21779071Y-14800738D01*
X21769548Y-14791214D01*
X21750500Y-14781690D01*
X21912405Y-14695976D02*
X21931452Y-14695976D01*
X21950500Y-14705500D01*
X21960024Y-14715024D01*
X21969548Y-14734071D01*
X21979071Y-14772167D01*
X21979071Y-14819786D01*
X21969548Y-14857881D01*
X21960024Y-14876928D01*
X21950500Y-14886452D01*
X21931452Y-14895976D01*
X21912405Y-14895976D01*
X21893357Y-14886452D01*
X21883833Y-14876928D01*
X21874310Y-14857881D01*
X21864786Y-14819786D01*
X21864786Y-14772167D01*
X21874310Y-14734071D01*
X21883833Y-14715024D01*
X21893357Y-14705500D01*
X21912405Y-14695976D01*
X22102881Y-14695976D02*
X22121929Y-14695976D01*
X22140976Y-14705500D01*
X22150500Y-14715024D01*
X22160024Y-14734071D01*
X22169548Y-14772167D01*
X22169548Y-14819786D01*
X22160024Y-14857881D01*
X22150500Y-14876928D01*
X22140976Y-14886452D01*
X22121929Y-14895976D01*
X22102881Y-14895976D01*
X22083833Y-14886452D01*
X22074310Y-14876928D01*
X22064786Y-14857881D01*
X22055262Y-14819786D01*
X22055262Y-14772167D01*
X22064786Y-14734071D01*
X22074310Y-14715024D01*
X22083833Y-14705500D01*
X22102881Y-14695976D01*
X22255262Y-14895976D02*
X22255262Y-14762643D01*
X22255262Y-14781690D02*
X22264786Y-14772167D01*
X22283833Y-14762643D01*
X22312405Y-14762643D01*
X22331452Y-14772167D01*
X22340976Y-14791214D01*
X22340976Y-14895976D01*
X22340976Y-14791214D02*
X22350500Y-14772167D01*
X22369548Y-14762643D01*
X22398119Y-14762643D01*
X22417167Y-14772167D01*
X22426690Y-14791214D01*
X22426690Y-14895976D01*
X22521928Y-14895976D02*
X22521928Y-14762643D01*
X22521928Y-14781690D02*
X22531452Y-14772167D01*
X22550500Y-14762643D01*
X22579071Y-14762643D01*
X22598119Y-14772167D01*
X22607643Y-14791214D01*
X22607643Y-14895976D01*
X22607643Y-14791214D02*
X22617167Y-14772167D01*
X22636214Y-14762643D01*
X22664786Y-14762643D01*
X22683833Y-14772167D01*
X22693357Y-14791214D01*
X22693357Y-14895976D01*
X23083833Y-14686452D02*
X22912405Y-14943595D01*
X23340976Y-14695976D02*
X23360024Y-14695976D01*
X23379071Y-14705500D01*
X23388595Y-14715024D01*
X23398119Y-14734071D01*
X23407643Y-14772167D01*
X23407643Y-14819786D01*
X23398119Y-14857881D01*
X23388595Y-14876928D01*
X23379071Y-14886452D01*
X23360024Y-14895976D01*
X23340976Y-14895976D01*
X23321928Y-14886452D01*
X23312405Y-14876928D01*
X23302881Y-14857881D01*
X23293357Y-14819786D01*
X23293357Y-14772167D01*
X23302881Y-14734071D01*
X23312405Y-14715024D01*
X23321928Y-14705500D01*
X23340976Y-14695976D01*
X23493357Y-14876928D02*
X23502881Y-14886452D01*
X23493357Y-14895976D01*
X23483833Y-14886452D01*
X23493357Y-14876928D01*
X23493357Y-14895976D01*
X23626690Y-14695976D02*
X23645738Y-14695976D01*
X23664786Y-14705500D01*
X23674309Y-14715024D01*
X23683833Y-14734071D01*
X23693357Y-14772167D01*
X23693357Y-14819786D01*
X23683833Y-14857881D01*
X23674309Y-14876928D01*
X23664786Y-14886452D01*
X23645738Y-14895976D01*
X23626690Y-14895976D01*
X23607643Y-14886452D01*
X23598119Y-14876928D01*
X23588595Y-14857881D01*
X23579071Y-14819786D01*
X23579071Y-14772167D01*
X23588595Y-14734071D01*
X23598119Y-14715024D01*
X23607643Y-14705500D01*
X23626690Y-14695976D01*
X23760024Y-14695976D02*
X23883833Y-14695976D01*
X23817167Y-14772167D01*
X23845738Y-14772167D01*
X23864786Y-14781690D01*
X23874309Y-14791214D01*
X23883833Y-14810262D01*
X23883833Y-14857881D01*
X23874309Y-14876928D01*
X23864786Y-14886452D01*
X23845738Y-14895976D01*
X23788595Y-14895976D01*
X23769548Y-14886452D01*
X23760024Y-14876928D01*
X24074309Y-14895976D02*
X23960024Y-14895976D01*
X24017167Y-14895976D02*
X24017167Y-14695976D01*
X23998119Y-14724548D01*
X23979071Y-14743595D01*
X23960024Y-14753119D01*
X24255262Y-14695976D02*
X24160024Y-14695976D01*
X24150500Y-14791214D01*
X24160024Y-14781690D01*
X24179071Y-14772167D01*
X24226690Y-14772167D01*
X24245738Y-14781690D01*
X24255262Y-14791214D01*
X24264786Y-14810262D01*
X24264786Y-14857881D01*
X24255262Y-14876928D01*
X24245738Y-14886452D01*
X24226690Y-14895976D01*
X24179071Y-14895976D01*
X24160024Y-14886452D01*
X24150500Y-14876928D01*
X24340976Y-14695976D02*
X24340976Y-14734071D01*
X24417167Y-14695976D02*
X24417167Y-14734071D01*
X24712405Y-14972167D02*
X24702881Y-14962643D01*
X24683833Y-14934071D01*
X24674309Y-14915024D01*
X24664786Y-14886452D01*
X24655262Y-14838833D01*
X24655262Y-14800738D01*
X24664786Y-14753119D01*
X24674309Y-14724548D01*
X24683833Y-14705500D01*
X24702881Y-14676928D01*
X24712405Y-14667405D01*
X24893357Y-14895976D02*
X24779071Y-14895976D01*
X24836214Y-14895976D02*
X24836214Y-14695976D01*
X24817167Y-14724548D01*
X24798119Y-14743595D01*
X24779071Y-14753119D01*
X25017167Y-14695976D02*
X25036214Y-14695976D01*
X25055262Y-14705500D01*
X25064786Y-14715024D01*
X25074309Y-14734071D01*
X25083833Y-14772167D01*
X25083833Y-14819786D01*
X25074309Y-14857881D01*
X25064786Y-14876928D01*
X25055262Y-14886452D01*
X25036214Y-14895976D01*
X25017167Y-14895976D01*
X24998119Y-14886452D01*
X24988595Y-14876928D01*
X24979071Y-14857881D01*
X24969548Y-14819786D01*
X24969548Y-14772167D01*
X24979071Y-14734071D01*
X24988595Y-14715024D01*
X24998119Y-14705500D01*
X25017167Y-14695976D01*
X25321928Y-14895976D02*
X25321928Y-14695976D01*
X25407643Y-14895976D02*
X25407643Y-14791214D01*
X25398119Y-14772167D01*
X25379071Y-14762643D01*
X25350500Y-14762643D01*
X25331452Y-14772167D01*
X25321928Y-14781690D01*
X25531452Y-14895976D02*
X25512405Y-14886452D01*
X25502881Y-14876928D01*
X25493357Y-14857881D01*
X25493357Y-14800738D01*
X25502881Y-14781690D01*
X25512405Y-14772167D01*
X25531452Y-14762643D01*
X25560024Y-14762643D01*
X25579071Y-14772167D01*
X25588595Y-14781690D01*
X25598119Y-14800738D01*
X25598119Y-14857881D01*
X25588595Y-14876928D01*
X25579071Y-14886452D01*
X25560024Y-14895976D01*
X25531452Y-14895976D01*
X25712405Y-14895976D02*
X25693357Y-14886452D01*
X25683833Y-14867405D01*
X25683833Y-14695976D01*
X25864786Y-14886452D02*
X25845738Y-14895976D01*
X25807643Y-14895976D01*
X25788595Y-14886452D01*
X25779071Y-14867405D01*
X25779071Y-14791214D01*
X25788595Y-14772167D01*
X25807643Y-14762643D01*
X25845738Y-14762643D01*
X25864786Y-14772167D01*
X25874309Y-14791214D01*
X25874309Y-14810262D01*
X25779071Y-14829309D01*
X25950500Y-14886452D02*
X25969548Y-14895976D01*
X26007643Y-14895976D01*
X26026690Y-14886452D01*
X26036214Y-14867405D01*
X26036214Y-14857881D01*
X26026690Y-14838833D01*
X26007643Y-14829309D01*
X25979071Y-14829309D01*
X25960024Y-14819786D01*
X25950500Y-14800738D01*
X25950500Y-14791214D01*
X25960024Y-14772167D01*
X25979071Y-14762643D01*
X26007643Y-14762643D01*
X26026690Y-14772167D01*
X26102881Y-14972167D02*
X26112405Y-14962643D01*
X26131452Y-14934071D01*
X26140976Y-14915024D01*
X26150500Y-14886452D01*
X26160024Y-14838833D01*
X26160024Y-14800738D01*
X26150500Y-14753119D01*
X26140976Y-14724548D01*
X26131452Y-14705500D01*
X26112405Y-14676928D01*
X26102881Y-14667405D01*
D13*
X21140500Y-15069500D02*
G75*
G03*
X21140500Y-15069500I-40640J0D01*
G01*
D11*
X21436214Y-14959976D02*
X21455262Y-14959976D01*
X21474310Y-14969500D01*
X21483833Y-14979024D01*
X21493357Y-14998071D01*
X21502881Y-15036167D01*
X21502881Y-15083786D01*
X21493357Y-15121881D01*
X21483833Y-15140928D01*
X21474310Y-15150452D01*
X21455262Y-15159976D01*
X21436214Y-15159976D01*
X21417167Y-15150452D01*
X21407643Y-15140928D01*
X21398119Y-15121881D01*
X21388595Y-15083786D01*
X21388595Y-15036167D01*
X21398119Y-14998071D01*
X21407643Y-14979024D01*
X21417167Y-14969500D01*
X21436214Y-14959976D01*
X21588595Y-15140928D02*
X21598119Y-15150452D01*
X21588595Y-15159976D01*
X21579071Y-15150452D01*
X21588595Y-15140928D01*
X21588595Y-15159976D01*
X21712405Y-15045690D02*
X21693357Y-15036167D01*
X21683833Y-15026643D01*
X21674310Y-15007595D01*
X21674310Y-14998071D01*
X21683833Y-14979024D01*
X21693357Y-14969500D01*
X21712405Y-14959976D01*
X21750500Y-14959976D01*
X21769548Y-14969500D01*
X21779071Y-14979024D01*
X21788595Y-14998071D01*
X21788595Y-15007595D01*
X21779071Y-15026643D01*
X21769548Y-15036167D01*
X21750500Y-15045690D01*
X21712405Y-15045690D01*
X21693357Y-15055214D01*
X21683833Y-15064738D01*
X21674310Y-15083786D01*
X21674310Y-15121881D01*
X21683833Y-15140928D01*
X21693357Y-15150452D01*
X21712405Y-15159976D01*
X21750500Y-15159976D01*
X21769548Y-15150452D01*
X21779071Y-15140928D01*
X21788595Y-15121881D01*
X21788595Y-15083786D01*
X21779071Y-15064738D01*
X21769548Y-15055214D01*
X21750500Y-15045690D01*
X21979071Y-15159976D02*
X21864786Y-15159976D01*
X21921929Y-15159976D02*
X21921929Y-14959976D01*
X21902881Y-14988548D01*
X21883833Y-15007595D01*
X21864786Y-15017119D01*
X22045738Y-14959976D02*
X22169548Y-14959976D01*
X22102881Y-15036167D01*
X22131452Y-15036167D01*
X22150500Y-15045690D01*
X22160024Y-15055214D01*
X22169548Y-15074262D01*
X22169548Y-15121881D01*
X22160024Y-15140928D01*
X22150500Y-15150452D01*
X22131452Y-15159976D01*
X22074310Y-15159976D01*
X22055262Y-15150452D01*
X22045738Y-15140928D01*
X22255262Y-15159976D02*
X22255262Y-15026643D01*
X22255262Y-15045690D02*
X22264786Y-15036167D01*
X22283833Y-15026643D01*
X22312405Y-15026643D01*
X22331452Y-15036167D01*
X22340976Y-15055214D01*
X22340976Y-15159976D01*
X22340976Y-15055214D02*
X22350500Y-15036167D01*
X22369548Y-15026643D01*
X22398119Y-15026643D01*
X22417167Y-15036167D01*
X22426690Y-15055214D01*
X22426690Y-15159976D01*
X22521928Y-15159976D02*
X22521928Y-15026643D01*
X22521928Y-15045690D02*
X22531452Y-15036167D01*
X22550500Y-15026643D01*
X22579071Y-15026643D01*
X22598119Y-15036167D01*
X22607643Y-15055214D01*
X22607643Y-15159976D01*
X22607643Y-15055214D02*
X22617167Y-15036167D01*
X22636214Y-15026643D01*
X22664786Y-15026643D01*
X22683833Y-15036167D01*
X22693357Y-15055214D01*
X22693357Y-15159976D01*
X23083833Y-14950452D02*
X22912405Y-15207595D01*
X23340976Y-14959976D02*
X23360024Y-14959976D01*
X23379071Y-14969500D01*
X23388595Y-14979024D01*
X23398119Y-14998071D01*
X23407643Y-15036167D01*
X23407643Y-15083786D01*
X23398119Y-15121881D01*
X23388595Y-15140928D01*
X23379071Y-15150452D01*
X23360024Y-15159976D01*
X23340976Y-15159976D01*
X23321928Y-15150452D01*
X23312405Y-15140928D01*
X23302881Y-15121881D01*
X23293357Y-15083786D01*
X23293357Y-15036167D01*
X23302881Y-14998071D01*
X23312405Y-14979024D01*
X23321928Y-14969500D01*
X23340976Y-14959976D01*
X23493357Y-15140928D02*
X23502881Y-15150452D01*
X23493357Y-15159976D01*
X23483833Y-15150452D01*
X23493357Y-15140928D01*
X23493357Y-15159976D01*
X23626690Y-14959976D02*
X23645738Y-14959976D01*
X23664786Y-14969500D01*
X23674309Y-14979024D01*
X23683833Y-14998071D01*
X23693357Y-15036167D01*
X23693357Y-15083786D01*
X23683833Y-15121881D01*
X23674309Y-15140928D01*
X23664786Y-15150452D01*
X23645738Y-15159976D01*
X23626690Y-15159976D01*
X23607643Y-15150452D01*
X23598119Y-15140928D01*
X23588595Y-15121881D01*
X23579071Y-15083786D01*
X23579071Y-15036167D01*
X23588595Y-14998071D01*
X23598119Y-14979024D01*
X23607643Y-14969500D01*
X23626690Y-14959976D01*
X23760024Y-14959976D02*
X23883833Y-14959976D01*
X23817167Y-15036167D01*
X23845738Y-15036167D01*
X23864786Y-15045690D01*
X23874309Y-15055214D01*
X23883833Y-15074262D01*
X23883833Y-15121881D01*
X23874309Y-15140928D01*
X23864786Y-15150452D01*
X23845738Y-15159976D01*
X23788595Y-15159976D01*
X23769548Y-15150452D01*
X23760024Y-15140928D01*
X23960024Y-14979024D02*
X23969548Y-14969500D01*
X23988595Y-14959976D01*
X24036214Y-14959976D01*
X24055262Y-14969500D01*
X24064786Y-14979024D01*
X24074309Y-14998071D01*
X24074309Y-15017119D01*
X24064786Y-15045690D01*
X23950500Y-15159976D01*
X24074309Y-15159976D01*
X24198119Y-14959976D02*
X24217167Y-14959976D01*
X24236214Y-14969500D01*
X24245738Y-14979024D01*
X24255262Y-14998071D01*
X24264786Y-15036167D01*
X24264786Y-15083786D01*
X24255262Y-15121881D01*
X24245738Y-15140928D01*
X24236214Y-15150452D01*
X24217167Y-15159976D01*
X24198119Y-15159976D01*
X24179071Y-15150452D01*
X24169548Y-15140928D01*
X24160024Y-15121881D01*
X24150500Y-15083786D01*
X24150500Y-15036167D01*
X24160024Y-14998071D01*
X24169548Y-14979024D01*
X24179071Y-14969500D01*
X24198119Y-14959976D01*
X24340976Y-14959976D02*
X24340976Y-14998071D01*
X24417167Y-14959976D02*
X24417167Y-14998071D01*
X24712405Y-15236167D02*
X24702881Y-15226643D01*
X24683833Y-15198071D01*
X24674309Y-15179024D01*
X24664786Y-15150452D01*
X24655262Y-15102833D01*
X24655262Y-15064738D01*
X24664786Y-15017119D01*
X24674309Y-14988548D01*
X24683833Y-14969500D01*
X24702881Y-14940928D01*
X24712405Y-14931405D01*
X24893357Y-15159976D02*
X24779071Y-15159976D01*
X24836214Y-15159976D02*
X24836214Y-14959976D01*
X24817167Y-14988548D01*
X24798119Y-15007595D01*
X24779071Y-15017119D01*
X25017167Y-14959976D02*
X25036214Y-14959976D01*
X25055262Y-14969500D01*
X25064786Y-14979024D01*
X25074309Y-14998071D01*
X25083833Y-15036167D01*
X25083833Y-15083786D01*
X25074309Y-15121881D01*
X25064786Y-15140928D01*
X25055262Y-15150452D01*
X25036214Y-15159976D01*
X25017167Y-15159976D01*
X24998119Y-15150452D01*
X24988595Y-15140928D01*
X24979071Y-15121881D01*
X24969548Y-15083786D01*
X24969548Y-15036167D01*
X24979071Y-14998071D01*
X24988595Y-14979024D01*
X24998119Y-14969500D01*
X25017167Y-14959976D01*
X25274309Y-15159976D02*
X25160024Y-15159976D01*
X25217167Y-15159976D02*
X25217167Y-14959976D01*
X25198119Y-14988548D01*
X25179071Y-15007595D01*
X25160024Y-15017119D01*
X25512405Y-15159976D02*
X25512405Y-14959976D01*
X25598119Y-15159976D02*
X25598119Y-15055214D01*
X25588595Y-15036167D01*
X25569548Y-15026643D01*
X25540976Y-15026643D01*
X25521928Y-15036167D01*
X25512405Y-15045690D01*
X25721928Y-15159976D02*
X25702881Y-15150452D01*
X25693357Y-15140928D01*
X25683833Y-15121881D01*
X25683833Y-15064738D01*
X25693357Y-15045690D01*
X25702881Y-15036167D01*
X25721928Y-15026643D01*
X25750500Y-15026643D01*
X25769548Y-15036167D01*
X25779071Y-15045690D01*
X25788595Y-15064738D01*
X25788595Y-15121881D01*
X25779071Y-15140928D01*
X25769548Y-15150452D01*
X25750500Y-15159976D01*
X25721928Y-15159976D01*
X25902881Y-15159976D02*
X25883833Y-15150452D01*
X25874309Y-15131405D01*
X25874309Y-14959976D01*
X26055262Y-15150452D02*
X26036214Y-15159976D01*
X25998119Y-15159976D01*
X25979071Y-15150452D01*
X25969548Y-15131405D01*
X25969548Y-15055214D01*
X25979071Y-15036167D01*
X25998119Y-15026643D01*
X26036214Y-15026643D01*
X26055262Y-15036167D01*
X26064786Y-15055214D01*
X26064786Y-15074262D01*
X25969548Y-15093309D01*
X26140976Y-15150452D02*
X26160024Y-15159976D01*
X26198119Y-15159976D01*
X26217167Y-15150452D01*
X26226690Y-15131405D01*
X26226690Y-15121881D01*
X26217167Y-15102833D01*
X26198119Y-15093309D01*
X26169548Y-15093309D01*
X26150500Y-15083786D01*
X26140976Y-15064738D01*
X26140976Y-15055214D01*
X26150500Y-15036167D01*
X26169548Y-15026643D01*
X26198119Y-15026643D01*
X26217167Y-15036167D01*
X26293357Y-15236167D02*
X26302881Y-15226643D01*
X26321928Y-15198071D01*
X26331452Y-15179024D01*
X26340976Y-15150452D01*
X26350500Y-15102833D01*
X26350500Y-15064738D01*
X26340976Y-15017119D01*
X26331452Y-14988548D01*
X26321928Y-14969500D01*
X26302881Y-14940928D01*
X26293357Y-14931405D01*
D14*
X21065500Y-15258500D02*
X21065500Y-15408500D01*
X20990500Y-15333500D02*
X21140500Y-15333500D01*
D11*
X21502881Y-15423976D02*
X21388595Y-15423976D01*
X21445738Y-15423976D02*
X21445738Y-15223976D01*
X21426690Y-15252548D01*
X21407643Y-15271595D01*
X21388595Y-15281119D01*
X21588595Y-15404928D02*
X21598119Y-15414452D01*
X21588595Y-15423976D01*
X21579071Y-15414452D01*
X21588595Y-15404928D01*
X21588595Y-15423976D01*
X21779071Y-15223976D02*
X21683833Y-15223976D01*
X21674310Y-15319214D01*
X21683833Y-15309690D01*
X21702881Y-15300167D01*
X21750500Y-15300167D01*
X21769548Y-15309690D01*
X21779071Y-15319214D01*
X21788595Y-15338262D01*
X21788595Y-15385881D01*
X21779071Y-15404928D01*
X21769548Y-15414452D01*
X21750500Y-15423976D01*
X21702881Y-15423976D01*
X21683833Y-15414452D01*
X21674310Y-15404928D01*
X21912405Y-15223976D02*
X21931452Y-15223976D01*
X21950500Y-15233500D01*
X21960024Y-15243024D01*
X21969548Y-15262071D01*
X21979071Y-15300167D01*
X21979071Y-15347786D01*
X21969548Y-15385881D01*
X21960024Y-15404928D01*
X21950500Y-15414452D01*
X21931452Y-15423976D01*
X21912405Y-15423976D01*
X21893357Y-15414452D01*
X21883833Y-15404928D01*
X21874310Y-15385881D01*
X21864786Y-15347786D01*
X21864786Y-15300167D01*
X21874310Y-15262071D01*
X21883833Y-15243024D01*
X21893357Y-15233500D01*
X21912405Y-15223976D01*
X22102881Y-15223976D02*
X22121929Y-15223976D01*
X22140976Y-15233500D01*
X22150500Y-15243024D01*
X22160024Y-15262071D01*
X22169548Y-15300167D01*
X22169548Y-15347786D01*
X22160024Y-15385881D01*
X22150500Y-15404928D01*
X22140976Y-15414452D01*
X22121929Y-15423976D01*
X22102881Y-15423976D01*
X22083833Y-15414452D01*
X22074310Y-15404928D01*
X22064786Y-15385881D01*
X22055262Y-15347786D01*
X22055262Y-15300167D01*
X22064786Y-15262071D01*
X22074310Y-15243024D01*
X22083833Y-15233500D01*
X22102881Y-15223976D01*
X22255262Y-15423976D02*
X22255262Y-15290643D01*
X22255262Y-15309690D02*
X22264786Y-15300167D01*
X22283833Y-15290643D01*
X22312405Y-15290643D01*
X22331452Y-15300167D01*
X22340976Y-15319214D01*
X22340976Y-15423976D01*
X22340976Y-15319214D02*
X22350500Y-15300167D01*
X22369548Y-15290643D01*
X22398119Y-15290643D01*
X22417167Y-15300167D01*
X22426690Y-15319214D01*
X22426690Y-15423976D01*
X22521928Y-15423976D02*
X22521928Y-15290643D01*
X22521928Y-15309690D02*
X22531452Y-15300167D01*
X22550500Y-15290643D01*
X22579071Y-15290643D01*
X22598119Y-15300167D01*
X22607643Y-15319214D01*
X22607643Y-15423976D01*
X22607643Y-15319214D02*
X22617167Y-15300167D01*
X22636214Y-15290643D01*
X22664786Y-15290643D01*
X22683833Y-15300167D01*
X22693357Y-15319214D01*
X22693357Y-15423976D01*
X23083833Y-15214452D02*
X22912405Y-15471595D01*
X23340976Y-15223976D02*
X23360024Y-15223976D01*
X23379071Y-15233500D01*
X23388595Y-15243024D01*
X23398119Y-15262071D01*
X23407643Y-15300167D01*
X23407643Y-15347786D01*
X23398119Y-15385881D01*
X23388595Y-15404928D01*
X23379071Y-15414452D01*
X23360024Y-15423976D01*
X23340976Y-15423976D01*
X23321928Y-15414452D01*
X23312405Y-15404928D01*
X23302881Y-15385881D01*
X23293357Y-15347786D01*
X23293357Y-15300167D01*
X23302881Y-15262071D01*
X23312405Y-15243024D01*
X23321928Y-15233500D01*
X23340976Y-15223976D01*
X23493357Y-15404928D02*
X23502881Y-15414452D01*
X23493357Y-15423976D01*
X23483833Y-15414452D01*
X23493357Y-15404928D01*
X23493357Y-15423976D01*
X23626690Y-15223976D02*
X23645738Y-15223976D01*
X23664786Y-15233500D01*
X23674309Y-15243024D01*
X23683833Y-15262071D01*
X23693357Y-15300167D01*
X23693357Y-15347786D01*
X23683833Y-15385881D01*
X23674309Y-15404928D01*
X23664786Y-15414452D01*
X23645738Y-15423976D01*
X23626690Y-15423976D01*
X23607643Y-15414452D01*
X23598119Y-15404928D01*
X23588595Y-15385881D01*
X23579071Y-15347786D01*
X23579071Y-15300167D01*
X23588595Y-15262071D01*
X23598119Y-15243024D01*
X23607643Y-15233500D01*
X23626690Y-15223976D01*
X23874309Y-15223976D02*
X23779071Y-15223976D01*
X23769548Y-15319214D01*
X23779071Y-15309690D01*
X23798119Y-15300167D01*
X23845738Y-15300167D01*
X23864786Y-15309690D01*
X23874309Y-15319214D01*
X23883833Y-15338262D01*
X23883833Y-15385881D01*
X23874309Y-15404928D01*
X23864786Y-15414452D01*
X23845738Y-15423976D01*
X23798119Y-15423976D01*
X23779071Y-15414452D01*
X23769548Y-15404928D01*
X23979071Y-15423976D02*
X24017167Y-15423976D01*
X24036214Y-15414452D01*
X24045738Y-15404928D01*
X24064786Y-15376357D01*
X24074309Y-15338262D01*
X24074309Y-15262071D01*
X24064786Y-15243024D01*
X24055262Y-15233500D01*
X24036214Y-15223976D01*
X23998119Y-15223976D01*
X23979071Y-15233500D01*
X23969548Y-15243024D01*
X23960024Y-15262071D01*
X23960024Y-15309690D01*
X23969548Y-15328738D01*
X23979071Y-15338262D01*
X23998119Y-15347786D01*
X24036214Y-15347786D01*
X24055262Y-15338262D01*
X24064786Y-15328738D01*
X24074309Y-15309690D01*
X24264786Y-15423976D02*
X24150500Y-15423976D01*
X24207643Y-15423976D02*
X24207643Y-15223976D01*
X24188595Y-15252548D01*
X24169548Y-15271595D01*
X24150500Y-15281119D01*
X24340976Y-15223976D02*
X24340976Y-15262071D01*
X24417167Y-15223976D02*
X24417167Y-15262071D01*
X24712405Y-15500167D02*
X24702881Y-15490643D01*
X24683833Y-15462071D01*
X24674309Y-15443024D01*
X24664786Y-15414452D01*
X24655262Y-15366833D01*
X24655262Y-15328738D01*
X24664786Y-15281119D01*
X24674309Y-15252548D01*
X24683833Y-15233500D01*
X24702881Y-15204928D01*
X24712405Y-15195405D01*
X24779071Y-15243024D02*
X24788595Y-15233500D01*
X24807643Y-15223976D01*
X24855262Y-15223976D01*
X24874309Y-15233500D01*
X24883833Y-15243024D01*
X24893357Y-15262071D01*
X24893357Y-15281119D01*
X24883833Y-15309690D01*
X24769548Y-15423976D01*
X24893357Y-15423976D01*
X25007643Y-15309690D02*
X24988595Y-15300167D01*
X24979071Y-15290643D01*
X24969548Y-15271595D01*
X24969548Y-15262071D01*
X24979071Y-15243024D01*
X24988595Y-15233500D01*
X25007643Y-15223976D01*
X25045738Y-15223976D01*
X25064786Y-15233500D01*
X25074309Y-15243024D01*
X25083833Y-15262071D01*
X25083833Y-15271595D01*
X25074309Y-15290643D01*
X25064786Y-15300167D01*
X25045738Y-15309690D01*
X25007643Y-15309690D01*
X24988595Y-15319214D01*
X24979071Y-15328738D01*
X24969548Y-15347786D01*
X24969548Y-15385881D01*
X24979071Y-15404928D01*
X24988595Y-15414452D01*
X25007643Y-15423976D01*
X25045738Y-15423976D01*
X25064786Y-15414452D01*
X25074309Y-15404928D01*
X25083833Y-15385881D01*
X25083833Y-15347786D01*
X25074309Y-15328738D01*
X25064786Y-15319214D01*
X25045738Y-15309690D01*
X25321928Y-15423976D02*
X25321928Y-15223976D01*
X25407643Y-15423976D02*
X25407643Y-15319214D01*
X25398119Y-15300167D01*
X25379071Y-15290643D01*
X25350500Y-15290643D01*
X25331452Y-15300167D01*
X25321928Y-15309690D01*
X25531452Y-15423976D02*
X25512405Y-15414452D01*
X25502881Y-15404928D01*
X25493357Y-15385881D01*
X25493357Y-15328738D01*
X25502881Y-15309690D01*
X25512405Y-15300167D01*
X25531452Y-15290643D01*
X25560024Y-15290643D01*
X25579071Y-15300167D01*
X25588595Y-15309690D01*
X25598119Y-15328738D01*
X25598119Y-15385881D01*
X25588595Y-15404928D01*
X25579071Y-15414452D01*
X25560024Y-15423976D01*
X25531452Y-15423976D01*
X25712405Y-15423976D02*
X25693357Y-15414452D01*
X25683833Y-15395405D01*
X25683833Y-15223976D01*
X25864786Y-15414452D02*
X25845738Y-15423976D01*
X25807643Y-15423976D01*
X25788595Y-15414452D01*
X25779071Y-15395405D01*
X25779071Y-15319214D01*
X25788595Y-15300167D01*
X25807643Y-15290643D01*
X25845738Y-15290643D01*
X25864786Y-15300167D01*
X25874309Y-15319214D01*
X25874309Y-15338262D01*
X25779071Y-15357309D01*
X25950500Y-15414452D02*
X25969548Y-15423976D01*
X26007643Y-15423976D01*
X26026690Y-15414452D01*
X26036214Y-15395405D01*
X26036214Y-15385881D01*
X26026690Y-15366833D01*
X26007643Y-15357309D01*
X25979071Y-15357309D01*
X25960024Y-15347786D01*
X25950500Y-15328738D01*
X25950500Y-15319214D01*
X25960024Y-15300167D01*
X25979071Y-15290643D01*
X26007643Y-15290643D01*
X26026690Y-15300167D01*
X26102881Y-15500167D02*
X26112405Y-15490643D01*
X26131452Y-15462071D01*
X26140976Y-15443024D01*
X26150500Y-15414452D01*
X26160024Y-15366833D01*
X26160024Y-15328738D01*
X26150500Y-15281119D01*
X26140976Y-15252548D01*
X26131452Y-15233500D01*
X26112405Y-15204928D01*
X26102881Y-15195405D01*
D15*
X21114140Y-15667140D02*
X21114140Y-15539860D01*
X20986860Y-15539860D01*
X20986860Y-15667140D01*
X21114140Y-15667140D01*
D11*
X21502881Y-15693976D02*
X21388595Y-15693976D01*
X21445738Y-15693976D02*
X21445738Y-15493976D01*
X21426690Y-15522548D01*
X21407643Y-15541595D01*
X21388595Y-15551119D01*
X21588595Y-15674928D02*
X21598119Y-15684452D01*
X21588595Y-15693976D01*
X21579071Y-15684452D01*
X21588595Y-15674928D01*
X21588595Y-15693976D01*
X21712405Y-15579690D02*
X21693357Y-15570167D01*
X21683833Y-15560643D01*
X21674310Y-15541595D01*
X21674310Y-15532071D01*
X21683833Y-15513024D01*
X21693357Y-15503500D01*
X21712405Y-15493976D01*
X21750500Y-15493976D01*
X21769548Y-15503500D01*
X21779071Y-15513024D01*
X21788595Y-15532071D01*
X21788595Y-15541595D01*
X21779071Y-15560643D01*
X21769548Y-15570167D01*
X21750500Y-15579690D01*
X21712405Y-15579690D01*
X21693357Y-15589214D01*
X21683833Y-15598738D01*
X21674310Y-15617786D01*
X21674310Y-15655881D01*
X21683833Y-15674928D01*
X21693357Y-15684452D01*
X21712405Y-15693976D01*
X21750500Y-15693976D01*
X21769548Y-15684452D01*
X21779071Y-15674928D01*
X21788595Y-15655881D01*
X21788595Y-15617786D01*
X21779071Y-15598738D01*
X21769548Y-15589214D01*
X21750500Y-15579690D01*
X21912405Y-15493976D02*
X21931452Y-15493976D01*
X21950500Y-15503500D01*
X21960024Y-15513024D01*
X21969548Y-15532071D01*
X21979071Y-15570167D01*
X21979071Y-15617786D01*
X21969548Y-15655881D01*
X21960024Y-15674928D01*
X21950500Y-15684452D01*
X21931452Y-15693976D01*
X21912405Y-15693976D01*
X21893357Y-15684452D01*
X21883833Y-15674928D01*
X21874310Y-15655881D01*
X21864786Y-15617786D01*
X21864786Y-15570167D01*
X21874310Y-15532071D01*
X21883833Y-15513024D01*
X21893357Y-15503500D01*
X21912405Y-15493976D01*
X22102881Y-15493976D02*
X22121929Y-15493976D01*
X22140976Y-15503500D01*
X22150500Y-15513024D01*
X22160024Y-15532071D01*
X22169548Y-15570167D01*
X22169548Y-15617786D01*
X22160024Y-15655881D01*
X22150500Y-15674928D01*
X22140976Y-15684452D01*
X22121929Y-15693976D01*
X22102881Y-15693976D01*
X22083833Y-15684452D01*
X22074310Y-15674928D01*
X22064786Y-15655881D01*
X22055262Y-15617786D01*
X22055262Y-15570167D01*
X22064786Y-15532071D01*
X22074310Y-15513024D01*
X22083833Y-15503500D01*
X22102881Y-15493976D01*
X22255262Y-15693976D02*
X22255262Y-15560643D01*
X22255262Y-15579690D02*
X22264786Y-15570167D01*
X22283833Y-15560643D01*
X22312405Y-15560643D01*
X22331452Y-15570167D01*
X22340976Y-15589214D01*
X22340976Y-15693976D01*
X22340976Y-15589214D02*
X22350500Y-15570167D01*
X22369548Y-15560643D01*
X22398119Y-15560643D01*
X22417167Y-15570167D01*
X22426690Y-15589214D01*
X22426690Y-15693976D01*
X22521928Y-15693976D02*
X22521928Y-15560643D01*
X22521928Y-15579690D02*
X22531452Y-15570167D01*
X22550500Y-15560643D01*
X22579071Y-15560643D01*
X22598119Y-15570167D01*
X22607643Y-15589214D01*
X22607643Y-15693976D01*
X22607643Y-15589214D02*
X22617167Y-15570167D01*
X22636214Y-15560643D01*
X22664786Y-15560643D01*
X22683833Y-15570167D01*
X22693357Y-15589214D01*
X22693357Y-15693976D01*
X23083833Y-15484452D02*
X22912405Y-15741595D01*
X23340976Y-15493976D02*
X23360024Y-15493976D01*
X23379071Y-15503500D01*
X23388595Y-15513024D01*
X23398119Y-15532071D01*
X23407643Y-15570167D01*
X23407643Y-15617786D01*
X23398119Y-15655881D01*
X23388595Y-15674928D01*
X23379071Y-15684452D01*
X23360024Y-15693976D01*
X23340976Y-15693976D01*
X23321928Y-15684452D01*
X23312405Y-15674928D01*
X23302881Y-15655881D01*
X23293357Y-15617786D01*
X23293357Y-15570167D01*
X23302881Y-15532071D01*
X23312405Y-15513024D01*
X23321928Y-15503500D01*
X23340976Y-15493976D01*
X23493357Y-15674928D02*
X23502881Y-15684452D01*
X23493357Y-15693976D01*
X23483833Y-15684452D01*
X23493357Y-15674928D01*
X23493357Y-15693976D01*
X23626690Y-15493976D02*
X23645738Y-15493976D01*
X23664786Y-15503500D01*
X23674309Y-15513024D01*
X23683833Y-15532071D01*
X23693357Y-15570167D01*
X23693357Y-15617786D01*
X23683833Y-15655881D01*
X23674309Y-15674928D01*
X23664786Y-15684452D01*
X23645738Y-15693976D01*
X23626690Y-15693976D01*
X23607643Y-15684452D01*
X23598119Y-15674928D01*
X23588595Y-15655881D01*
X23579071Y-15617786D01*
X23579071Y-15570167D01*
X23588595Y-15532071D01*
X23598119Y-15513024D01*
X23607643Y-15503500D01*
X23626690Y-15493976D01*
X23760024Y-15493976D02*
X23893357Y-15493976D01*
X23807643Y-15693976D01*
X24007643Y-15493976D02*
X24026690Y-15493976D01*
X24045738Y-15503500D01*
X24055262Y-15513024D01*
X24064786Y-15532071D01*
X24074309Y-15570167D01*
X24074309Y-15617786D01*
X24064786Y-15655881D01*
X24055262Y-15674928D01*
X24045738Y-15684452D01*
X24026690Y-15693976D01*
X24007643Y-15693976D01*
X23988595Y-15684452D01*
X23979071Y-15674928D01*
X23969548Y-15655881D01*
X23960024Y-15617786D01*
X23960024Y-15570167D01*
X23969548Y-15532071D01*
X23979071Y-15513024D01*
X23988595Y-15503500D01*
X24007643Y-15493976D01*
X24169548Y-15693976D02*
X24207643Y-15693976D01*
X24226690Y-15684452D01*
X24236214Y-15674928D01*
X24255262Y-15646357D01*
X24264786Y-15608262D01*
X24264786Y-15532071D01*
X24255262Y-15513024D01*
X24245738Y-15503500D01*
X24226690Y-15493976D01*
X24188595Y-15493976D01*
X24169548Y-15503500D01*
X24160024Y-15513024D01*
X24150500Y-15532071D01*
X24150500Y-15579690D01*
X24160024Y-15598738D01*
X24169548Y-15608262D01*
X24188595Y-15617786D01*
X24226690Y-15617786D01*
X24245738Y-15608262D01*
X24255262Y-15598738D01*
X24264786Y-15579690D01*
X24340976Y-15493976D02*
X24340976Y-15532071D01*
X24417167Y-15493976D02*
X24417167Y-15532071D01*
X24712405Y-15770167D02*
X24702881Y-15760643D01*
X24683833Y-15732071D01*
X24674309Y-15713024D01*
X24664786Y-15684452D01*
X24655262Y-15636833D01*
X24655262Y-15598738D01*
X24664786Y-15551119D01*
X24674309Y-15522548D01*
X24683833Y-15503500D01*
X24702881Y-15474928D01*
X24712405Y-15465405D01*
X24779071Y-15513024D02*
X24788595Y-15503500D01*
X24807643Y-15493976D01*
X24855262Y-15493976D01*
X24874309Y-15503500D01*
X24883833Y-15513024D01*
X24893357Y-15532071D01*
X24893357Y-15551119D01*
X24883833Y-15579690D01*
X24769548Y-15693976D01*
X24893357Y-15693976D01*
X25007643Y-15579690D02*
X24988595Y-15570167D01*
X24979071Y-15560643D01*
X24969548Y-15541595D01*
X24969548Y-15532071D01*
X24979071Y-15513024D01*
X24988595Y-15503500D01*
X25007643Y-15493976D01*
X25045738Y-15493976D01*
X25064786Y-15503500D01*
X25074309Y-15513024D01*
X25083833Y-15532071D01*
X25083833Y-15541595D01*
X25074309Y-15560643D01*
X25064786Y-15570167D01*
X25045738Y-15579690D01*
X25007643Y-15579690D01*
X24988595Y-15589214D01*
X24979071Y-15598738D01*
X24969548Y-15617786D01*
X24969548Y-15655881D01*
X24979071Y-15674928D01*
X24988595Y-15684452D01*
X25007643Y-15693976D01*
X25045738Y-15693976D01*
X25064786Y-15684452D01*
X25074309Y-15674928D01*
X25083833Y-15655881D01*
X25083833Y-15617786D01*
X25074309Y-15598738D01*
X25064786Y-15589214D01*
X25045738Y-15579690D01*
X25321928Y-15693976D02*
X25321928Y-15493976D01*
X25407643Y-15693976D02*
X25407643Y-15589214D01*
X25398119Y-15570167D01*
X25379071Y-15560643D01*
X25350500Y-15560643D01*
X25331452Y-15570167D01*
X25321928Y-15579690D01*
X25531452Y-15693976D02*
X25512405Y-15684452D01*
X25502881Y-15674928D01*
X25493357Y-15655881D01*
X25493357Y-15598738D01*
X25502881Y-15579690D01*
X25512405Y-15570167D01*
X25531452Y-15560643D01*
X25560024Y-15560643D01*
X25579071Y-15570167D01*
X25588595Y-15579690D01*
X25598119Y-15598738D01*
X25598119Y-15655881D01*
X25588595Y-15674928D01*
X25579071Y-15684452D01*
X25560024Y-15693976D01*
X25531452Y-15693976D01*
X25712405Y-15693976D02*
X25693357Y-15684452D01*
X25683833Y-15665405D01*
X25683833Y-15493976D01*
X25864786Y-15684452D02*
X25845738Y-15693976D01*
X25807643Y-15693976D01*
X25788595Y-15684452D01*
X25779071Y-15665405D01*
X25779071Y-15589214D01*
X25788595Y-15570167D01*
X25807643Y-15560643D01*
X25845738Y-15560643D01*
X25864786Y-15570167D01*
X25874309Y-15589214D01*
X25874309Y-15608262D01*
X25779071Y-15627309D01*
X25950500Y-15684452D02*
X25969548Y-15693976D01*
X26007643Y-15693976D01*
X26026690Y-15684452D01*
X26036214Y-15665405D01*
X26036214Y-15655881D01*
X26026690Y-15636833D01*
X26007643Y-15627309D01*
X25979071Y-15627309D01*
X25960024Y-15617786D01*
X25950500Y-15598738D01*
X25950500Y-15589214D01*
X25960024Y-15570167D01*
X25979071Y-15560643D01*
X26007643Y-15560643D01*
X26026690Y-15570167D01*
X26102881Y-15770167D02*
X26112405Y-15760643D01*
X26131452Y-15732071D01*
X26140976Y-15713024D01*
X26150500Y-15684452D01*
X26160024Y-15636833D01*
X26160024Y-15598738D01*
X26150500Y-15551119D01*
X26140976Y-15522548D01*
X26131452Y-15503500D01*
X26112405Y-15474928D01*
X26102881Y-15465405D01*
M02*
